<?xml version="1.0" standalone="no"?>
<!DOCTYPE svg PUBLIC "-//W3C//DTD SVG 1.1//EN" "http://www.w3.org/Graphics/SVG/1.1/DTD/svg11.dtd" >
<svg xmlns="http://www.w3.org/2000/svg" xmlns:xlink="http://www.w3.org/1999/xlink" version="1.1">
<metadata>
Created by FontForge 20170731 at Wed May  5 09:42:58 2021
 By Aleksey,,,
Copyright (c) 2007 Linotype GmbH, www.linotype.com. All rights reserved. This font software may not be reproduced, modified, disclosed or transferred without the express written approval of Linotype GmbH. Eurostile is a trademark of Linotype GmbH and may be registered in certain jurisdictions. This typeface is original artwork of Aldo Novarese. The design may be protected in certain jurisdictions.
</metadata>
<defs>
<font id="EurostileLTProUnicode-Demi" horiz-adv-x="681" >
  <font-face 
    font-family="Eurostile LT Pro Unicode"
    font-weight="600"
    font-stretch="normal"
    units-per-em="2048"
    panose-1="2 11 7 4 2 2 2 5 2 4"
    ascent="1481"
    descent="-567"
    x-height="1042"
    cap-height="1481"
    bbox="-348 -471 2034 1976"
    underline-thickness="102"
    underline-position="-307"
    unicode-range="U+0020-FB02"
  />
<missing-glyph horiz-adv-x="993" 
d="M539 227h-109v129h109v-129zM526 455h-94v32q0 101 23.5 153.5t93.5 115.5q58 58 76 92t18 72q0 68 -43 115.5t-104 47.5q-64 0 -106 -44.5t-52 -139.5l-98 16q13 136 82.5 201.5t179.5 65.5q107 0 174 -69t67 -185q0 -66 -25.5 -116.5t-96.5 -115.5q-66 -57 -80.5 -91.5
t-14.5 -115.5v-34zM96 96h801v1198h-801v-1198zM0 1393h993v-1393h-993v1393z" />
    <glyph glyph-name="IJ" unicode="IJ" horiz-adv-x="1843" 
d="M168 1481h278v-1481h-278v1481zM670 584h260v-111q0 -58 2 -91t11 -66t24.5 -48.5t44.5 -28t69 -16.5t101 -4q75 0 117.5 8t70.5 33t37.5 66.5t9.5 113.5v1041h279v-1018q0 -143 -26.5 -234.5t-90.5 -146t-157.5 -75.5t-239.5 -21q-154 0 -251 21.5t-157.5 76t-84 138
t-23.5 216.5q0 99 4 146z" />
    <glyph glyph-name="ij" unicode="ij" horiz-adv-x="999" 
d="M375 1272h-244v209h244v-209zM131 0v1042h244v-1042h-244zM868 1272h-243v209h243v-209zM506 -408v179h26q53 0 73 25.5t20 92.5v1153h243v-1153q0 -157 -65.5 -229t-218.5 -72q-57 0 -78 4z" />
    <glyph glyph-name="napostrophe" unicode="&#x22;n" horiz-adv-x="1331" 
d="M303 0v1042h238v-145q59 98 131.5 130t210.5 32q178 0 251.5 -81.5t73.5 -248.5v-729h-243v655q0 55 -4.5 89.5t-16.5 61.5t-35.5 41t-57.5 20.5t-87 6.5q-68 0 -111.5 -17t-66.5 -53.5t-31 -82t-8 -115.5v-606h-244zM2 975v115q58 5 77 21t19 63v38h-88v269h230v-230
q0 -82 -8 -129.5t-34 -82t-72 -48.5t-124 -16z" />
    <glyph glyph-name="fi" unicode="fi" horiz-adv-x="1179" 
d="M170 858h-139v184h139v134q0 172 77 246.5t261 74.5q77 0 176 -12v-176q-72 6 -135 6q-76 0 -105.5 -31.5t-29.5 -118.5v-123h270v-184h-270v-858h-244v858zM1049 1272h-244v209h244v-209zM805 0v1042h244v-1042h-244z" />
    <glyph glyph-name="fl" unicode="fl" horiz-adv-x="1179" 
d="M170 858h-139v184h139v134q0 172 77 246.5t261 74.5q77 0 176 -12v-176q-72 6 -135 6q-76 0 -105.5 -31.5t-29.5 -118.5v-123h270v-184h-270v-858h-244v858zM805 0v1481h244v-1481h-244z" />
    <glyph glyph-name=".notdef" horiz-adv-x="993" 
d="M539 227h-109v129h109v-129zM526 455h-94v32q0 101 23.5 153.5t93.5 115.5q58 58 76 92t18 72q0 68 -43 115.5t-104 47.5q-64 0 -106 -44.5t-52 -139.5l-98 16q13 136 82.5 201.5t179.5 65.5q107 0 174 -69t67 -185q0 -66 -25.5 -116.5t-96.5 -115.5q-66 -57 -80.5 -91.5
t-14.5 -115.5v-34zM96 96h801v1198h-801v-1198zM0 1393h993v-1393h-993v1393z" />
    <glyph glyph-name=".null" horiz-adv-x="1024" 
 />
    <glyph glyph-name="nonmarkingreturn" horiz-adv-x="682" 
 />
    <glyph glyph-name="space" unicode=" " 
 />
    <glyph glyph-name="exclam" unicode="!" 
d="M225 481l-12 1000h256l-8 -1000h-236zM217 0v258h246v-258h-246z" />
    <glyph glyph-name="quotedbl" unicode="&#x22;" horiz-adv-x="739" 
d="M66 1481h233v-246l-61 -322h-115l-57 322v246zM438 1481h234v-246l-62 -322h-114l-58 322v246z" />
    <glyph glyph-name="numbersign" unicode="#" horiz-adv-x="1366" 
d="M1245 1096v-201h-196l-64 -297h172v-201h-215l-86 -397h-201l86 397h-295l-86 -397h-200l86 397h-140v201h183l63 297h-157v201h200l84 385h201l-84 -385h295l84 385h201l-84 -385h153zM553 895l-64 -297h295l64 297h-295z" />
    <glyph glyph-name="dollar" unicode="$" horiz-adv-x="1366" 
d="M102 449h248v-43q0 -62 10.5 -99t40 -58t69.5 -27.5t110 -6.5h38v432q-80 4 -136 10t-113 18t-94 32t-70.5 51t-52 74.5t-29 102.5t-10.5 136q0 213 105.5 309.5t330.5 96.5h69v118h121v-118h52q226 0 328 -80t102 -254v-58h-242v48q0 63 -44 96t-144 33h-52v-400
q156 -6 253 -28t160.5 -71.5t88.5 -127.5t25 -201q0 -228 -117.5 -331t-370.5 -103h-39v-127h-121v127h-71q-233 0 -339 90t-106 307v52zM618 868v394h-28q-133 0 -179 -35.5t-46 -141.5q0 -49 3.5 -80.5t15 -57t27 -39t46.5 -23t67 -12.5t94 -5zM739 639v-424h13
q76 0 121 7.5t77.5 30.5t45 64t12.5 109q0 30 -0.5 51.5t-4.5 42t-7.5 33.5t-13.5 25.5t-18 19.5t-27 14t-34 10t-44.5 7t-53.5 5.5t-66 4.5z" />
    <glyph glyph-name="percent" unicode="%" horiz-adv-x="2048" 
d="M1202 1501h146l-498 -1519h-148zM834 1145v-309q0 -139 -35 -213.5t-118.5 -107t-238.5 -32.5q-118 0 -189.5 14.5t-119 55.5t-65 107.5t-17.5 175.5v309q0 105 17.5 170.5t64 107t119.5 58t190 16.5q94 0 157.5 -9.5t111 -32t73.5 -64t38 -100.5t12 -146zM633 836v309
q0 60 -5 91t-25.5 54.5t-57.5 31t-103 7.5q-46 0 -74.5 -2t-51 -10.5t-34 -19.5t-19 -33.5t-9.5 -48.5t-2 -70v-309q0 -60 5 -91t25 -55t57 -31.5t103 -7.5q68 0 103 5.5t56.5 27.5t26.5 54.5t5 97.5zM2001 645v-309q0 -105 -17.5 -170.5t-64 -107t-119.5 -58t-190 -16.5
q-118 0 -189.5 14.5t-119 55t-65 107t-17.5 175.5v309q0 105 17.5 170.5t64 107t119.5 58t190 16.5q118 0 189.5 -14.5t119 -55t65 -107t17.5 -175.5zM1800 336v309q0 60 -5 91t-25 54.5t-57 31t-103 7.5q-68 0 -103 -5.5t-56.5 -27.5t-26.5 -54t-5 -97v-309q0 -60 5 -91
t25.5 -54.5t57.5 -31t103 -7.5q46 0 74.5 2t51 10.5t34 19.5t19 33.5t9.5 48.5t2 70z" />
    <glyph glyph-name="ampersand" unicode="&#x26;" horiz-adv-x="1576" 
d="M1571 135l-141 -153l-193 165q-38 -66 -90 -99.5t-149 -48.5t-275 -15q-126 0 -215 8.5t-157 31.5t-109 56t-66.5 88.5t-35 122.5t-9.5 164q0 206 55 291t207 110q-85 70 -109 126t-24 179q0 126 44.5 198t147.5 105t285 33q144 0 232 -17.5t146.5 -65.5t81 -126.5
t22.5 -206.5v-43h-232v29q0 54 -2.5 86t-12 60.5t-25 42.5t-45.5 24t-67.5 13t-97.5 3q-101 0 -149 -12t-66 -42t-18 -93q0 -69 12.5 -94.5t69.5 -75.5l526 -449v181h234v-152q0 -81 -19 -211zM1057 295l-525 434q-89 -8 -121 -61.5t-32 -198.5q0 -61 4 -99.5t17.5 -72.5
t35 -51.5t62 -31t93 -17.5t132.5 -4q167 0 237.5 23.5t96.5 78.5z" />
    <glyph glyph-name="quotesingle" unicode="'" horiz-adv-x="428" 
d="M90 1481h246v-246l-62 -322h-127l-57 322v246z" />
    <glyph glyph-name="parenleft" unicode="(" 
d="M131 399v678q0 86 21 157t65.5 127.5t122 88t182.5 31.5h60v-189h-21q-104 0 -145 -54t-41 -194v-604q0 -141 41.5 -196.5t144.5 -55.5h21v-188h-60q-391 0 -391 399z" />
    <glyph glyph-name="parenright" unicode=")" 
d="M547 1081v-678q0 -86 -21 -156.5t-65.5 -127t-122 -88t-182.5 -31.5h-60v188h21q104 0 145 54t41 194v604q0 141 -41.5 196.5t-144.5 55.5h-21v189h60q391 0 391 -400z" />
    <glyph glyph-name="asterisk" unicode="*" horiz-adv-x="1024" 
d="M639 1157l293 8v-149l-293 8v133zM518 948l111 64l157 -254l-124 -72zM90 1165l293 -8v-133l-293 -8v149zM393 1012l111 -64l-144 -262l-124 72zM504 1233l-111 -64l-157 254l124 72zM629 1169l-111 64l144 262l124 -72z" />
    <glyph glyph-name="plus" unicode="+" horiz-adv-x="1366" 
d="M125 649h455v426h204v-426h457v-196h-457v-426h-204v426h-455v196z" />
    <glyph glyph-name="comma" unicode="," 
d="M195 -233v114q57 5 75.5 22t18.5 72v25h-92v281h241v-232q0 -157 -51.5 -219.5t-191.5 -62.5z" />
    <glyph glyph-name="hyphen" unicode="-" 
d="M57 442v215h570v-215h-570z" />
    <glyph glyph-name="period" unicode="." 
d="M197 0v281h241v-281h-241z" />
    <glyph glyph-name="slash" unicode="/" 
d="M37 -23l434 1520h170l-434 -1520h-170z" />
    <glyph glyph-name="zero" unicode="0" horiz-adv-x="1366" 
d="M995 565v350q0 82 -3 132t-15.5 94t-31.5 65.5t-56.5 38t-85 21t-121.5 4.5q-56 0 -96 -2.5t-74 -10.5t-55.5 -18.5t-38.5 -32t-26 -44.5t-14.5 -63t-7 -80.5t-1.5 -103.5v-350q0 -62 1.5 -102.5t7.5 -80t15 -63t26 -45t38.5 -32t55.5 -18.5t73.5 -10.5t95.5 -2.5
q76 0 123.5 4.5t85 20.5t56 37t30.5 65.5t15 93.5t3 133zM1262 946v-407q0 -123 -17 -211t-56.5 -156t-107 -108t-165 -60t-234.5 -20q-117 0 -202.5 11.5t-151.5 39t-108.5 68.5t-69 104.5t-37.5 142t-11 185.5v407q0 123 17 211t56.5 156t107 108t165 60t234.5 20
q117 0 202.5 -11.5t151.5 -39t108.5 -68.5t69 -104.5t37.5 -142t11 -185.5z" />
    <glyph glyph-name="one" unicode="1" horiz-adv-x="1366" 
d="M965 0h-275v1221l-352 -330l-158 182l441 408h344v-1481z" />
    <glyph glyph-name="two" unicode="2" horiz-adv-x="1366" 
d="M113 0v326q0 125 36.5 199.5t113 119t222.5 84.5l273 76q59 15 91 24.5t61 25t40 27.5t20 38.5t10 52t1 74.5q0 73 -8.5 112.5t-39.5 69t-87.5 39.5t-155.5 10q-75 0 -123 -2.5t-85.5 -12.5t-57 -23t-31.5 -40t-15 -57t-3 -80v-72h-254q-2 33 -2 84q0 84 10.5 145t37 110
t68 79.5t106.5 51t149 28.5t200 8q164 0 270 -22t170 -74t89.5 -130t25.5 -198q0 -82 -4 -136t-18 -102t-35 -78t-60 -57.5t-88.5 -47t-124.5 -40.5l-280 -80q-55 -16 -82 -24t-60.5 -21t-46.5 -19t-29.5 -21t-20.5 -24.5t-9.5 -31t-5.5 -39.5v-51v-74h860v-227h-1128z" />
    <glyph glyph-name="three" unicode="3" horiz-adv-x="1366" 
d="M113 485h254v-92q0 -62 10.5 -96.5t45 -57.5t91.5 -30.5t158 -7.5q76 0 123 2.5t85 11.5t57 21.5t31.5 38t15.5 55t3 78.5q0 77 -8.5 120.5t-37 72.5t-75.5 38.5t-129 9.5q-9 0 -57.5 -1t-97.5 -1v213h153q141 0 184.5 39t43.5 162q0 75 -8.5 113.5t-41.5 65t-86.5 33.5
t-154.5 7q-68 0 -110 -2t-76 -10.5t-51 -20t-28.5 -35t-14.5 -50.5t-3 -72v-78h-254q-2 33 -2 73q0 101 18.5 171t55.5 118t103 74.5t151.5 37.5t210.5 11q169 0 276 -21t170.5 -72.5t88 -127t24.5 -195.5q0 -151 -48.5 -215.5t-185.5 -101.5q152 -24 205 -102.5t53 -262.5
q0 -91 -14.5 -154t-51.5 -115.5t-103 -83t-167 -46.5t-245 -16q-171 0 -279 19.5t-172 67.5t-88 117.5t-24 180.5q0 61 2 116z" />
    <glyph glyph-name="four" unicode="4" horiz-adv-x="1366" 
d="M1106 317v-317h-270v317h-779v306l639 858h410v-944h176v-220h-176zM283 537h553v739z" />
    <glyph glyph-name="five" unicode="5" horiz-adv-x="1366" 
d="M133 432h250v-45q0 -79 21 -117t79.5 -54.5t178.5 -16.5q59 0 96 1.5t73 7t56 13.5t39 26t27 38t14.5 55t8 72.5t1.5 95.5q0 70 -3 112t-14 80t-29 56.5t-52 32.5t-78 18t-113 4q-54 0 -88 -1t-68.5 -5t-54 -11.5t-36.5 -20t-25.5 -31t-12.5 -44.5h-245v783h1013v-209
h-765v-365q45 69 113.5 91t219.5 22q152 0 247.5 -24t155 -85.5t82.5 -156t23 -246.5q0 -108 -10.5 -184.5t-37 -137t-67.5 -97.5t-107 -61.5t-149 -34t-200 -9.5q-163 0 -269 22t-167 71t-85 117t-24 171q0 40 2 67z" />
    <glyph glyph-name="six" unicode="6" horiz-adv-x="1366" 
d="M1214 1100h-251v30q0 48 -8 74t-36.5 45.5t-81 26t-145.5 6.5q-72 0 -116.5 -3t-82 -14t-56 -26.5t-31 -47.5t-16 -70t-3.5 -99v-250q52 83 113.5 107t212.5 24q110 0 175 -4t134.5 -19t106 -43.5t68.5 -78.5t44 -124t12 -179q0 -111 -15.5 -186t-51.5 -131.5t-101.5 -88
t-160 -46.5t-232.5 -15q-119 0 -203.5 9t-150.5 33t-106.5 59.5t-66.5 94.5t-36 132.5t-10 177.5v528q0 94 11.5 163.5t39.5 123.5t70.5 89t108 57.5t148 32t195.5 9.5q210 0 322.5 -33.5t157.5 -107t45 -209.5q0 -23 -3 -47zM692 694q-59 0 -96 -1t-72.5 -6t-54.5 -10
t-37 -19.5t-25 -29t-12.5 -43t-6.5 -56.5t-1 -74q0 -61 2.5 -95t14.5 -65t29 -44.5t54.5 -24t83 -13t121.5 -2.5q58 0 93.5 1t70 6t52.5 10t34.5 21t23 29.5t11.5 44t5.5 57t0.5 75.5q0 48 -0.5 74t-5.5 56t-11.5 43.5t-23 28.5t-34.5 20t-52.5 10.5t-70 6t-93.5 0.5z" />
    <glyph glyph-name="seven" unicode="7" horiz-adv-x="1366" 
d="M610 0h-307l631 1239h-805v242h1102v-238z" />
    <glyph glyph-name="eight" unicode="8" horiz-adv-x="1366" 
d="M678 1497q133 0 226 -14.5t155.5 -43t98.5 -78t50.5 -111t14.5 -150.5q0 -112 -23.5 -178.5t-70.5 -99.5t-130 -50q147 -32 199.5 -110t52.5 -259q0 -121 -27 -199t-95 -128.5t-175.5 -71t-275.5 -20.5q-225 0 -349.5 40.5t-174.5 125.5t-50 237q0 133 24.5 207.5
t76.5 112t151 59.5q-122 20 -172.5 91t-50.5 224q0 118 23.5 193.5t85.5 127.5t166.5 73.5t269.5 21.5zM678 862q68 0 109 2t76 11t51.5 21t28.5 37t15 55t3 79q0 59 -7 95.5t-23 63.5t-50 40t-80.5 18.5t-122.5 5.5q-78 0 -124.5 -5.5t-80.5 -18t-49.5 -39.5t-22 -63
t-6.5 -97q0 -56 6.5 -89t22 -58t49.5 -36.5t80.5 -16.5t124.5 -5zM678 195q72 0 116.5 2.5t82 13t56 25.5t32 44.5t17 65.5t3.5 94q0 60 -7 95t-23.5 62.5t-53 40t-88 18.5t-135.5 6q-71 0 -117 -3t-82.5 -13t-55.5 -24t-32 -41t-16.5 -59t-3.5 -82q0 -56 4 -92t17.5 -65
t33.5 -45t56.5 -26.5t81.5 -13.5t114 -3z" />
    <glyph glyph-name="nine" unicode="9" horiz-adv-x="1366" 
d="M129 399h252v-30q0 -43 5 -67.5t21 -46t49 -31.5t84 -15.5t132 -5.5q72 0 116.5 3t82 14t56 26.5t31 47.5t16 70t3.5 99v250q-52 -83 -113.5 -107t-212.5 -24q-72 0 -120.5 1.5t-102.5 6.5t-88.5 14.5t-71.5 25.5t-59 39.5t-43 56.5t-31.5 77t-17 100t-6.5 127
q0 139 23.5 224t88 142t171 79t278.5 22q118 0 201.5 -9t149.5 -33t107 -60t67.5 -94t37 -132t10.5 -178v-528q0 -112 -16.5 -188.5t-54.5 -134t-105 -89.5t-163 -47.5t-234 -15.5q-220 0 -336.5 34.5t-162.5 110.5t-46 219q0 31 2 47zM672 791q59 0 96 1t72.5 6t54.5 10
t37 19.5t25 29t12.5 43t6.5 56.5t1 74q0 61 -2.5 95t-14.5 65t-29 44.5t-54.5 24t-83 13t-121.5 2.5q-58 0 -93.5 -1t-70 -6t-52.5 -10t-34.5 -21t-23 -29.5t-11.5 -44t-5.5 -57t-0.5 -75.5q0 -48 0.5 -74t5.5 -56t11.5 -43.5t23 -28.5t34.5 -20t52.5 -10.5t70 -6t93.5 -0.5
z" />
    <glyph glyph-name="colon" unicode=":" 
d="M221 762v280h242v-280h-242zM221 0v281h242v-281h-242z" />
    <glyph glyph-name="semicolon" unicode=";" 
d="M221 762v280h242v-280h-242zM219 -233v114q57 5 75.5 22t18.5 72v25h-92v281h242v-232q0 -157 -52 -219.5t-192 -62.5z" />
    <glyph glyph-name="less" unicode="&#x3c;" horiz-adv-x="1366" 
d="M121 451v188l1096 451v-213l-832 -328v-4l832 -328v-215z" />
    <glyph glyph-name="equal" unicode="=" horiz-adv-x="1366" 
d="M135 874h1096v-188h-1096v188zM135 422h1096v-191h-1096v191z" />
    <glyph glyph-name="greater" unicode="&#x3e;" horiz-adv-x="1366" 
d="M1245 641v-188l-1095 -451v213l831 328v4l-831 327v216z" />
    <glyph glyph-name="question" unicode="?" horiz-adv-x="1138" 
d="M317 1049h-235q-4 46 -4 67q0 143 41.5 224t139.5 119t271 38q86 0 148 -4.5t118.5 -15.5t94 -31t68 -50.5t47 -75t25.5 -102.5t9 -135q0 -152 -34 -226.5t-132 -127.5l-137 -72q-58 -31 -79 -47t-30.5 -41t-9.5 -77v-37h-243v67q0 119 28 176.5t121 102.5l117 59
q40 19 62 31t41.5 29t27.5 29t13.5 38t6.5 49.5t1 69.5q0 63 -7 96.5t-33 59t-73 33.5t-131 8q-140 0 -186 -37.5t-46 -147.5v-69zM616 258v-258h-245v258h245z" />
    <glyph glyph-name="at" unicode="@" horiz-adv-x="2019" 
d="M1042 872q189 0 236 -147l25 121h196l-113 -549q-10 -49 -10 -72q0 -75 82 -75q106 0 178 122t72 340q0 492 -602 492q-380 0 -565 -199.5t-185 -574.5q0 -570 695 -570q255 0 522 62v-174q-288 -60 -543 -60q-447 0 -671 191t-224 551q0 221 58 393.5t176 296.5
t306.5 189t440.5 65q380 0 582.5 -174t202.5 -490q0 -280 -132.5 -445t-336.5 -165q-90 0 -142.5 38.5t-66.5 108.5q-62 -80 -123.5 -113.5t-171.5 -33.5q-172 0 -250 63.5t-78 198.5q0 110 18 211q21 121 52.5 197.5t83.5 121.5t119.5 62.5t168.5 17.5zM1051 707
q-114 0 -162.5 -50.5t-73.5 -193.5q-16 -88 -16 -160q0 -71 38.5 -101t141.5 -30q111 0 160.5 43.5t62.5 126.5l31 166q6 18 6 57q0 66 -40 104t-148 38z" />
    <glyph glyph-name="A" unicode="A" horiz-adv-x="1476" 
d="M522 1481h439l485 -1481h-291l-106 326h-619l-106 -326h-291zM492 535h495l-225 737h-41z" />
    <glyph glyph-name="B" unicode="B" horiz-adv-x="1472" 
d="M164 1481h678q144 0 237.5 -21.5t147.5 -71.5t75 -120t21 -178q0 -149 -54.5 -220.5t-181.5 -101.5q142 -23 205.5 -102t63.5 -238q0 -87 -8.5 -147t-31.5 -110.5t-60.5 -81t-98.5 -51.5t-143 -29.5t-197 -8.5h-653v1481zM436 864h438q53 0 83.5 7t54.5 29.5t33.5 64.5
t9.5 112q0 110 -52 145t-198 35h-369v-393zM436 227h412q55 0 88.5 2.5t62 11.5t42.5 22.5t24 40.5t13 60t3 85q0 117 -48.5 161.5t-188.5 44.5h-408v-428z" />
    <glyph glyph-name="C" unicode="C" horiz-adv-x="1458" 
d="M1329 973h-268v51q0 62 -7.5 99.5t-26.5 66t-58.5 42t-94 19.5t-143.5 6q-76 0 -123.5 -4t-85.5 -18.5t-57.5 -35t-32.5 -61.5t-16.5 -88.5t-3.5 -125.5v-349q0 -79 4.5 -130.5t18.5 -93.5t35.5 -64.5t60 -38t86 -20.5t120.5 -5q77 0 125.5 3t88.5 13t60.5 25t35 45
t18.5 66t4 94v68h272v-64q0 -101 -12 -173.5t-41.5 -128.5t-73 -91t-113.5 -57t-156.5 -30.5t-207.5 -8.5q-178 0 -292 27.5t-185 96t-99 173.5t-28 270v395q0 153 27 253t95 169t183.5 99t294.5 30q127 0 217.5 -9.5t158 -33.5t109 -58.5t67 -91t35 -124t9.5 -164.5v-43z
" />
    <glyph glyph-name="D" unicode="D" horiz-adv-x="1591" 
d="M164 0v1481h717q116 0 199.5 -13.5t150 -47t108.5 -85t69.5 -134t38.5 -187.5t11 -250q0 -162 -9.5 -271.5t-36.5 -199.5t-69.5 -142.5t-115.5 -88.5t-168 -49t-232 -13h-663zM442 1243v-1003h424q56 0 92 2.5t71.5 12t56 24t39.5 43.5t28 64.5t16 93t9 123.5t2 161
q0 111 -4 181.5t-19 128t-36 87.5t-62 50t-91 26t-128 6h-398z" />
    <glyph glyph-name="E" unicode="E" horiz-adv-x="1368" 
d="M164 0v1481h1087v-232h-809v-377h781v-219h-781v-417h813v-236h-1091z" />
    <glyph glyph-name="F" unicode="F" horiz-adv-x="1230" 
d="M164 0v1481h973v-240h-695v-403h668v-232h-668v-606h-278z" />
    <glyph glyph-name="G" unicode="G" horiz-adv-x="1576" 
d="M1180 563h-332v209h598q2 -47 2 -117v-182q0 -101 -11.5 -173t-40 -128t-71.5 -91t-112 -57.5t-155 -31t-206 -8.5h-115q-178 0 -292 27.5t-185 96t-99 173.5t-28 270v395q0 153 27 253t95 169t183.5 99t294.5 30h115q124 0 213.5 -9.5t156.5 -34t108.5 -59.5t67 -91.5
t35 -124t9.5 -164.5h-269q0 56 -4 92t-18 66t-34.5 45.5t-59 26.5t-86.5 14.5t-121 3.5h-115q-75 0 -123 -4.5t-86 -19.5t-57.5 -36t-32.5 -62.5t-16.5 -89.5t-3.5 -126v-349q0 -79 4.5 -131t18.5 -94.5t35.5 -66t60 -39t86.5 -20.5t120 -5h115q75 0 124 3.5t88 14.5t60 27
t34.5 46t17.5 66t4 93v94z" />
    <glyph glyph-name="H" unicode="H" horiz-adv-x="1587" 
d="M1145 881v600h278v-1481h-278v639h-703v-639h-278v1481h278v-600h703z" />
    <glyph glyph-name="I" unicode="I" horiz-adv-x="614" 
d="M168 1481h278v-1481h-278v1481z" />
    <glyph glyph-name="J" unicode="J" horiz-adv-x="1255" 
d="M82 584h260v-111q0 -58 2 -91t11 -66t24.5 -48.5t44.5 -28t69 -16.5t101 -4q75 0 117.5 8t70.5 33t37.5 66.5t9.5 113.5v1041h279v-1018q0 -143 -26.5 -234.5t-90.5 -146t-157.5 -75.5t-239.5 -21q-154 0 -251 21.5t-157.5 76t-84 138t-23.5 216.5q0 99 4 146z" />
    <glyph glyph-name="K" unicode="K" horiz-adv-x="1409" 
d="M164 0v1481h278v-600h95l493 600h336l-600 -707l668 -774h-353l-549 649h-90v-649h-278z" />
    <glyph glyph-name="L" unicode="L" horiz-adv-x="1247" 
d="M164 0v1481h278v-1235h768v-246h-1046z" />
    <glyph glyph-name="M" unicode="M" horiz-adv-x="1994" 
d="M160 0v1481h434l407 -1190l408 1190h426v-1481h-270v561q0 315 12 701q-55 -175 -170 -510l-264 -752h-291l-260 748q-105 297 -172 516q10 -465 10 -746v-518h-270z" />
    <glyph glyph-name="N" unicode="N" horiz-adv-x="1652" 
d="M160 0v1481h418l272 -518q43 -81 112 -211.5t102 -193t79.5 -153t87.5 -174.5q0 81 -4 344t-4 396v510h270v-1481h-412l-260 475q-249 457 -399 770q0 -96 4 -363.5t4 -365.5v-516h-270z" />
    <glyph glyph-name="O" unicode="O" horiz-adv-x="1572" 
d="M786 1260q-87 0 -142.5 -4.5t-100.5 -20t-68 -38t-38.5 -66t-20 -95.5t-4.5 -135v-321q0 -82 4.5 -133.5t20 -95.5t39 -66.5t68 -38t100.5 -20.5t142 -5q87 0 142.5 4.5t101 20t68.5 38t38.5 66t20 95.5t4.5 135v321q0 81 -4.5 133t-20 95.5t-39.5 66t-68.5 38.5
t-100.5 21t-142 5zM786 1497q193 0 316 -28t200 -96.5t107.5 -174t30.5 -270.5v-375q0 -160 -31.5 -265t-108 -175t-200.5 -99.5t-314 -29.5q-154 0 -262.5 18.5t-185.5 58t-121 108t-64 160.5t-20 224v375q0 160 31 265t107.5 175t200.5 99.5t314 29.5z" />
    <glyph glyph-name="P" unicode="P" horiz-adv-x="1423" 
d="M164 0v1481h672q144 0 236.5 -28.5t145.5 -93.5t73 -153t20 -223t-23.5 -225t-81.5 -151t-153.5 -88t-241.5 -27q-29 0 -160 1t-209 1v-494h-278zM440 727h389q68 0 107 9.5t63.5 39t32.5 77t8 130.5q0 81 -7 127.5t-30 79t-63 44t-109 11.5h-391v-518z" />
    <glyph glyph-name="Q" unicode="Q" horiz-adv-x="1572" 
d="M786 1497q193 0 316 -28t200 -96.5t107.5 -174t30.5 -270.5v-375q0 -243 -76 -365l96 -94l-125 -133l-106 100q-151 -77 -443 -77q-154 0 -262.5 18.5t-185.5 58t-121 108t-64 160.5t-20 224v375q0 160 31 265t107.5 175t200.5 99.5t314 29.5zM786 1260
q-87 0 -142.5 -4.5t-100.5 -20t-68 -38t-38.5 -66t-20 -95.5t-4.5 -135v-321q0 -82 4.5 -134t20 -96t39 -67t68 -39.5t100.5 -21.5t142 -5q150 0 244 23l-221 209l123 135l221 -209q8 65 8 205v321q0 81 -4.5 133t-20 95.5t-39.5 66t-68.5 38.5t-100.5 21t-142 5z" />
    <glyph glyph-name="R" unicode="R" horiz-adv-x="1482" 
d="M164 0v1481h674q148 0 241.5 -22t153 -77t83 -141.5t23.5 -222.5q0 -184 -57 -266t-190 -107q143 -31 192 -109t49 -251v-285h-276v319q0 117 -45 157t-176 40h-398v-516h-274zM438 745h357q57 0 94.5 3.5t70 13.5t51 27.5t31.5 47.5t18 70t5 99q0 63 -5.5 101.5
t-19.5 68.5t-43 44.5t-71.5 21.5t-110.5 7h-377v-504z" />
    <glyph glyph-name="S" unicode="S" horiz-adv-x="1437" 
d="M111 469h264v-49q0 -53 7 -85t26.5 -58t59.5 -38.5t99.5 -19t153.5 -6.5q80 0 130.5 2.5t90 12t59.5 21.5t33 37t16 53t3 75q0 49 -2.5 78.5t-13 54.5t-24 37t-44.5 22t-65.5 14.5t-94.5 8.5l-221 14q-92 6 -155 16t-118.5 30t-89 50t-58 77.5t-34.5 111t-10 151.5
q0 121 26.5 197.5t95 127.5t182 72t292.5 21q117 0 198.5 -6.5t148.5 -23.5t107.5 -44t68 -71.5t38 -102t10.5 -139.5q0 -30 -2 -55h-252v37q0 58 -9.5 89.5t-43.5 54.5t-94.5 30.5t-167.5 7.5q-76 0 -126 -3t-88 -13t-58 -22.5t-32.5 -38t-16 -54t-3.5 -74.5q0 -42 4 -70
t16.5 -49.5t28 -34t47.5 -21.5t66 -13.5t90 -8.5l318 -22q205 -17 283.5 -110t78.5 -302q0 -92 -10.5 -156.5t-37.5 -117t-69.5 -84.5t-112.5 -53.5t-160.5 -30t-217.5 -8.5q-125 0 -213.5 7t-159.5 25.5t-114.5 47.5t-72.5 76.5t-40.5 109t-11.5 147.5q0 41 2 68z" />
    <glyph glyph-name="T" unicode="T" horiz-adv-x="1187" 
d="M733 0h-278v1239h-428v242h1134v-242h-428v-1239z" />
    <glyph glyph-name="U" unicode="U" horiz-adv-x="1560" 
d="M147 1481h279v-1032q0 -93 28 -139.5t102.5 -67.5t223.5 -21q94 0 154 7t101.5 21.5t62 44.5t29 68.5t8.5 100.5v1018h278v-989q0 -112 -17.5 -191.5t-59.5 -142t-115 -99.5t-180.5 -56t-258.5 -19q-187 0 -308 25t-194.5 84t-103 148.5t-29.5 227.5v1012z" />
    <glyph glyph-name="V" unicode="V" horiz-adv-x="1421" 
d="M1407 1481l-485 -1481h-422l-484 1481h291l404 -1266l411 1266h285z" />
    <glyph glyph-name="W" unicode="W" horiz-adv-x="2050" 
d="M41 1481h278l248 -1233l293 1233h330l283 -1235l266 1235h272l-328 -1481h-401l-102 455q-21 94 -76 354.5t-82 374.5q-120 -542 -164 -725l-108 -459h-390z" />
    <glyph glyph-name="X" unicode="X" horiz-adv-x="1320" 
d="M23 1481h319l322 -559l321 559h311l-436 -715l477 -766h-323l-365 610l-362 -610h-314l478 770z" />
    <glyph glyph-name="Y" unicode="Y" horiz-adv-x="1316" 
d="M518 578l-555 903h316l380 -645l385 645h310l-557 -908v-573h-279v578z" />
    <glyph glyph-name="Z" unicode="Z" horiz-adv-x="1310" 
d="M53 0v244l824 1003h-785v234h1131v-242l-817 -999h831v-240h-1184z" />
    <glyph glyph-name="bracketleft" unicode="[" 
d="M154 0v1481h434v-189h-189v-1104h189v-188h-434z" />
    <glyph glyph-name="backslash" unicode="\" 
d="M510 -18l-516 1515h178l516 -1515h-178z" />
    <glyph glyph-name="bracketright" unicode="]" 
d="M528 1481v-1481h-434v188h189v1104h-189v189h434z" />
    <glyph glyph-name="asciicircum" unicode="^" horiz-adv-x="1187" 
d="M315 682h-223l404 799h200l400 -799h-226l-276 565z" />
    <glyph glyph-name="underscore" unicode="_" horiz-adv-x="1024" 
d="M1024 -154v-102h-1024v102h1024z" />
    <glyph glyph-name="grave" unicode="`" 
d="M313 1481l189 -301h-187l-295 301h293z" />
    <glyph glyph-name="a" unicode="a" horiz-adv-x="1144" 
d="M793 0v117q-62 -74 -131.5 -103.5t-196.5 -29.5q-206 0 -292.5 72t-86.5 257q0 189 81 262.5t294 73.5q147 0 213 -24t110 -93v168q0 63 -8 99t-32.5 60t-65.5 32t-111 8q-123 0 -161.5 -23.5t-38.5 -93.5h-234q-2 23 -2 43q0 64 18.5 106t67.5 72t133.5 43t216.5 13
q137 0 226 -19t139.5 -61t70 -100t19.5 -146v-733h-229zM557 492q-63 0 -102 -5t-66 -15t-39.5 -31.5t-17 -48.5t-4.5 -73q0 -68 18 -101.5t66 -47.5t145 -14q74 0 119 8.5t68.5 30.5t31.5 49.5t8 74.5q0 52 -7 81t-30.5 52t-68.5 31.5t-121 8.5z" />
    <glyph glyph-name="b" unicode="b" horiz-adv-x="1144" 
d="M129 0v1481h244v-574q49 85 118 118.5t179 33.5t180.5 -25.5t114 -87t60.5 -155.5t17 -240q0 -119 -8 -204.5t-28 -150t-48.5 -104.5t-75 -64.5t-102.5 -34t-135 -9.5q-108 0 -170.5 38t-112.5 132v-154h-233zM584 877q-46 0 -77.5 -6t-56 -22.5t-39 -40t-23.5 -64.5
t-12 -91t-3 -123t2.5 -121t10.5 -92t21.5 -69.5t36.5 -45t55.5 -27t78.5 -7.5q53 0 83.5 3t59 16.5t42 35t24 64t13.5 98.5t3 143q0 80 -3 132t-12.5 93.5t-23 63.5t-40 37t-58.5 19t-82 4z" />
    <glyph glyph-name="c" unicode="c" horiz-adv-x="1124" 
d="M1024 684h-229v21q0 103 -42.5 136t-177.5 33q-58 0 -89.5 -2.5t-61.5 -15.5t-42.5 -32t-23 -61.5t-12.5 -94t-2 -138.5q0 -67 1 -111.5t6.5 -85t11.5 -64.5t20.5 -44t29.5 -29.5t42.5 -16t55 -8t71.5 -1.5q60 0 98 6.5t63 18.5t36.5 38.5t15.5 57.5t4 84v20h231
q2 -16 2 -37q0 -143 -41.5 -222.5t-139.5 -115.5t-276 -36q-103 0 -173.5 8.5t-126 33.5t-87.5 62t-53 101.5t-28 144t-7 196.5q0 112 8.5 190t30.5 139.5t56 98t90.5 60.5t127.5 32.5t173 8.5q110 0 186.5 -13t126.5 -37.5t78 -68t38.5 -95.5t10.5 -128q0 -19 -2 -33z" />
    <glyph glyph-name="d" unicode="d" horiz-adv-x="1146" 
d="M774 915v566h244v-1481h-234v156q-48 -101 -109.5 -136.5t-174.5 -35.5q-84 0 -141.5 9t-104.5 34t-74 64.5t-46 107t-25.5 153.5t-6.5 211q0 188 38 295.5t118 154t219 46.5q119 0 187 -32t110 -112zM547 877q-43 0 -71.5 -4.5t-53.5 -18t-38.5 -36t-24 -62.5t-14 -93
t-3.5 -131q0 -88 3 -144.5t13.5 -99.5t23.5 -65t40.5 -35.5t56.5 -16.5t80 -3q55 0 92 12t62 36t38 69.5t18 101.5t5 143q0 143 -20 215.5t-67 102t-140 29.5z" />
    <glyph glyph-name="e" unicode="e" horiz-adv-x="1142" 
d="M813 305h229v-31q0 -105 -40 -166.5t-141.5 -92.5t-280.5 -31q-119 0 -197.5 15t-136 49.5t-88.5 98t-44.5 151t-13.5 218.5q0 112 8.5 192t31 142.5t56.5 101t89.5 63.5t125.5 34.5t169 9.5q100 0 172 -9.5t125 -32.5t85.5 -56t52.5 -86t27 -114.5t7 -150.5
q0 -84 -5 -137h-706v-80q0 -131 52.5 -183t191.5 -52q96 0 145 14t67.5 44t18.5 89zM338 627h477v41q0 58 -5 93.5t-18.5 63.5t-41 41.5t-67.5 20t-103 6.5q-77 0 -121.5 -8.5t-73 -35t-38 -68.5t-9.5 -115v-39z" />
    <glyph glyph-name="f" unicode="f" horiz-adv-x="716" 
d="M170 858h-139v184h139v134q0 172 77 246.5t261 74.5q98 0 197 -12v-178q-107 8 -156 8q-76 0 -105.5 -31.5t-29.5 -118.5v-123h291v-184h-291v-858h-244v858z" />
    <glyph glyph-name="g" unicode="g" horiz-adv-x="1144" 
d="M774 16v146q-45 -83 -106 -117.5t-168 -34.5q-81 0 -138 9.5t-103 34t-74.5 63t-48 101t-27 143.5t-7.5 194q0 190 38 299.5t118.5 157t218.5 47.5q124 0 193.5 -32.5t111.5 -113.5v129h236v-999q0 -128 -19 -209.5t-69.5 -139t-138 -82t-224.5 -24.5q-222 0 -323 57.5
t-101 202.5q0 32 2 48h228q0 -70 39.5 -98.5t154.5 -28.5q46 0 77 4t55.5 15.5t38 27.5t22 46t11.5 65t3 89zM547 877q-43 0 -71 -4.5t-53 -17.5t-39 -35.5t-24 -60.5t-14 -89t-4 -125q0 -82 3.5 -137t14.5 -96t25 -64.5t40.5 -37.5t56.5 -18t77 -4q68 0 109.5 17.5t65.5 62
t32 107.5t8 168q0 137 -20 207t-67 98.5t-140 28.5z" />
    <glyph glyph-name="h" unicode="h" horiz-adv-x="1157" 
d="M129 0v1481h244v-584q58 95 128 128.5t208 33.5q178 0 251.5 -81.5t73.5 -248.5v-729h-243v655q0 55 -4.5 89.5t-16.5 61.5t-35.5 41t-57.5 20.5t-87 6.5q-124 0 -170.5 -59t-46.5 -184v-631h-244z" />
    <glyph glyph-name="i" unicode="i" horiz-adv-x="505" 
d="M375 1272h-244v209h244v-209zM131 0v1042h244v-1042h-244z" />
    <glyph glyph-name="j" unicode="j" horiz-adv-x="505" 
d="M375 1272h-244v209h244v-209zM12 -408v179h27q53 0 72.5 25.5t19.5 92.5v1153h244v-1153q0 -156 -66 -228.5t-219 -72.5q-57 0 -78 4z" />
    <glyph glyph-name="k" unicode="k" horiz-adv-x="1026" 
d="M129 0v1481h244v-844h41l284 405h283l-363 -487l426 -555h-299l-333 465h-39v-465h-244z" />
    <glyph glyph-name="l" unicode="l" horiz-adv-x="505" 
d="M131 0v1481h244v-1481h-244z" />
    <glyph glyph-name="m" unicode="m" horiz-adv-x="1728" 
d="M127 0v1042h238v-145q58 95 125 128.5t180 33.5q118 0 181.5 -43.5t96.5 -120.5q62 96 132.5 130t207.5 34q168 0 243 -83t75 -247v-729h-244v659q0 131 -34.5 175.5t-143.5 44.5q-112 0 -153.5 -58t-43.5 -184v-637h-244v659q0 131 -34.5 175.5t-143.5 44.5
q-116 0 -155 -63t-39 -204v-612h-244z" />
    <glyph glyph-name="n" unicode="n" horiz-adv-x="1155" 
d="M127 0v1042h238v-145q59 98 131.5 130t210.5 32q178 0 251.5 -81.5t73.5 -248.5v-729h-244v655q0 55 -4.5 89.5t-16 61.5t-35 41t-57.5 20.5t-87 6.5q-68 0 -111.5 -17t-66.5 -53.5t-31 -82t-8 -115.5v-606h-244z" />
    <glyph glyph-name="o" unicode="o" horiz-adv-x="1138" 
d="M569 -16q-77 0 -132.5 4t-105.5 15.5t-82.5 29t-60 47.5t-43.5 68t-26.5 94t-14.5 121.5t-4 154.5q0 118 7.5 197.5t28.5 143t52.5 100t86.5 60t123.5 32t170.5 8.5q77 0 132.5 -4t105.5 -15.5t82.5 -29t60 -48t43.5 -68.5t26.5 -94t14.5 -121.5t4 -154.5
q0 -118 -7.5 -197.5t-28.5 -142.5t-52.5 -99.5t-86.5 -60.5t-123.5 -32t-170.5 -8zM569 877q-45 0 -71 -1t-53.5 -7.5t-41 -15t-27.5 -29.5t-19.5 -43.5t-10 -65t-5.5 -86.5t-1 -115q0 -66 1 -108.5t5.5 -82t10.5 -61.5t19.5 -42t27.5 -28.5t41 -15t53.5 -7.5t70.5 -1
q60 0 91 2t61.5 16t42 33t22 64.5t12 98t1.5 146.5q0 65 -1 107.5t-6 82.5t-10.5 62.5t-19.5 42.5t-28.5 29t-41 15.5t-53.5 8t-70 1.5z" />
    <glyph glyph-name="p" unicode="p" horiz-adv-x="1142" 
d="M127 -401v1443h235v-141q49 90 120 124t186 34q110 0 180.5 -25.5t114 -87t60.5 -155.5t17 -240q0 -119 -8 -204.5t-28 -150t-48.5 -104.5t-75 -64.5t-102.5 -34t-135 -9.5q-106 0 -166 35.5t-106 117.5v-538h-244zM582 877q-66 0 -105 -14.5t-64 -55t-33.5 -105
t-8.5 -172.5q0 -88 4 -142t15.5 -101t34.5 -70.5t59 -36t91 -12.5q53 0 83.5 3t59 16.5t42 35t24.5 64t14 98.5t3 143q0 80 -3 132t-12.5 93.5t-23 63.5t-40 37t-58.5 19t-82 4z" />
    <glyph glyph-name="q" unicode="q" horiz-adv-x="1144" 
d="M782 913v129h236v-1443h-244v538q-52 -89 -107.5 -121t-166.5 -32q-84 0 -141.5 9t-104.5 34t-74 64.5t-46 107t-25.5 153.5t-6.5 211q0 188 38 295.5t118 154t219 46.5q124 0 193.5 -32.5t111.5 -113.5zM547 877q-43 0 -71.5 -4.5t-53.5 -18t-38.5 -36t-24 -62.5
t-14 -93t-3.5 -131q0 -88 3 -144.5t13.5 -99.5t23.5 -65t40.5 -35.5t56.5 -16.5t80 -3q55 0 92 12t62 36t38 69.5t18 101.5t5 143q0 143 -20 215.5t-67 102t-140 29.5z" />
    <glyph glyph-name="r" unicode="r" horiz-adv-x="958" 
d="M127 0v1042h238v-135q52 84 110 118t154 34q166 0 226 -75.5t60 -252.5q0 -57 -2 -90h-227v51q0 107 -26.5 142.5t-108.5 35.5q-87 0 -133.5 -58t-46.5 -163v-649h-244z" />
    <glyph glyph-name="s" unicode="s" horiz-adv-x="1118" 
d="M80 305h237l2 -22q3 -49 22 -75t68.5 -40t141.5 -14q114 0 165.5 11t70 38.5t18.5 89.5q0 47 -4 69.5t-24.5 39t-51 21.5t-94.5 9l-174 12q-110 9 -176 25t-112 50.5t-63.5 88.5t-17.5 140q0 169 106 240t369 71q179 0 275.5 -27.5t132 -81.5t35.5 -153v-21h-228l-2 29
q-5 53 -51.5 70.5t-181.5 17.5q-99 0 -147 -12.5t-64.5 -38.5t-16.5 -80q0 -49 13 -73t51.5 -37.5t118.5 -18.5l245 -17q81 -6 132.5 -21t90.5 -47.5t55.5 -88.5t16.5 -142q0 -127 -44.5 -197.5t-151 -103t-299.5 -32.5q-137 0 -225.5 15.5t-141.5 52.5t-74.5 90.5
t-21.5 136.5v26z" />
    <glyph glyph-name="t" unicode="t" horiz-adv-x="937" 
d="M690 397h197q2 -55 2 -104q0 -160 -82 -234.5t-279 -74.5q-201 0 -283.5 75.5t-82.5 255.5v543h-127v184h127v228h244v-228h444v-184h-444v-539q0 -84 27 -118.5t106 -34.5q93 0 122 32.5t29 135.5v63z" />
    <glyph glyph-name="u" unicode="u" horiz-adv-x="1150" 
d="M1024 1042v-1042h-233v145q-59 -98 -133 -129.5t-214 -31.5q-178 0 -251.5 81t-73.5 248v729h243v-653q0 -55 4.5 -89.5t16.5 -61.5t35.5 -41t57.5 -20.5t87 -6.5q68 0 111.5 17t66.5 53.5t31 82t8 115.5v604h244z" />
    <glyph glyph-name="v" unicode="v" horiz-adv-x="1048" 
d="M16 1042h256l254 -852l252 852h250l-336 -1042h-338z" />
    <glyph glyph-name="w" unicode="w" horiz-adv-x="1605" 
d="M453 188l196 854h301l199 -856l174 856h238l-234 -1042h-348l-180 819l-183 -819h-337l-242 1042h248z" />
    <glyph glyph-name="x" unicode="x" horiz-adv-x="1013" 
d="M733 0l-233 403l-230 -403h-278l346 545l-303 497h278l193 -356l199 356h268l-307 -495l344 -547h-277z" />
    <glyph glyph-name="y" unicode="y" horiz-adv-x="1052" 
d="M16 1042h256l275 -843l231 843h250l-350 -1167q-44 -155 -128.5 -221t-236.5 -66q-51 0 -80 4v179h39q76 0 120 34t67 113l24 86h-110z" />
    <glyph glyph-name="z" unicode="z" horiz-adv-x="999" 
d="M53 0v215l586 643h-557v184h842v-206l-582 -648h594v-188h-883z" />
    <glyph glyph-name="braceleft" unicode="{" 
d="M82 557v158q39 2 67 12t42.5 23t22.5 34t9.5 37t1.5 41q0 48 -8 171t-8 145q0 162 85.5 232.5t242.5 70.5h55v-189h-37q-73 0 -103 -36.5t-30 -129.5q0 -41 9 -142t9 -136q0 -77 -38.5 -132.5t-125.5 -74.5q164 -41 164 -235q0 -26 -9 -128.5t-9 -136.5q0 -96 36.5 -130
t102.5 -34h31v-188h-60q-174 0 -248.5 74t-74.5 223q0 61 8 170t8 154q0 31 -5 52.5t-18.5 43.5t-43.5 34.5t-76 16.5z" />
    <glyph glyph-name="bar" unicode="|" 
d="M233 1516h216v-1700h-216v1700z" />
    <glyph glyph-name="braceright" unicode="}" 
d="M598 713v-158q-39 -2 -67 -12t-42.5 -23t-22.5 -34t-9.5 -37t-1.5 -41q0 -48 8 -171t8 -145q0 -162 -85.5 -232.5t-242.5 -70.5h-55v188h37q73 0 103 36.5t30 129.5q0 42 -9 142.5t-9 136.5q0 172 163 207q-163 41 -163 235q0 26 9 128t9 136q0 96 -36.5 130t-102.5 34
h-31v189h59q174 0 249 -74.5t75 -222.5q0 -61 -8 -170t-8 -154q0 -31 5 -52.5t18.5 -43.5t43.5 -34.5t76 -16.5z" />
    <glyph glyph-name="asciitilde" unicode="~" horiz-adv-x="1366" 
d="M950 594q66 0 97.5 44.5t42.5 141.5h180q-7 -196 -91.5 -294.5t-222.5 -98.5q-72 0 -153 29.5t-140.5 64.5t-128 64.5t-118.5 29.5q-67 0 -99 -45t-43 -141h-180q10 195 95 293t221 98q73 0 157 -29t145 -64t128 -64t110 -29z" />
    <glyph glyph-name="uni00A0" unicode="&#xa0;" 
 />
    <glyph glyph-name="exclamdown" unicode="&#xa1;" 
d="M457 586l12 -987h-256l8 987h236zM465 1042v-258h-246v258h246z" />
    <glyph glyph-name="cent" unicode="&#xa2;" horiz-adv-x="1366" 
d="M1141 688h-226v21q0 73 -16 107.5t-63 47.5l-193 -698h55q77 0 119.5 7.5t65.5 32.5t29 57.5t6 96.5v21h229q2 -16 2 -37q0 -137 -41.5 -213.5t-139.5 -111.5t-276 -35q-38 0 -100 4l-72 -264h-123l76 276q-64 12 -108.5 37.5t-73.5 64.5t-45 102.5t-22.5 139t-6.5 186.5
q0 112 8 190t30.5 139.5t56 98t90.5 60.5t127.5 32.5t172.5 8.5q12 0 33 -1t33 -1l72 258h121l-74 -268q147 -24 201.5 -101.5t54.5 -228.5q0 -15 -2 -29zM461 530q0 -174 11.5 -244.5t53.5 -95.5l193 689h-27q-58 0 -89.5 -2.5t-61.5 -16t-42.5 -32.5t-23 -62.5
t-12.5 -95.5t-2 -140z" />
    <glyph glyph-name="sterling" unicode="&#xa3;" horiz-adv-x="1366" 
d="M111 0v221q41 2 68.5 7.5t47 19.5t30.5 30.5t17 48t7.5 63t1.5 83.5q0 31 -4 109h-185v196h178q-10 163 -10 256q0 251 115 357t391 106q272 0 386 -83t114 -281q0 -54 -2 -89h-248v66q0 43 -9.5 71.5t-35.5 53t-76.5 36t-128.5 11.5q-147 0 -194.5 -45.5t-47.5 -181.5
q0 -145 9 -277h411v-196h-403v-90q0 -97 -23 -162t-86 -103h858v-227h-1181z" />
    <glyph glyph-name="currency" unicode="&#xa4;" horiz-adv-x="1366" 
d="M678 1124q157 0 258 -75l164 172l129 -134l-178 -153q77 -88 77 -242q0 -156 -84 -252l173 -161l-127 -125l-156 176q-47 -41 -116.5 -62.5t-139.5 -21.5q-69 0 -139.5 21.5t-116.5 58.5l-150 -172l-127 125l168 155q-88 96 -88 250q0 142 86 250l-176 151l131 136
l160 -174q99 77 252 77zM678 940q-104 0 -176 -73t-72 -181q0 -67 24 -118.5t62.5 -79.5t79 -42t80.5 -14q42 0 83.5 13.5t80 41.5t62.5 81t24 124q0 104 -71 176t-177 72z" />
    <glyph glyph-name="yen" unicode="&#xa5;" horiz-adv-x="1366" 
d="M174 469h367v178h-367v180h254l-420 654h311l367 -613l369 613h303l-424 -654h254v-180h-365v-178h365v-180h-365v-289h-282v289h-367v180z" />
    <glyph glyph-name="brokenbar" unicode="&#xa6;" 
d="M233 532h216v-716h-216v716zM233 1516h216v-717h-216v717z" />
    <glyph glyph-name="section" unicode="&#xa7;" horiz-adv-x="1366" 
d="M248 285h225q3 -38 10 -59t28 -38.5t61.5 -24.5t107.5 -7q123 0 164 23t41 81t-32.5 87t-123.5 52l-311 80q-240 58 -240 252q0 181 209 240q-143 58 -143 243q0 156 96 221.5t319 65.5q163 0 251.5 -26.5t121.5 -78.5t33 -145q0 -16 -2 -34h-219q-3 48 -17.5 70.5
t-59 34t-136.5 11.5q-87 0 -121.5 -24.5t-34.5 -71.5q0 -53 34 -80.5t140 -54.5l234 -62q63 -16 105.5 -30.5t83.5 -37t64.5 -49.5t37.5 -66.5t14 -90.5q0 -90 -51.5 -151.5t-153.5 -84.5q75 -34 105 -92.5t30 -154.5q0 -62 -11 -107t-40 -83.5t-79 -61.5t-128 -36t-186 -13
q-162 0 -256.5 27.5t-133 80.5t-38.5 141q0 31 2 54zM797 848l-250 72q-64 -10 -101.5 -45.5t-37.5 -79.5q0 -92 112 -121l322 -86q119 27 119 119q0 55 -35 85t-129 56z" />
    <glyph glyph-name="dieresis" unicode="&#xa8;" 
d="M412 1204v230h231v-230h-231zM41 1204v230h231v-230h-231z" />
    <glyph glyph-name="copyright" unicode="&#xa9;" horiz-adv-x="1720" 
d="M254 741q0 -277 167 -449.5t437 -172.5q277 0 442.5 170t165.5 448q0 277 -167 450t-437 173q-277 0 -442.5 -170.5t-165.5 -448.5zM109 741q0 220 94.5 391.5t266.5 267t392 95.5t390.5 -95t265 -267.5t94.5 -395.5q0 -220 -95 -391.5t-267 -266.5t-392 -95
q-165 0 -304 55t-237 154t-153 240t-55 308zM1221 866h-189v29q0 71 -27.5 97t-101.5 26h-84q-90 0 -115.5 -34t-25.5 -150v-193q0 -105 26 -139.5t115 -34.5h84q80 0 106.5 28t26.5 103v39h189v-45q0 -145 -63 -218t-201 -73h-195q-147 0 -213 66t-66 217v295
q0 165 64.5 233t214.5 68h197q258 0 258 -260v-54z" />
    <glyph glyph-name="ordfeminine" unicode="&#xaa;" horiz-adv-x="819" 
d="M561 752v73q-44 -50 -88.5 -65t-132.5 -15q-147 0 -209.5 48.5t-62.5 181.5q0 143 65 191t232 48q77 0 119 -15t71 -54v74q0 95 -27.5 123t-128.5 28q-57 0 -84.5 -16t-31.5 -58h-189q0 113 62 157t237 44q194 0 272 -48.5t78 -180.5v-516h-182zM373 1090
q-69 0 -94 -21.5t-25 -83.5q0 -68 26.5 -88t118.5 -20q101 0 129.5 21.5t28.5 92.5q0 38 -10 56.5t-51 30.5t-123 12z" />
    <glyph glyph-name="guillemotleft" unicode="&#xab;" horiz-adv-x="972" 
d="M680 838h186l-225 -301l223 -312h-190l-221 307zM328 838h186l-225 -301l223 -312h-190l-222 307z" />
    <glyph glyph-name="logicalnot" unicode="&#xac;" horiz-adv-x="1366" 
d="M125 858h1040v-663h-204v467h-836v196z" />
    <glyph glyph-name="uni00AD" unicode="&#xad;" 
d="M57 442v215h570v-215h-570z" />
    <glyph glyph-name="registered" unicode="&#xae;" horiz-adv-x="983" 
d="M492 1495q180 0 292.5 -114t112.5 -294q0 -178 -113.5 -292.5t-291.5 -114.5q-180 0 -293 113.5t-113 293.5q0 178 114 293t292 115zM492 1405q-142 0 -225 -85.5t-83 -232.5q0 -146 83.5 -231.5t224.5 -85.5q142 0 224.5 85t82.5 232q0 146 -83 232t-224 86zM319 887
v413h224q71 0 107 -29t36 -93q0 -80 -78 -103q76 -25 76 -96v-92h-102v67q0 42 -15.5 59t-56.5 17h-90v-143h-101zM420 1112h96q38 0 53 12.5t15 42.5q0 29 -16.5 40.5t-59.5 11.5h-88v-107z" />
    <glyph glyph-name="macron" unicode="&#xaf;" 
d="M0 1249v142h682v-142h-682z" />
    <glyph glyph-name="degree" unicode="&#xb0;" horiz-adv-x="819" 
d="M410 1032q77 0 119 46t42 120q0 70 -43 117t-118 47q-77 0 -119.5 -46t-42.5 -120q0 -70 43.5 -117t118.5 -47zM410 897q-135 0 -219.5 84.5t-84.5 214.5t84.5 215.5t219.5 85.5q133 0 218 -84.5t85 -214.5t-85 -215.5t-218 -85.5z" />
    <glyph glyph-name="plusminus" unicode="&#xb1;" horiz-adv-x="1366" 
d="M135 190h1096v-190h-1096v190zM135 801h445v348h204v-348h447v-193h-447v-297h-204v297h-445v193z" />
    <glyph glyph-name="twosuperior" unicode="&#xb2;" horiz-adv-x="1024" 
d="M133 494v225q0 112 45 166.5t166 91.5l219 65q84 25 108.5 54.5t24.5 103.5q0 75 -35 105t-147 30q-82 0 -120.5 -12.5t-51 -39.5t-12.5 -85v-41h-193q-2 23 -2 47q0 169 85 231t300 62q111 0 185 -18t115.5 -57t58 -90t16.5 -126q0 -146 -43.5 -208.5t-177.5 -98.5
l-225 -63q-74 -23 -94.5 -53.5t-20.5 -92.5v-28h561v-168h-762z" />
    <glyph glyph-name="threesuperior" unicode="&#xb3;" horiz-adv-x="1024" 
d="M133 825h195v-65q0 -46 14 -69t56 -34.5t126 -11.5q111 0 146 26.5t35 102.5q0 95 -31 120.5t-129 25.5h-105v159h99q85 0 113 26.5t28 102.5q0 73 -31 101t-131 28q-102 0 -139 -23.5t-37 -86.5v-58h-190q-2 25 -2 60q0 151 78.5 209.5t271.5 58.5q153 0 237.5 -28.5
t119 -87.5t34.5 -164q0 -93 -32 -139t-105 -72q82 -20 117.5 -75.5t35.5 -164.5q0 -72 -17.5 -121.5t-61 -87.5t-121.5 -56t-195 -18q-209 0 -295 60.5t-86 216.5q0 40 2 65z" />
    <glyph glyph-name="acute" unicode="&#xb4;" 
d="M662 1481l-295 -301h-187l191 301h291z" />
    <glyph glyph-name="mu" unicode="&#xb5;" horiz-adv-x="1366" 
d="M1135 1042v-1042h-234v145q-52 -88 -122.5 -124.5t-168.5 -36.5q-83 0 -137 28v-413h-244v1443h244v-680q0 -116 40 -154t161 -38q68 0 111.5 17t66.5 53.5t31 82t8 115.5v604h244z" />
    <glyph glyph-name="paragraph" unicode="&#xb6;" horiz-adv-x="1433" 
d="M1163 -401h-207v1677h-176v-1677h-207v948q-85 0 -151.5 12.5t-125.5 44.5t-98 84t-61 133.5t-22 190.5q0 238 112 353.5t355 115.5h743v-207h-162v-1675z" />
    <glyph glyph-name="periodcentered" unicode="&#xb7;" 
d="M342 809q63 0 107.5 -44.5t44.5 -107.5q0 -65 -44 -109t-108 -44q-66 0 -110 43.5t-44 109.5t44 109t110 43z" />
    <glyph glyph-name="cedilla" unicode="&#xb8;" 
d="M98 -451v103q85 -19 164 -19q109 0 109 76q0 34 -29 54t-74 20q-36 0 -92 -6v76l107 147h116l-96 -129q27 2 55 2q84 0 134.5 -44.5t50.5 -117.5q0 -182 -256 -182q-99 0 -189 20z" />
    <glyph glyph-name="onesuperior" unicode="&#xb9;" horiz-adv-x="1024" 
d="M698 494h-200v788l-244 -235l-113 139l320 297h237v-989z" />
    <glyph glyph-name="ordmasculine" unicode="&#xba;" horiz-adv-x="819" 
d="M408 1497q77 0 131.5 -7.5t94 -27.5t63 -47t37 -74t18 -99.5t4.5 -131.5q0 -89 -8.5 -147.5t-30 -104.5t-61.5 -70.5t-99.5 -36.5t-148.5 -12q-77 0 -131.5 7.5t-94.5 27.5t-63 47t-37 74t-18.5 99.5t-4.5 131.5q0 112 13.5 178.5t52.5 112.5t105.5 63t177.5 17zM408 885
q42 0 66.5 5.5t42.5 17.5t25.5 40t11 64.5t3.5 99.5q0 55 -2 90t-8 64.5t-15.5 44.5t-27 26t-40 14t-56.5 3q-42 0 -66.5 -5.5t-42.5 -17.5t-26 -40t-11.5 -65t-3.5 -100q0 -66 3.5 -105t11.5 -68.5t26 -42.5t42.5 -19t66.5 -6z" />
    <glyph glyph-name="guillemotright" unicode="&#xbb;" horiz-adv-x="972" 
d="M293 225h-187l226 301l-223 312h190l221 -308zM645 225h-186l225 301l-223 312h190l221 -308z" />
    <glyph glyph-name="onequarter" unicode="&#xbc;" horiz-adv-x="2048" 
d="M614 0l488 1481h145l-485 -1481h-148zM1802 211v-211h-200v211h-504v182l422 598h282v-622h129v-158h-129zM1292 369h310v442zM618 494h-200v788l-244 -235l-113 139l320 297h237v-989z" />
    <glyph glyph-name="onehalf" unicode="&#xbd;" horiz-adv-x="2048" 
d="M1159 0v225q0 112 45 166.5t166 91.5l219 66q84 25 108.5 54.5t24.5 103.5q0 75 -35 105t-147 30q-82 0 -120.5 -12.5t-51 -39.5t-12.5 -85v-41h-193q-2 23 -2 47q0 169 85 231t300 62q111 0 185 -18t115.5 -57t58 -90t16.5 -126q0 -146 -43.5 -208.5t-177.5 -98.5
l-225 -64q-74 -23 -94.5 -53t-20.5 -92v-29h561v-168h-762zM604 494h-201v788l-243 -235l-113 139l320 297h237v-989zM602 0l488 1481h145l-485 -1481h-148z" />
    <glyph glyph-name="threequarters" unicode="&#xbe;" horiz-adv-x="2048" 
d="M1851 211v-211h-200v211h-504v182l422 598h282v-622h129v-158h-129zM1341 369h310v442zM96 825h195v-65q0 -46 14 -69t56 -34.5t126 -11.5q111 0 146 26.5t35 102.5q0 95 -31 120.5t-129 25.5h-105v159h99q85 0 113 26.5t28 102.5q0 73 -31 101t-131 28
q-102 0 -139 -23.5t-37 -86.5v-58h-190q-2 25 -2 60q0 151 78.5 209.5t271.5 58.5q153 0 237.5 -28.5t119 -87.5t34.5 -164q0 -93 -32 -139t-105 -72q82 -20 117.5 -75.5t35.5 -164.5q0 -72 -17.5 -121.5t-61 -87.5t-121.5 -56t-195 -18q-209 0 -295 60.5t-86 216.5
q0 40 2 65zM758 0l487 1481h146l-486 -1481h-147z" />
    <glyph glyph-name="questiondown" unicode="&#xbf;" horiz-adv-x="1138" 
d="M805 33h235q4 -46 4 -68q0 -141 -41.5 -221.5t-139.5 -118t-271 -37.5q-86 0 -148 4.5t-118.5 15.5t-94 31t-68 50t-47 74t-25.5 101.5t-9 133.5q0 144 34 217.5t132 126.5l137 72q81 43 100 65t19 82v25h244v-56q0 -104 -28.5 -158.5t-121.5 -101.5l-117 -59
q-42 -22 -62 -33t-41 -28.5t-27.5 -28t-13 -35t-7 -46.5t-0.5 -65q0 -62 7 -94.5t32.5 -57t72.5 -32.5t131 -8q140 0 186 36.5t46 143.5v70zM752 1042v-258h-246v258h246z" />
    <glyph glyph-name="Agrave" unicode="&#xc0;" horiz-adv-x="1476" 
d="M522 1481h439l485 -1481h-291l-106 326h-619l-106 -326h-291zM492 535h495l-225 737h-41zM674 1894l188 -301h-186l-295 301h293z" />
    <glyph glyph-name="Aacute" unicode="&#xc1;" horiz-adv-x="1476" 
d="M522 1481h439l485 -1481h-291l-106 326h-619l-106 -326h-291zM492 535h495l-225 737h-41zM1102 1894l-295 -301h-186l190 301h291z" />
    <glyph glyph-name="Acircumflex" unicode="&#xc2;" horiz-adv-x="1476" 
d="M522 1481h439l485 -1481h-291l-106 326h-619l-106 -326h-291zM492 535h495l-225 737h-41zM618 1894h244l215 -301h-207l-129 185l-131 -185h-209z" />
    <glyph glyph-name="Atilde" unicode="&#xc3;" horiz-adv-x="1476" 
d="M522 1481h439l485 -1481h-291l-106 326h-619l-106 -326h-291zM492 535h495l-225 737h-41zM592 1858q59 0 162 -42t137 -42q76 0 94 88h123q-17 -121 -73 -180.5t-144 -59.5q-56 0 -161.5 42t-137.5 42q-76 0 -94 -88h-123q17 121 73 180.5t144 59.5z" />
    <glyph glyph-name="Adieresis" unicode="&#xc4;" horiz-adv-x="1476" 
d="M522 1481h439l485 -1481h-291l-106 326h-619l-106 -326h-291zM492 535h495l-225 737h-41zM811 1622v229h231v-229h-231zM440 1622v229h232v-229h-232z" />
    <glyph glyph-name="Aring" unicode="&#xc5;" horiz-adv-x="1476" 
d="M522 1481h439l485 -1481h-291l-106 326h-619l-106 -326h-291zM492 535h495l-225 737h-41zM745 1976q93 0 152 -57.5t59 -153.5t-60 -154.5t-153 -58.5q-94 0 -153.5 57t-59.5 154q0 95 60.5 154t154.5 59zM743 1647q51 0 83 32t32 86q0 53 -32.5 85t-82.5 32t-82 -32
t-32 -87q0 -53 32 -84.5t82 -31.5z" />
    <glyph glyph-name="AE" unicode="&#xc6;" horiz-adv-x="1988" 
d="M702 1481h1156v-226h-635v-389h616v-207h-616v-432h651v-227h-920v360h-501l-166 -360h-297zM954 565v717h-77l-336 -717h413z" />
    <glyph glyph-name="Ccedilla" unicode="&#xc7;" horiz-adv-x="1458" 
d="M520 -451v103q86 -19 164 -19q109 0 109 76q0 34 -29 54t-74 20q-37 0 -92 -6v76l94 131q-130 3 -222 23.5t-158.5 60.5t-105 107t-56 157.5t-17.5 218.5v395q0 153 27 253t95 169t183.5 99t294.5 30q127 0 217.5 -9.5t158 -33.5t109 -58.5t67 -91t35 -124t9.5 -164.5
v-43h-268v51q0 62 -7.5 99.5t-26.5 66t-58.5 42t-94 19.5t-143.5 6q-76 0 -123.5 -4t-85.5 -18.5t-57.5 -35t-32.5 -61.5t-16.5 -88.5t-3.5 -125.5v-349q0 -79 4.5 -130.5t18.5 -93.5t35.5 -64.5t60 -38t86 -20.5t120.5 -5q77 0 125.5 3t88.5 13t60.5 25t35 45t18.5 66t4 94
v68h272v-64q0 -144 -24.5 -234t-88.5 -146.5t-162 -79.5t-257 -27l-84 -115q27 2 55 2q84 0 134.5 -44.5t50.5 -117.5q0 -182 -256 -182q-99 0 -189 20z" />
    <glyph glyph-name="Egrave" unicode="&#xc8;" horiz-adv-x="1368" 
d="M164 0v1481h1087v-232h-809v-377h781v-219h-781v-417h813v-236h-1091zM651 1894l189 -301h-187l-295 301h293z" />
    <glyph glyph-name="Eacute" unicode="&#xc9;" horiz-adv-x="1368" 
d="M164 0v1481h1087v-232h-809v-377h781v-219h-781v-417h813v-236h-1091zM1038 1894l-295 -301h-186l191 301h290z" />
    <glyph glyph-name="Ecircumflex" unicode="&#xca;" horiz-adv-x="1368" 
d="M164 0v1481h1087v-232h-809v-377h781v-219h-781v-417h813v-236h-1091zM578 1894h243l215 -301h-207l-129 185l-131 -185h-209z" />
    <glyph glyph-name="Edieresis" unicode="&#xcb;" horiz-adv-x="1368" 
d="M164 0v1481h1087v-232h-809v-377h781v-219h-781v-417h813v-236h-1091zM770 1622v229h231v-229h-231zM399 1622v229h232v-229h-232z" />
    <glyph glyph-name="Igrave" unicode="&#xcc;" horiz-adv-x="614" 
d="M168 1481h278v-1481h-278v1481zM268 1894l189 -301h-187l-295 301h293z" />
    <glyph glyph-name="Iacute" unicode="&#xcd;" horiz-adv-x="614" 
d="M168 1481h278v-1481h-278v1481zM643 1894l-295 -301h-186l190 301h291z" />
    <glyph glyph-name="Icircumflex" unicode="&#xce;" horiz-adv-x="614" 
d="M168 1481h278v-1481h-278v1481zM188 1894h244l215 -301h-207l-129 185l-131 -185h-209z" />
    <glyph glyph-name="Idieresis" unicode="&#xcf;" horiz-adv-x="614" 
d="M168 1481h278v-1481h-278v1481zM379 1622v229h231v-229h-231zM8 1622v229h232v-229h-232z" />
    <glyph glyph-name="Eth" unicode="&#xd0;" horiz-adv-x="1591" 
d="M164 0v672h-162v170h162v639h717q116 0 199.5 -13.5t150 -47t108.5 -85t69.5 -134t38.5 -187.5t11 -250q0 -162 -9.5 -271.5t-36.5 -199.5t-69.5 -142.5t-115.5 -88.5t-168 -49t-232 -13h-663zM442 1243v-401h369v-170h-369v-432h424q56 0 92 2.5t71.5 12t56 24
t39.5 43.5t28 64.5t16 93t9 123.5t2 161q0 111 -4 181.5t-19 128t-36 87.5t-62 50t-91 26t-128 6h-398z" />
    <glyph glyph-name="Ntilde" unicode="&#xd1;" horiz-adv-x="1652" 
d="M160 0v1481h418l272 -518q43 -81 112 -211.5t102 -193t79.5 -153t87.5 -174.5q0 81 -4 344t-4 396v510h270v-1481h-412l-260 475q-249 457 -399 770q0 -96 4 -363.5t4 -365.5v-516h-270zM682 1858q59 0 162 -42t137 -42q76 0 94 88h123q-17 -121 -73 -180.5t-144 -59.5
q-56 0 -161.5 42t-137.5 42q-76 0 -94 -88h-123q17 121 73 180.5t144 59.5z" />
    <glyph glyph-name="Ograve" unicode="&#xd2;" horiz-adv-x="1572" 
d="M786 1260q-87 0 -142.5 -4.5t-100.5 -20t-68 -38t-38.5 -66t-20 -95.5t-4.5 -135v-321q0 -82 4.5 -133.5t20 -95.5t39 -66.5t68 -38t100.5 -20.5t142 -5q87 0 142.5 4.5t101 20t68.5 38t38.5 66t20 95.5t4.5 135v321q0 81 -4.5 133t-20 95.5t-39.5 66t-68.5 38.5
t-100.5 21t-142 5zM786 1497q193 0 316 -28t200 -96.5t107.5 -174t30.5 -270.5v-375q0 -160 -31.5 -265t-108 -175t-200.5 -99.5t-314 -29.5q-154 0 -262.5 18.5t-185.5 58t-121 108t-64 160.5t-20 224v375q0 160 31 265t107.5 175t200.5 99.5t314 29.5zM745 1894l189 -301
h-186l-295 301h292z" />
    <glyph glyph-name="Oacute" unicode="&#xd3;" horiz-adv-x="1572" 
d="M786 1260q-87 0 -142.5 -4.5t-100.5 -20t-68 -38t-38.5 -66t-20 -95.5t-4.5 -135v-321q0 -82 4.5 -133.5t20 -95.5t39 -66.5t68 -38t100.5 -20.5t142 -5q87 0 142.5 4.5t101 20t68.5 38t38.5 66t20 95.5t4.5 135v321q0 81 -4.5 133t-20 95.5t-39.5 66t-68.5 38.5
t-100.5 21t-142 5zM786 1497q193 0 316 -28t200 -96.5t107.5 -174t30.5 -270.5v-375q0 -160 -31.5 -265t-108 -175t-200.5 -99.5t-314 -29.5q-154 0 -262.5 18.5t-185.5 58t-121 108t-64 160.5t-20 224v375q0 160 31 265t107.5 175t200.5 99.5t314 29.5zM1133 1894
l-295 -301h-187l191 301h291z" />
    <glyph glyph-name="Ocircumflex" unicode="&#xd4;" horiz-adv-x="1572" 
d="M786 1260q-87 0 -142.5 -4.5t-100.5 -20t-68 -38t-38.5 -66t-20 -95.5t-4.5 -135v-321q0 -82 4.5 -133.5t20 -95.5t39 -66.5t68 -38t100.5 -20.5t142 -5q87 0 142.5 4.5t101 20t68.5 38t38.5 66t20 95.5t4.5 135v321q0 81 -4.5 133t-20 95.5t-39.5 66t-68.5 38.5
t-100.5 21t-142 5zM786 1497q193 0 316 -28t200 -96.5t107.5 -174t30.5 -270.5v-375q0 -160 -31.5 -265t-108 -175t-200.5 -99.5t-314 -29.5q-154 0 -262.5 18.5t-185.5 58t-121 108t-64 160.5t-20 224v375q0 160 31 265t107.5 175t200.5 99.5t314 29.5zM672 1894h243
l215 -301h-206l-129 185l-131 -185h-209z" />
    <glyph glyph-name="Otilde" unicode="&#xd5;" horiz-adv-x="1572" 
d="M786 1260q-87 0 -142.5 -4.5t-100.5 -20t-68 -38t-38.5 -66t-20 -95.5t-4.5 -135v-321q0 -82 4.5 -133.5t20 -95.5t39 -66.5t68 -38t100.5 -20.5t142 -5q87 0 142.5 4.5t101 20t68.5 38t38.5 66t20 95.5t4.5 135v321q0 81 -4.5 133t-20 95.5t-39.5 66t-68.5 38.5
t-100.5 21t-142 5zM786 1497q193 0 316 -28t200 -96.5t107.5 -174t30.5 -270.5v-375q0 -160 -31.5 -265t-108 -175t-200.5 -99.5t-314 -29.5q-154 0 -262.5 18.5t-185.5 58t-121 108t-64 160.5t-20 224v375q0 160 31 265t107.5 175t200.5 99.5t314 29.5zM645 1858
q59 0 162 -42t137 -42q76 0 94 88h123q-17 -121 -73 -180.5t-144 -59.5q-56 0 -161.5 42t-137.5 42q-76 0 -94 -88h-123q17 121 73 180.5t144 59.5z" />
    <glyph glyph-name="Odieresis" unicode="&#xd6;" horiz-adv-x="1572" 
d="M786 1260q-87 0 -142.5 -4.5t-100.5 -20t-68 -38t-38.5 -66t-20 -95.5t-4.5 -135v-321q0 -82 4.5 -133.5t20 -95.5t39 -66.5t68 -38t100.5 -20.5t142 -5q87 0 142.5 4.5t101 20t68.5 38t38.5 66t20 95.5t4.5 135v321q0 81 -4.5 133t-20 95.5t-39.5 66t-68.5 38.5
t-100.5 21t-142 5zM786 1497q193 0 316 -28t200 -96.5t107.5 -174t30.5 -270.5v-375q0 -160 -31.5 -265t-108 -175t-200.5 -99.5t-314 -29.5q-154 0 -262.5 18.5t-185.5 58t-121 108t-64 160.5t-20 224v375q0 160 31 265t107.5 175t200.5 99.5t314 29.5zM864 1622v229h232
v-229h-232zM494 1622v229h231v-229h-231z" />
    <glyph glyph-name="multiply" unicode="&#xd7;" horiz-adv-x="1366" 
d="M311 1053l371 -377l371 377l133 -138l-369 -374l365 -373l-135 -133l-365 373l-365 -373l-135 133l365 373l-369 374z" />
    <glyph glyph-name="Oslash" unicode="&#xd8;" horiz-adv-x="1572" 
d="M786 1497q190 0 313.5 -28t196.5 -93l113 117l109 -109l-129 -133q51 -110 51 -323v-375q0 -160 -31.5 -265t-108 -175t-200.5 -99.5t-314 -29.5q-192 0 -314.5 27t-195.5 91l-118 -122l-111 104l137 141q-51 110 -51 328v375q0 160 31 265t107.5 175t200.5 99.5
t314 29.5zM786 1260q-87 0 -142.5 -4.5t-100.5 -20t-68 -38t-38.5 -66t-20 -95.5t-4.5 -135v-438l696 719q-25 45 -102 61.5t-220 16.5zM786 221q87 0 142.5 4.5t101 20t68.5 38t38.5 66t20 95.5t4.5 135v434l-696 -717q28 -45 100 -60.5t221 -15.5z" />
    <glyph glyph-name="Ugrave" unicode="&#xd9;" horiz-adv-x="1560" 
d="M147 1481h279v-1032q0 -93 28 -139.5t102.5 -67.5t223.5 -21q94 0 154 7t101.5 21.5t62 44.5t29 68.5t8.5 100.5v1018h278v-989q0 -112 -17.5 -191.5t-59.5 -142t-115 -99.5t-180.5 -56t-258.5 -19q-187 0 -308 25t-194.5 84t-103 148.5t-29.5 227.5v1012zM731 1894
l189 -301h-187l-295 301h293z" />
    <glyph glyph-name="Uacute" unicode="&#xda;" horiz-adv-x="1560" 
d="M147 1481h279v-1032q0 -93 28 -139.5t102.5 -67.5t223.5 -21q94 0 154 7t101.5 21.5t62 44.5t29 68.5t8.5 100.5v1018h278v-989q0 -112 -17.5 -191.5t-59.5 -142t-115 -99.5t-180.5 -56t-258.5 -19q-187 0 -308 25t-194.5 84t-103 148.5t-29.5 227.5v1012zM1118 1894
l-295 -301h-186l190 301h291z" />
    <glyph glyph-name="Ucircumflex" unicode="&#xdb;" horiz-adv-x="1560" 
d="M147 1481h279v-1032q0 -93 28 -139.5t102.5 -67.5t223.5 -21q94 0 154 7t101.5 21.5t62 44.5t29 68.5t8.5 100.5v1018h278v-989q0 -112 -17.5 -191.5t-59.5 -142t-115 -99.5t-180.5 -56t-258.5 -19q-187 0 -308 25t-194.5 84t-103 148.5t-29.5 227.5v1012zM657 1894h244
l215 -301h-207l-129 185l-131 -185h-209z" />
    <glyph glyph-name="Udieresis" unicode="&#xdc;" horiz-adv-x="1560" 
d="M147 1481h279v-1032q0 -93 28 -139.5t102.5 -67.5t223.5 -21q94 0 154 7t101.5 21.5t62 44.5t29 68.5t8.5 100.5v1018h278v-989q0 -112 -17.5 -191.5t-59.5 -142t-115 -99.5t-180.5 -56t-258.5 -19q-187 0 -308 25t-194.5 84t-103 148.5t-29.5 227.5v1012zM850 1622v229
h231v-229h-231zM479 1622v229h232v-229h-232z" />
    <glyph glyph-name="Yacute" unicode="&#xdd;" horiz-adv-x="1316" 
d="M518 578l-555 903h316l380 -645l385 645h310l-557 -908v-573h-279v578zM1004 1894l-295 -301h-187l191 301h291z" />
    <glyph glyph-name="Thorn" unicode="&#xde;" horiz-adv-x="1427" 
d="M442 1481v-174h394q115 0 197.5 -19.5t136 -55.5t85 -97t44 -134t12.5 -176q0 -173 -44 -273.5t-153.5 -151t-302.5 -50.5h-369v-350h-278v1481h278zM440 582h389q130 0 170.5 46.5t40.5 196.5q0 59 -4.5 97t-17 70t-36 48.5t-60.5 25.5t-91 9h-391v-493z" />
    <glyph glyph-name="germandbls" unicode="&#xdf;" horiz-adv-x="1148" 
d="M131 0v1104q0 209 101.5 301t324.5 92q219 0 319.5 -87t100.5 -286q0 -125 -39 -189.5t-135 -96.5q96 -20 147.5 -60.5t75 -120.5t23.5 -223q0 -177 -38.5 -273t-125.5 -136.5t-246 -40.5q-62 0 -111 10v182q27 -6 95 -6q49 0 79.5 7.5t53 24.5t33.5 52t15.5 83.5
t4.5 125.5q0 65 -4.5 104.5t-17 74t-38.5 51.5t-66.5 26.5t-102.5 9.5q-23 0 -41 -2v168h39q103 7 134 47.5t31 161.5t-39.5 169t-146.5 48q-93 0 -137.5 -43t-44.5 -145v-1133h-244z" />
    <glyph glyph-name="agrave" unicode="&#xe0;" horiz-adv-x="1144" 
d="M793 0v117q-62 -74 -131.5 -103.5t-196.5 -29.5q-206 0 -292.5 72t-86.5 257q0 189 81 262.5t294 73.5q147 0 213 -24t110 -93v168q0 63 -8 99t-32.5 60t-65.5 32t-111 8q-123 0 -161.5 -23.5t-38.5 -93.5h-234q-2 23 -2 43q0 64 18.5 106t67.5 72t133.5 43t216.5 13
q137 0 226 -19t139.5 -61t70 -100t19.5 -146v-733h-229zM557 492q-63 0 -102 -5t-66 -15t-39.5 -31.5t-17 -48.5t-4.5 -73q0 -68 18 -101.5t66 -47.5t145 -14q74 0 119 8.5t68.5 30.5t31.5 49.5t8 74.5q0 52 -7 81t-30.5 52t-68.5 31.5t-121 8.5zM528 1481l189 -301h-187
l-294 301h292z" />
    <glyph glyph-name="aacute" unicode="&#xe1;" horiz-adv-x="1144" 
d="M793 0v117q-62 -74 -131.5 -103.5t-196.5 -29.5q-206 0 -292.5 72t-86.5 257q0 189 81 262.5t294 73.5q147 0 213 -24t110 -93v168q0 63 -8 99t-32.5 60t-65.5 32t-111 8q-123 0 -161.5 -23.5t-38.5 -93.5h-234q-2 23 -2 43q0 64 18.5 106t67.5 72t133.5 43t216.5 13
q137 0 226 -19t139.5 -61t70 -100t19.5 -146v-733h-229zM557 492q-63 0 -102 -5t-66 -15t-39.5 -31.5t-17 -48.5t-4.5 -73q0 -68 18 -101.5t66 -47.5t145 -14q74 0 119 8.5t68.5 30.5t31.5 49.5t8 74.5q0 52 -7 81t-30.5 52t-68.5 31.5t-121 8.5zM915 1481l-294 -301h-187
l191 301h290z" />
    <glyph glyph-name="acircumflex" unicode="&#xe2;" horiz-adv-x="1144" 
d="M793 0v117q-62 -74 -131.5 -103.5t-196.5 -29.5q-206 0 -292.5 72t-86.5 257q0 189 81 262.5t294 73.5q147 0 213 -24t110 -93v168q0 63 -8 99t-32.5 60t-65.5 32t-111 8q-123 0 -161.5 -23.5t-38.5 -93.5h-234q-2 23 -2 43q0 64 18.5 106t67.5 72t133.5 43t216.5 13
q137 0 226 -19t139.5 -61t70 -100t19.5 -146v-733h-229zM557 492q-63 0 -102 -5t-66 -15t-39.5 -31.5t-17 -48.5t-4.5 -73q0 -68 18 -101.5t66 -47.5t145 -14q74 0 119 8.5t68.5 30.5t31.5 49.5t8 74.5q0 52 -7 81t-30.5 52t-68.5 31.5t-121 8.5zM455 1481h243l215 -301
h-206l-129 184l-132 -184h-208z" />
    <glyph glyph-name="atilde" unicode="&#xe3;" horiz-adv-x="1144" 
d="M793 0v117q-62 -74 -131.5 -103.5t-196.5 -29.5q-206 0 -292.5 72t-86.5 257q0 189 81 262.5t294 73.5q147 0 213 -24t110 -93v168q0 63 -8 99t-32.5 60t-65.5 32t-111 8q-123 0 -161.5 -23.5t-38.5 -93.5h-234q-2 23 -2 43q0 64 18.5 106t67.5 72t133.5 43t216.5 13
q137 0 226 -19t139.5 -61t70 -100t19.5 -146v-733h-229zM557 492q-63 0 -102 -5t-66 -15t-39.5 -31.5t-17 -48.5t-4.5 -73q0 -68 18 -101.5t66 -47.5t145 -14q74 0 119 8.5t68.5 30.5t31.5 49.5t8 74.5q0 52 -7 81t-30.5 52t-68.5 31.5t-121 8.5zM428 1444q59 0 162 -42
t137 -42q76 0 94 88h123q-17 -121 -73 -180.5t-144 -59.5q-56 0 -161.5 42t-137.5 42q-76 0 -94 -88h-123q17 121 73 180.5t144 59.5z" />
    <glyph glyph-name="adieresis" unicode="&#xe4;" horiz-adv-x="1144" 
d="M793 0v117q-62 -74 -131.5 -103.5t-196.5 -29.5q-206 0 -292.5 72t-86.5 257q0 189 81 262.5t294 73.5q147 0 213 -24t110 -93v168q0 63 -8 99t-32.5 60t-65.5 32t-111 8q-123 0 -161.5 -23.5t-38.5 -93.5h-234q-2 23 -2 43q0 64 18.5 106t67.5 72t133.5 43t216.5 13
q137 0 226 -19t139.5 -61t70 -100t19.5 -146v-733h-229zM557 492q-63 0 -102 -5t-66 -15t-39.5 -31.5t-17 -48.5t-4.5 -73q0 -68 18 -101.5t66 -47.5t145 -14q74 0 119 8.5t68.5 30.5t31.5 49.5t8 74.5q0 52 -7 81t-30.5 52t-68.5 31.5t-121 8.5zM647 1204v230h232v-230
h-232zM276 1204v230h232v-230h-232z" />
    <glyph glyph-name="aring" unicode="&#xe5;" horiz-adv-x="1144" 
d="M793 0v117q-62 -74 -131.5 -103.5t-196.5 -29.5q-206 0 -292.5 72t-86.5 257q0 189 81 262.5t294 73.5q147 0 213 -24t110 -93v168q0 63 -8 99t-32.5 60t-65.5 32t-111 8q-123 0 -161.5 -23.5t-38.5 -93.5h-234q-2 23 -2 43q0 64 18.5 106t67.5 72t133.5 43t216.5 13
q137 0 226 -19t139.5 -61t70 -100t19.5 -146v-733h-229zM557 492q-63 0 -102 -5t-66 -15t-39.5 -31.5t-17 -48.5t-4.5 -73q0 -68 18 -101.5t66 -47.5t145 -14q74 0 119 8.5t68.5 30.5t31.5 49.5t8 74.5q0 52 -7 81t-30.5 52t-68.5 31.5t-121 8.5zM578 1597q92 0 151 -57
t59 -154q0 -96 -60 -154t-153 -58q-94 0 -153.5 56.5t-59.5 153.5q0 95 61 154t155 59zM575 1268q51 0 83 32t32 86q0 53 -32.5 85t-82.5 32t-82 -32t-32 -87q0 -53 32 -84.5t82 -31.5z" />
    <glyph glyph-name="ae" unicode="&#xe6;" horiz-adv-x="1822" 
d="M1493 305h229v-31q0 -105 -40 -166.5t-141.5 -92.5t-280.5 -31q-167 0 -248 38.5t-131 139.5q-35 -58 -60 -87.5t-69 -52.5t-105 -30.5t-162 -7.5q-215 0 -307 72t-92 257q0 189 81 262.5t294 73.5q147 0 213 -24t110 -93v168q0 63 -8 99t-32.5 60t-65.5 32t-111 8
q-123 0 -161.5 -23.5t-38.5 -93.5h-234q-2 23 -2 43q0 64 18.5 106t67.5 72t133.5 43t216.5 13q121 0 192 -16t104.5 -46t56.5 -86q29 56 65 86.5t101.5 46t173.5 15.5q100 0 172 -9.5t125 -32.5t85.5 -56t52.5 -86t27 -114.5t7 -150.5q0 -84 -5 -137h-706v-80
q0 -131 52.5 -183t191.5 -52q96 0 145 14t67.5 44t18.5 89zM557 492q-63 0 -102 -5t-66 -15t-39.5 -31.5t-17 -48.5t-4.5 -73q0 -68 18 -101.5t66 -47.5t145 -14q74 0 119 8.5t68.5 30.5t31.5 49.5t8 74.5q0 52 -7 81t-30.5 52t-68.5 31.5t-121 8.5zM1018 627h477v41
q0 58 -5 93.5t-18.5 63.5t-41 41.5t-67.5 20t-103 6.5q-77 0 -121.5 -8.5t-73 -35t-38 -68.5t-9.5 -115v-39z" />
    <glyph glyph-name="ccedilla" unicode="&#xe7;" horiz-adv-x="1124" 
d="M342 -451v103q86 -19 164 -19q108 0 108 76q0 35 -28.5 54.5t-73.5 19.5q-36 0 -92 -6v76l94 133q-89 3 -150.5 14t-109.5 37.5t-76.5 64t-46.5 100.5t-24.5 140t-6.5 188q0 112 8.5 190t30.5 139.5t56 98t90.5 60.5t127.5 32.5t173 8.5q110 0 186.5 -13t126.5 -37.5
t78 -68t38.5 -95.5t10.5 -128q0 -19 -2 -33h-229v21q0 103 -42.5 136t-177.5 33q-58 0 -89.5 -2.5t-61.5 -15.5t-42.5 -32t-23 -61.5t-12.5 -94t-2 -138.5q0 -67 1 -111.5t6.5 -85t11.5 -64.5t20.5 -44t29.5 -29.5t42.5 -16t55 -8t71.5 -1.5q60 0 98 6.5t63 18.5t36.5 38.5
t15.5 57.5t4 84v20h231q2 -16 2 -37q0 -200 -86.5 -282.5t-314.5 -89.5l-84 -115q27 2 55 2q84 0 134 -44.5t50 -117.5q0 -182 -256 -182q-98 0 -188 20z" />
    <glyph glyph-name="egrave" unicode="&#xe8;" horiz-adv-x="1142" 
d="M813 305h229v-31q0 -105 -40 -166.5t-141.5 -92.5t-280.5 -31q-119 0 -197.5 15t-136 49.5t-88.5 98t-44.5 151t-13.5 218.5q0 112 8.5 192t31 142.5t56.5 101t89.5 63.5t125.5 34.5t169 9.5q100 0 172 -9.5t125 -32.5t85.5 -56t52.5 -86t27 -114.5t7 -150.5
q0 -84 -5 -137h-706v-80q0 -131 52.5 -183t191.5 -52q96 0 145 14t67.5 44t18.5 89zM338 627h477v41q0 58 -5 93.5t-18.5 63.5t-41 41.5t-67.5 20t-103 6.5q-77 0 -121.5 -8.5t-73 -35t-38 -68.5t-9.5 -115v-39zM535 1481l188 -301h-186l-295 301h293z" />
    <glyph glyph-name="eacute" unicode="&#xe9;" horiz-adv-x="1142" 
d="M813 305h229v-31q0 -105 -40 -166.5t-141.5 -92.5t-280.5 -31q-119 0 -197.5 15t-136 49.5t-88.5 98t-44.5 151t-13.5 218.5q0 112 8.5 192t31 142.5t56.5 101t89.5 63.5t125.5 34.5t169 9.5q100 0 172 -9.5t125 -32.5t85.5 -56t52.5 -86t27 -114.5t7 -150.5
q0 -84 -5 -137h-706v-80q0 -131 52.5 -183t191.5 -52q96 0 145 14t67.5 44t18.5 89zM338 627h477v41q0 58 -5 93.5t-18.5 63.5t-41 41.5t-67.5 20t-103 6.5q-77 0 -121.5 -8.5t-73 -35t-38 -68.5t-9.5 -115v-39zM922 1481l-295 -301h-187l191 301h291z" />
    <glyph glyph-name="ecircumflex" unicode="&#xea;" horiz-adv-x="1142" 
d="M813 305h229v-31q0 -105 -40 -166.5t-141.5 -92.5t-280.5 -31q-119 0 -197.5 15t-136 49.5t-88.5 98t-44.5 151t-13.5 218.5q0 112 8.5 192t31 142.5t56.5 101t89.5 63.5t125.5 34.5t169 9.5q100 0 172 -9.5t125 -32.5t85.5 -56t52.5 -86t27 -114.5t7 -150.5
q0 -84 -5 -137h-706v-80q0 -131 52.5 -183t191.5 -52q96 0 145 14t67.5 44t18.5 89zM338 627h477v41q0 58 -5 93.5t-18.5 63.5t-41 41.5t-67.5 20t-103 6.5q-77 0 -121.5 -8.5t-73 -35t-38 -68.5t-9.5 -115v-39zM461 1481h244l215 -301h-207l-129 184l-131 -184h-209z" />
    <glyph glyph-name="edieresis" unicode="&#xeb;" horiz-adv-x="1142" 
d="M813 305h229v-31q0 -105 -40 -166.5t-141.5 -92.5t-280.5 -31q-119 0 -197.5 15t-136 49.5t-88.5 98t-44.5 151t-13.5 218.5q0 112 8.5 192t31 142.5t56.5 101t89.5 63.5t125.5 34.5t169 9.5q100 0 172 -9.5t125 -32.5t85.5 -56t52.5 -86t27 -114.5t7 -150.5
q0 -84 -5 -137h-706v-80q0 -131 52.5 -183t191.5 -52q96 0 145 14t67.5 44t18.5 89zM338 627h477v41q0 58 -5 93.5t-18.5 63.5t-41 41.5t-67.5 20t-103 6.5q-77 0 -121.5 -8.5t-73 -35t-38 -68.5t-9.5 -115v-39zM653 1204v230h232v-230h-232zM283 1204v230h231v-230h-231z
" />
    <glyph glyph-name="igrave" unicode="&#xec;" horiz-adv-x="505" 
d="M131 0v1042h244v-1042h-244zM217 1481l189 -301h-187l-295 301h293z" />
    <glyph glyph-name="iacute" unicode="&#xed;" horiz-adv-x="505" 
d="M131 0v1042h244v-1042h-244zM588 1481l-295 -301h-187l191 301h291z" />
    <glyph glyph-name="icircumflex" unicode="&#xee;" horiz-adv-x="505" 
d="M131 0v1042h244v-1042h-244zM135 1481h244l215 -301h-207l-129 184l-131 -184h-209z" />
    <glyph glyph-name="idieresis" unicode="&#xef;" horiz-adv-x="505" 
d="M131 0v1042h244v-1042h-244zM328 1204v230h231v-230h-231zM-43 1204v230h231v-230h-231z" />
    <glyph glyph-name="eth" unicode="&#xf0;" horiz-adv-x="1138" 
d="M340 514q0 -88 2 -139t11.5 -95t22 -63t42 -33.5t61.5 -17t90 -2.5q44 0 70.5 1t54 8t41.5 15.5t28 29.5t19.5 44t10 65t5.5 86.5t1 114.5q0 79 -2 122t-11 83.5t-23 57.5t-44.5 31t-67.5 17t-100 3q-44 0 -74.5 -5t-54 -13.5t-38 -28.5t-24 -41t-13.5 -61t-5.5 -77.5
t-1.5 -101.5zM100 518q0 146 21 239t72.5 152.5t132 83t206.5 23.5q85 0 140 -15.5t100 -60.5q-48 135 -194 266l-242 -88l-45 117l176 63l-131 101l170 96l164 -117l217 84l47 -119l-156 -57q160 -192 210 -339t50 -423q0 -118 -7.5 -197.5t-28.5 -142.5t-52.5 -99.5
t-86.5 -60.5t-123.5 -32t-170.5 -8q-77 0 -132.5 4t-105.5 15.5t-82.5 29t-60 47.5t-43.5 68t-26.5 94t-14.5 121.5t-4 154.5z" />
    <glyph glyph-name="ntilde" unicode="&#xf1;" horiz-adv-x="1155" 
d="M127 0v1042h238v-145q59 98 131.5 130t210.5 32q178 0 251.5 -81.5t73.5 -248.5v-729h-244v655q0 55 -4.5 89.5t-16 61.5t-35 41t-57.5 20.5t-87 6.5q-68 0 -111.5 -17t-66.5 -53.5t-31 -82t-8 -115.5v-606h-244zM446 1444q59 0 162 -42t137 -42q77 0 95 88h123
q-17 -120 -73.5 -180t-144.5 -60q-56 0 -161.5 42t-137.5 42q-76 0 -94 -88h-123q17 121 73 180.5t144 59.5z" />
    <glyph glyph-name="ograve" unicode="&#xf2;" horiz-adv-x="1138" 
d="M569 -16q-77 0 -132.5 4t-105.5 15.5t-82.5 29t-60 47.5t-43.5 68t-26.5 94t-14.5 121.5t-4 154.5q0 118 7.5 197.5t28.5 143t52.5 100t86.5 60t123.5 32t170.5 8.5q77 0 132.5 -4t105.5 -15.5t82.5 -29t60 -48t43.5 -68.5t26.5 -94t14.5 -121.5t4 -154.5
q0 -118 -7.5 -197.5t-28.5 -142.5t-52.5 -99.5t-86.5 -60.5t-123.5 -32t-170.5 -8zM569 877q-45 0 -71 -1t-53.5 -7.5t-41 -15t-27.5 -29.5t-19.5 -43.5t-10 -65t-5.5 -86.5t-1 -115q0 -66 1 -108.5t5.5 -82t10.5 -61.5t19.5 -42t27.5 -28.5t41 -15t53.5 -7.5t70.5 -1
q60 0 91 2t61.5 16t42 33t22 64.5t12 98t1.5 146.5q0 65 -1 107.5t-6 82.5t-10.5 62.5t-19.5 42.5t-28.5 29t-41 15.5t-53.5 8t-70 1.5zM528 1481l189 -301h-187l-294 301h292z" />
    <glyph glyph-name="oacute" unicode="&#xf3;" horiz-adv-x="1138" 
d="M569 -16q-77 0 -132.5 4t-105.5 15.5t-82.5 29t-60 47.5t-43.5 68t-26.5 94t-14.5 121.5t-4 154.5q0 118 7.5 197.5t28.5 143t52.5 100t86.5 60t123.5 32t170.5 8.5q77 0 132.5 -4t105.5 -15.5t82.5 -29t60 -48t43.5 -68.5t26.5 -94t14.5 -121.5t4 -154.5
q0 -118 -7.5 -197.5t-28.5 -142.5t-52.5 -99.5t-86.5 -60.5t-123.5 -32t-170.5 -8zM569 877q-45 0 -71 -1t-53.5 -7.5t-41 -15t-27.5 -29.5t-19.5 -43.5t-10 -65t-5.5 -86.5t-1 -115q0 -66 1 -108.5t5.5 -82t10.5 -61.5t19.5 -42t27.5 -28.5t41 -15t53.5 -7.5t70.5 -1
q60 0 91 2t61.5 16t42 33t22 64.5t12 98t1.5 146.5q0 65 -1 107.5t-6 82.5t-10.5 62.5t-19.5 42.5t-28.5 29t-41 15.5t-53.5 8t-70 1.5zM915 1481l-294 -301h-187l191 301h290z" />
    <glyph glyph-name="ocircumflex" unicode="&#xf4;" horiz-adv-x="1138" 
d="M569 -16q-77 0 -132.5 4t-105.5 15.5t-82.5 29t-60 47.5t-43.5 68t-26.5 94t-14.5 121.5t-4 154.5q0 118 7.5 197.5t28.5 143t52.5 100t86.5 60t123.5 32t170.5 8.5q77 0 132.5 -4t105.5 -15.5t82.5 -29t60 -48t43.5 -68.5t26.5 -94t14.5 -121.5t4 -154.5
q0 -118 -7.5 -197.5t-28.5 -142.5t-52.5 -99.5t-86.5 -60.5t-123.5 -32t-170.5 -8zM569 877q-45 0 -71 -1t-53.5 -7.5t-41 -15t-27.5 -29.5t-19.5 -43.5t-10 -65t-5.5 -86.5t-1 -115q0 -66 1 -108.5t5.5 -82t10.5 -61.5t19.5 -42t27.5 -28.5t41 -15t53.5 -7.5t70.5 -1
q60 0 91 2t61.5 16t42 33t22 64.5t12 98t1.5 146.5q0 65 -1 107.5t-6 82.5t-10.5 62.5t-19.5 42.5t-28.5 29t-41 15.5t-53.5 8t-70 1.5zM455 1481h243l215 -301h-206l-129 184l-132 -184h-208z" />
    <glyph glyph-name="otilde" unicode="&#xf5;" horiz-adv-x="1138" 
d="M569 -16q-77 0 -132.5 4t-105.5 15.5t-82.5 29t-60 47.5t-43.5 68t-26.5 94t-14.5 121.5t-4 154.5q0 118 7.5 197.5t28.5 143t52.5 100t86.5 60t123.5 32t170.5 8.5q77 0 132.5 -4t105.5 -15.5t82.5 -29t60 -48t43.5 -68.5t26.5 -94t14.5 -121.5t4 -154.5
q0 -118 -7.5 -197.5t-28.5 -142.5t-52.5 -99.5t-86.5 -60.5t-123.5 -32t-170.5 -8zM569 877q-45 0 -71 -1t-53.5 -7.5t-41 -15t-27.5 -29.5t-19.5 -43.5t-10 -65t-5.5 -86.5t-1 -115q0 -66 1 -108.5t5.5 -82t10.5 -61.5t19.5 -42t27.5 -28.5t41 -15t53.5 -7.5t70.5 -1
q60 0 91 2t61.5 16t42 33t22 64.5t12 98t1.5 146.5q0 65 -1 107.5t-6 82.5t-10.5 62.5t-19.5 42.5t-28.5 29t-41 15.5t-53.5 8t-70 1.5zM428 1444q59 0 162 -42t137 -42q76 0 94 88h123q-17 -121 -73 -180.5t-144 -59.5q-56 0 -161.5 42t-137.5 42q-76 0 -94 -88h-123
q17 121 73 180.5t144 59.5z" />
    <glyph glyph-name="odieresis" unicode="&#xf6;" horiz-adv-x="1138" 
d="M569 -16q-77 0 -132.5 4t-105.5 15.5t-82.5 29t-60 47.5t-43.5 68t-26.5 94t-14.5 121.5t-4 154.5q0 118 7.5 197.5t28.5 143t52.5 100t86.5 60t123.5 32t170.5 8.5q77 0 132.5 -4t105.5 -15.5t82.5 -29t60 -48t43.5 -68.5t26.5 -94t14.5 -121.5t4 -154.5
q0 -118 -7.5 -197.5t-28.5 -142.5t-52.5 -99.5t-86.5 -60.5t-123.5 -32t-170.5 -8zM569 877q-45 0 -71 -1t-53.5 -7.5t-41 -15t-27.5 -29.5t-19.5 -43.5t-10 -65t-5.5 -86.5t-1 -115q0 -66 1 -108.5t5.5 -82t10.5 -61.5t19.5 -42t27.5 -28.5t41 -15t53.5 -7.5t70.5 -1
q60 0 91 2t61.5 16t42 33t22 64.5t12 98t1.5 146.5q0 65 -1 107.5t-6 82.5t-10.5 62.5t-19.5 42.5t-28.5 29t-41 15.5t-53.5 8t-70 1.5zM647 1204v230h232v-230h-232zM276 1204v230h232v-230h-232z" />
    <glyph glyph-name="divide" unicode="&#xf7;" horiz-adv-x="1366" 
d="M682 772q-71 0 -110.5 41t-39.5 111q0 71 40 110t110 39q72 0 110.5 -38.5t38.5 -110.5q0 -68 -40.5 -110t-108.5 -42zM682 31q-71 0 -110.5 40.5t-39.5 108.5q0 72 40 112t110 40q72 0 110.5 -40t38.5 -112q0 -68 -40 -108.5t-109 -40.5zM125 649h1116v-196h-1116v196z
" />
    <glyph glyph-name="oslash" unicode="&#xf8;" horiz-adv-x="1138" 
d="M569 -16q-152 0 -237.5 18.5t-136.5 69.5l-89 -86l-83 80l112 110q-35 104 -35 342q0 118 7.5 197.5t28.5 143t52.5 100t86.5 60t123.5 32t170.5 8.5q148 0 233.5 -18.5t137.5 -67.5l90 88l82 -84l-111 -109q37 -110 37 -344q0 -118 -7.5 -197.5t-28.5 -142.5
t-52.5 -99.5t-86.5 -60.5t-123.5 -32t-170.5 -8zM799 528v140l-434 -428q17 -45 62 -60.5t142 -15.5q44 0 70.5 1t54 8t41.5 15.5t28 29.5t19.5 44t10 65t5.5 86.5t1 114.5zM569 881q-59 0 -91 -2.5t-61.5 -17.5t-41.5 -34.5t-22 -66t-11.5 -99.5t-1.5 -147v-133l432 426
q-16 45 -60.5 59.5t-142.5 14.5z" />
    <glyph glyph-name="ugrave" unicode="&#xf9;" horiz-adv-x="1150" 
d="M1024 1042v-1042h-233v145q-59 -98 -133 -129.5t-214 -31.5q-178 0 -251.5 81t-73.5 248v729h243v-653q0 -55 4.5 -89.5t16.5 -61.5t35.5 -41t57.5 -20.5t87 -6.5q68 0 111.5 17t66.5 53.5t31 82t8 115.5v604h244zM526 1481l189 -301h-187l-295 301h293z" />
    <glyph glyph-name="uacute" unicode="&#xfa;" horiz-adv-x="1150" 
d="M1024 1042v-1042h-233v145q-59 -98 -133 -129.5t-214 -31.5q-178 0 -251.5 81t-73.5 248v729h243v-653q0 -55 4.5 -89.5t16.5 -61.5t35.5 -41t57.5 -20.5t87 -6.5q68 0 111.5 17t66.5 53.5t31 82t8 115.5v604h244zM913 1481l-295 -301h-186l191 301h290z" />
    <glyph glyph-name="ucircumflex" unicode="&#xfb;" horiz-adv-x="1150" 
d="M1024 1042v-1042h-233v145q-59 -98 -133 -129.5t-214 -31.5q-178 0 -251.5 81t-73.5 248v729h243v-653q0 -55 4.5 -89.5t16.5 -61.5t35.5 -41t57.5 -20.5t87 -6.5q68 0 111.5 17t66.5 53.5t31 82t8 115.5v604h244zM453 1481h243l215 -301h-206l-130 184l-131 -184h-208z
" />
    <glyph glyph-name="udieresis" unicode="&#xfc;" horiz-adv-x="1150" 
d="M1024 1042v-1042h-233v145q-59 -98 -133 -129.5t-214 -31.5q-178 0 -251.5 81t-73.5 248v729h243v-653q0 -55 4.5 -89.5t16.5 -61.5t35.5 -41t57.5 -20.5t87 -6.5q68 0 111.5 17t66.5 53.5t31 82t8 115.5v604h244zM645 1204v230h232v-230h-232zM274 1204v230h232v-230
h-232z" />
    <glyph glyph-name="yacute" unicode="&#xfd;" horiz-adv-x="1052" 
d="M16 1042h256l275 -843l231 843h250l-350 -1167q-44 -155 -128.5 -221t-236.5 -66q-51 0 -80 4v179h39q76 0 120 34t67 113l24 86h-110zM877 1481l-295 -301h-187l191 301h291z" />
    <glyph glyph-name="thorn" unicode="&#xfe;" horiz-adv-x="1144" 
d="M1042 551q0 -119 -8 -204.5t-28 -150t-48.5 -104.5t-75 -64.5t-102.5 -34t-135 -9.5q-106 0 -166 35.5t-106 117.5v-538h-244v1882h244v-574q49 85 118 118.5t179 33.5t180.5 -25.5t114 -87t60.5 -155.5t17 -240zM803 528q0 80 -3 132t-12.5 93.5t-23 63.5t-40 37
t-58.5 19t-82 4q-46 0 -77.5 -6t-56 -22.5t-39 -40t-23.5 -64.5t-12 -91t-3 -123t2.5 -121t10.5 -92t21.5 -69.5t36.5 -45t55.5 -27t78.5 -7.5q53 0 83.5 3t59 16.5t42 35t24 64t13.5 98.5t3 143z" />
    <glyph glyph-name="ydieresis" unicode="&#xff;" horiz-adv-x="1052" 
d="M16 1042h256l275 -843l231 843h250l-350 -1167q-44 -155 -128.5 -221t-236.5 -66q-51 0 -80 4v179h39q76 0 120 34t67 113l24 86h-110zM608 1204v230h232v-230h-232zM238 1204v230h231v-230h-231z" />
    <glyph glyph-name="Amacron" unicode="&#x100;" horiz-adv-x="1476" 
d="M522 1481h439l485 -1481h-291l-106 326h-619l-106 -326h-291zM492 535h495l-225 737h-41zM401 1663v141h682v-141h-682z" />
    <glyph glyph-name="amacron" unicode="&#x101;" horiz-adv-x="1144" 
d="M793 0v117q-62 -74 -131.5 -103.5t-196.5 -29.5q-206 0 -292.5 72t-86.5 257q0 189 81 262.5t294 73.5q147 0 213 -24t110 -93v168q0 63 -8 99t-32.5 60t-65.5 32t-111 8q-123 0 -161.5 -23.5t-38.5 -93.5h-234q-2 23 -2 43q0 64 18.5 106t67.5 72t133.5 43t216.5 13
q137 0 226 -19t139.5 -61t70 -100t19.5 -146v-733h-229zM557 492q-63 0 -102 -5t-66 -15t-39.5 -31.5t-17 -48.5t-4.5 -73q0 -68 18 -101.5t66 -47.5t145 -14q74 0 119 8.5t68.5 30.5t31.5 49.5t8 74.5q0 52 -7 81t-30.5 52t-68.5 31.5t-121 8.5zM238 1249v142h682v-142
h-682z" />
    <glyph glyph-name="Abreve" unicode="&#x102;" horiz-adv-x="1476" 
d="M522 1481h439l485 -1481h-291l-106 326h-619l-106 -326h-291zM492 535h495l-225 737h-41zM408 1894h122q30 -151 215 -151q183 0 213 151h119q-10 -139 -99.5 -217t-238.5 -78q-153 0 -239 77t-92 218z" />
    <glyph glyph-name="abreve" unicode="&#x103;" horiz-adv-x="1144" 
d="M793 0v117q-62 -74 -131.5 -103.5t-196.5 -29.5q-206 0 -292.5 72t-86.5 257q0 189 81 262.5t294 73.5q147 0 213 -24t110 -93v168q0 63 -8 99t-32.5 60t-65.5 32t-111 8q-123 0 -161.5 -23.5t-38.5 -93.5h-234q-2 23 -2 43q0 64 18.5 106t67.5 72t133.5 43t216.5 13
q137 0 226 -19t139.5 -61t70 -100t19.5 -146v-733h-229zM557 492q-63 0 -102 -5t-66 -15t-39.5 -31.5t-17 -48.5t-4.5 -73q0 -68 18 -101.5t66 -47.5t145 -14q74 0 119 8.5t68.5 30.5t31.5 49.5t8 74.5q0 52 -7 81t-30.5 52t-68.5 31.5t-121 8.5zM244 1481h123
q30 -152 215 -152q183 0 213 152h118q-10 -139 -99.5 -217t-238.5 -78q-153 0 -239 77t-92 218z" />
    <glyph glyph-name="Aogonek" unicode="&#x104;" horiz-adv-x="1476" 
d="M522 1481h439l485 -1481h-125q-156 -101 -156 -197q0 -44 27.5 -71t79.5 -27q45 0 100 14v-125q-54 -16 -125 -16q-115 0 -176 52.5t-61 142.5q0 132 145 227l-106 326h-619l-106 -326h-291zM492 535h495l-225 737h-41z" />
    <glyph glyph-name="aogonek" unicode="&#x105;" horiz-adv-x="1144" 
d="M797 0v119q-63 -76 -133 -105.5t-199 -29.5q-206 0 -292.5 72t-86.5 257q0 189 81 262.5t294 73.5q147 0 213 -24t110 -93v168q0 63 -8 99t-32.5 60t-65.5 32t-111 8q-123 0 -161.5 -23.5t-38.5 -93.5h-234q-2 23 -2 43q0 64 18.5 106t67.5 72t133.5 43t216.5 13
q137 0 226 -19t139.5 -61t70 -100t19.5 -146v-733h-59q-146 -102 -146 -197q0 -44 27.5 -71t79.5 -27q45 0 100 14v-125q-54 -16 -125 -16q-115 0 -176 52.5t-61 142.5q0 133 135 227zM557 492q-63 0 -102 -5t-66 -15t-39.5 -31.5t-17 -48.5t-4.5 -73q0 -68 18 -101.5
t66 -47.5t145 -14q74 0 119 8.5t68.5 30.5t31.5 49.5t8 74.5q0 52 -7 81t-30.5 52t-68.5 31.5t-121 8.5z" />
    <glyph glyph-name="Cacute" unicode="&#x106;" horiz-adv-x="1458" 
d="M1329 973h-268v51q0 62 -7.5 99.5t-26.5 66t-58.5 42t-94 19.5t-143.5 6q-76 0 -123.5 -4t-85.5 -18.5t-57.5 -35t-32.5 -61.5t-16.5 -88.5t-3.5 -125.5v-349q0 -79 4.5 -130.5t18.5 -93.5t35.5 -64.5t60 -38t86 -20.5t120.5 -5q77 0 125.5 3t88.5 13t60.5 25t35 45
t18.5 66t4 94v68h272v-64q0 -101 -12 -173.5t-41.5 -128.5t-73 -91t-113.5 -57t-156.5 -30.5t-207.5 -8.5q-178 0 -292 27.5t-185 96t-99 173.5t-28 270v395q0 153 27 253t95 169t183.5 99t294.5 30q127 0 217.5 -9.5t158 -33.5t109 -58.5t67 -91t35 -124t9.5 -164.5v-43z
M1083 1894l-295 -301h-186l191 301h290z" />
    <glyph glyph-name="cacute" unicode="&#x107;" horiz-adv-x="1124" 
d="M1024 684h-229v21q0 103 -42.5 136t-177.5 33q-58 0 -89.5 -2.5t-61.5 -15.5t-42.5 -32t-23 -61.5t-12.5 -94t-2 -138.5q0 -67 1 -111.5t6.5 -85t11.5 -64.5t20.5 -44t29.5 -29.5t42.5 -16t55 -8t71.5 -1.5q60 0 98 6.5t63 18.5t36.5 38.5t15.5 57.5t4 84v20h231
q2 -16 2 -37q0 -143 -41.5 -222.5t-139.5 -115.5t-276 -36q-103 0 -173.5 8.5t-126 33.5t-87.5 62t-53 101.5t-28 144t-7 196.5q0 112 8.5 190t30.5 139.5t56 98t90.5 60.5t127.5 32.5t173 8.5q110 0 186.5 -13t126.5 -37.5t78 -68t38.5 -95.5t10.5 -128q0 -19 -2 -33z
M920 1481l-295 -301h-187l191 301h291z" />
    <glyph glyph-name="Ccircumflex" unicode="&#x108;" horiz-adv-x="1458" 
d="M1329 973h-268v51q0 62 -7.5 99.5t-26.5 66t-58.5 42t-94 19.5t-143.5 6q-76 0 -123.5 -4t-85.5 -18.5t-57.5 -35t-32.5 -61.5t-16.5 -88.5t-3.5 -125.5v-349q0 -79 4.5 -130.5t18.5 -93.5t35.5 -64.5t60 -38t86 -20.5t120.5 -5q77 0 125.5 3t88.5 13t60.5 25t35 45
t18.5 66t4 94v68h272v-64q0 -101 -12 -173.5t-41.5 -128.5t-73 -91t-113.5 -57t-156.5 -30.5t-207.5 -8.5q-178 0 -292 27.5t-185 96t-99 173.5t-28 270v395q0 153 27 253t95 169t183.5 99t294.5 30q127 0 217.5 -9.5t158 -33.5t109 -58.5t67 -91t35 -124t9.5 -164.5v-43z
M623 1894h243l215 -301h-207l-129 185l-131 -185h-208z" />
    <glyph glyph-name="ccircumflex" unicode="&#x109;" horiz-adv-x="1124" 
d="M1024 684h-229v21q0 103 -42.5 136t-177.5 33q-58 0 -89.5 -2.5t-61.5 -15.5t-42.5 -32t-23 -61.5t-12.5 -94t-2 -138.5q0 -67 1 -111.5t6.5 -85t11.5 -64.5t20.5 -44t29.5 -29.5t42.5 -16t55 -8t71.5 -1.5q60 0 98 6.5t63 18.5t36.5 38.5t15.5 57.5t4 84v20h231
q2 -16 2 -37q0 -143 -41.5 -222.5t-139.5 -115.5t-276 -36q-103 0 -173.5 8.5t-126 33.5t-87.5 62t-53 101.5t-28 144t-7 196.5q0 112 8.5 190t30.5 139.5t56 98t90.5 60.5t127.5 32.5t173 8.5q110 0 186.5 -13t126.5 -37.5t78 -68t38.5 -95.5t10.5 -128q0 -19 -2 -33z
M459 1481h243l216 -301h-207l-129 184l-131 -184h-209z" />
    <glyph glyph-name="Cdotaccent" unicode="&#x10a;" horiz-adv-x="1458" 
d="M1329 973h-268v51q0 62 -7.5 99.5t-26.5 66t-58.5 42t-94 19.5t-143.5 6q-76 0 -123.5 -4t-85.5 -18.5t-57.5 -35t-32.5 -61.5t-16.5 -88.5t-3.5 -125.5v-349q0 -79 4.5 -130.5t18.5 -93.5t35.5 -64.5t60 -38t86 -20.5t120.5 -5q77 0 125.5 3t88.5 13t60.5 25t35 45
t18.5 66t4 94v68h272v-64q0 -101 -12 -173.5t-41.5 -128.5t-73 -91t-113.5 -57t-156.5 -30.5t-207.5 -8.5q-178 0 -292 27.5t-185 96t-99 173.5t-28 270v395q0 153 27 253t95 169t183.5 99t294.5 30q127 0 217.5 -9.5t158 -33.5t109 -58.5t67 -91t35 -124t9.5 -164.5v-43z
M870 1636h-243v209h243v-209z" />
    <glyph glyph-name="cdotaccent" unicode="&#x10b;" horiz-adv-x="1124" 
d="M1024 684h-229v21q0 103 -42.5 136t-177.5 33q-58 0 -89.5 -2.5t-61.5 -15.5t-42.5 -32t-23 -61.5t-12.5 -94t-2 -138.5q0 -67 1 -111.5t6.5 -85t11.5 -64.5t20.5 -44t29.5 -29.5t42.5 -16t55 -8t71.5 -1.5q60 0 98 6.5t63 18.5t36.5 38.5t15.5 57.5t4 84v20h231
q2 -16 2 -37q0 -143 -41.5 -222.5t-139.5 -115.5t-276 -36q-103 0 -173.5 8.5t-126 33.5t-87.5 62t-53 101.5t-28 144t-7 196.5q0 112 8.5 190t30.5 139.5t56 98t90.5 60.5t127.5 32.5t173 8.5q110 0 186.5 -13t126.5 -37.5t78 -68t38.5 -95.5t10.5 -128q0 -19 -2 -33z
M705 1223h-244v209h244v-209z" />
    <glyph glyph-name="Ccaron" unicode="&#x10c;" horiz-adv-x="1458" 
d="M1329 973h-268v51q0 62 -7.5 99.5t-26.5 66t-58.5 42t-94 19.5t-143.5 6q-76 0 -123.5 -4t-85.5 -18.5t-57.5 -35t-32.5 -61.5t-16.5 -88.5t-3.5 -125.5v-349q0 -79 4.5 -130.5t18.5 -93.5t35.5 -64.5t60 -38t86 -20.5t120.5 -5q77 0 125.5 3t88.5 13t60.5 25t35 45
t18.5 66t4 94v68h272v-64q0 -101 -12 -173.5t-41.5 -128.5t-73 -91t-113.5 -57t-156.5 -30.5t-207.5 -8.5q-178 0 -292 27.5t-185 96t-99 173.5t-28 270v395q0 153 27 253t95 169t183.5 99t294.5 30q127 0 217.5 -9.5t158 -33.5t109 -58.5t67 -91t35 -124t9.5 -164.5v-43z
M864 1593h-243l-215 301h206l129 -184l131 184h209z" />
    <glyph glyph-name="ccaron" unicode="&#x10d;" horiz-adv-x="1124" 
d="M1024 684h-229v21q0 103 -42.5 136t-177.5 33q-58 0 -89.5 -2.5t-61.5 -15.5t-42.5 -32t-23 -61.5t-12.5 -94t-2 -138.5q0 -67 1 -111.5t6.5 -85t11.5 -64.5t20.5 -44t29.5 -29.5t42.5 -16t55 -8t71.5 -1.5q60 0 98 6.5t63 18.5t36.5 38.5t15.5 57.5t4 84v20h231
q2 -16 2 -37q0 -143 -41.5 -222.5t-139.5 -115.5t-276 -36q-103 0 -173.5 8.5t-126 33.5t-87.5 62t-53 101.5t-28 144t-7 196.5q0 112 8.5 190t30.5 139.5t56 98t90.5 60.5t127.5 32.5t173 8.5q110 0 186.5 -13t126.5 -37.5t78 -68t38.5 -95.5t10.5 -128q0 -19 -2 -33z
M700 1180h-243l-215 301h207l129 -185l131 185h209z" />
    <glyph glyph-name="Dcaron" unicode="&#x10e;" horiz-adv-x="1591" 
d="M164 0v1481h717q116 0 199.5 -13.5t150 -47t108.5 -85t69.5 -134t38.5 -187.5t11 -250q0 -162 -9.5 -271.5t-36.5 -199.5t-69.5 -142.5t-115.5 -88.5t-168 -49t-232 -13h-663zM442 1243v-1003h424q56 0 92 2.5t71.5 12t56 24t39.5 43.5t28 64.5t16 93t9 123.5t2 161
q0 111 -4 181.5t-19 128t-36 87.5t-62 50t-91 26t-128 6h-398zM860 1593h-244l-215 301h207l129 -184l131 184h209z" />
    <glyph glyph-name="dcaron" unicode="&#x10f;" horiz-adv-x="1146" 
d="M770 915v566h244v-1481h-234v156q-48 -101 -109.5 -136.5t-174.5 -35.5q-84 0 -141.5 9t-104.5 34t-74 64.5t-46 107t-25.5 153.5t-6.5 211q0 188 38 295.5t118 154t219 46.5q119 0 187 -32t110 -112zM543 877q-43 0 -71.5 -4.5t-53.5 -18t-38.5 -36t-24 -62.5t-14 -93
t-3.5 -131q0 -88 3 -144.5t13.5 -99.5t23.5 -65t40.5 -35.5t56.5 -16.5t80 -3q55 0 92 12t62 36t38 69.5t18 101.5t5 143q0 143 -20 215.5t-67 102t-140 29.5zM1393 1481l-129 -373h-152l45 373h236z" />
    <glyph glyph-name="Dcroat" unicode="&#x110;" horiz-adv-x="1591" 
d="M164 0v672h-162v170h162v639h717q116 0 199.5 -13.5t150 -47t108.5 -85t69.5 -134t38.5 -187.5t11 -250q0 -162 -9.5 -271.5t-36.5 -199.5t-69.5 -142.5t-115.5 -88.5t-168 -49t-232 -13h-663zM442 1243v-401h369v-170h-369v-432h424q56 0 92 2.5t71.5 12t56 24
t39.5 43.5t28 64.5t16 93t9 123.5t2 161q0 111 -4 181.5t-19 128t-36 87.5t-62 50t-91 26t-128 6h-398z" />
    <glyph glyph-name="dcroat" unicode="&#x111;" horiz-adv-x="1146" 
d="M774 915v252h-321v133h321v181h244v-181h129v-133h-129v-1167h-234v156q-48 -101 -109.5 -136.5t-174.5 -35.5q-84 0 -141.5 9t-104.5 34t-74 64.5t-46 107t-25.5 153.5t-6.5 211q0 188 38 295.5t118 154t219 46.5q119 0 187 -32t110 -112zM547 877q-43 0 -71.5 -4.5
t-53.5 -18t-38.5 -36t-24 -62.5t-14 -93t-3.5 -131q0 -88 3 -144.5t13.5 -99.5t23.5 -65t40.5 -35.5t56.5 -16.5t80 -3q55 0 92 12t62 36t38 69.5t18 101.5t5 143q0 143 -20 215.5t-67 102t-140 29.5z" />
    <glyph glyph-name="Emacron" unicode="&#x112;" horiz-adv-x="1368" 
d="M164 0v1481h1087v-232h-809v-377h781v-219h-781v-417h813v-236h-1091zM360 1663v141h682v-141h-682z" />
    <glyph glyph-name="emacron" unicode="&#x113;" horiz-adv-x="1142" 
d="M813 305h229v-31q0 -105 -40 -166.5t-141.5 -92.5t-280.5 -31q-119 0 -197.5 15t-136 49.5t-88.5 98t-44.5 151t-13.5 218.5q0 112 8.5 192t31 142.5t56.5 101t89.5 63.5t125.5 34.5t169 9.5q100 0 172 -9.5t125 -32.5t85.5 -56t52.5 -86t27 -114.5t7 -150.5
q0 -84 -5 -137h-706v-80q0 -131 52.5 -183t191.5 -52q96 0 145 14t67.5 44t18.5 89zM338 627h477v41q0 58 -5 93.5t-18.5 63.5t-41 41.5t-67.5 20t-103 6.5q-77 0 -121.5 -8.5t-73 -35t-38 -68.5t-9.5 -115v-39zM244 1249v142h682v-142h-682z" />
    <glyph glyph-name="Ebreve" unicode="&#x114;" horiz-adv-x="1368" 
d="M164 0v1481h1087v-232h-809v-377h781v-219h-781v-417h813v-236h-1091zM367 1894h122q30 -151 216 -151q183 0 213 151h118q-10 -139 -99.5 -217t-238.5 -78q-153 0 -239 77t-92 218z" />
    <glyph glyph-name="ebreve" unicode="&#x115;" horiz-adv-x="1142" 
d="M813 305h229v-31q0 -105 -40 -166.5t-141.5 -92.5t-280.5 -31q-119 0 -197.5 15t-136 49.5t-88.5 98t-44.5 151t-13.5 218.5q0 112 8.5 192t31 142.5t56.5 101t89.5 63.5t125.5 34.5t169 9.5q100 0 172 -9.5t125 -32.5t85.5 -56t52.5 -86t27 -114.5t7 -150.5
q0 -84 -5 -137h-706v-80q0 -131 52.5 -183t191.5 -52q96 0 145 14t67.5 44t18.5 89zM338 627h477v41q0 58 -5 93.5t-18.5 63.5t-41 41.5t-67.5 20t-103 6.5q-77 0 -121.5 -8.5t-73 -35t-38 -68.5t-9.5 -115v-39zM250 1481h123q30 -152 215 -152q183 0 213 152h119
q-10 -139 -99.5 -217t-238.5 -78q-153 0 -239.5 77t-92.5 218z" />
    <glyph glyph-name="Edotaccent" unicode="&#x116;" horiz-adv-x="1368" 
d="M164 0v1481h1087v-232h-809v-377h781v-219h-781v-417h813v-236h-1091zM821 1636h-243v209h243v-209z" />
    <glyph glyph-name="edotaccent" unicode="&#x117;" horiz-adv-x="1142" 
d="M813 305h229v-31q0 -105 -40 -166.5t-141.5 -92.5t-280.5 -31q-119 0 -197.5 15t-136 49.5t-88.5 98t-44.5 151t-13.5 218.5q0 112 8.5 192t31 142.5t56.5 101t89.5 63.5t125.5 34.5t169 9.5q100 0 172 -9.5t125 -32.5t85.5 -56t52.5 -86t27 -114.5t7 -150.5
q0 -84 -5 -137h-706v-80q0 -131 52.5 -183t191.5 -52q96 0 145 14t67.5 44t18.5 89zM338 627h477v41q0 58 -5 93.5t-18.5 63.5t-41 41.5t-67.5 20t-103 6.5q-77 0 -121.5 -8.5t-73 -35t-38 -68.5t-9.5 -115v-39zM707 1223h-244v209h244v-209z" />
    <glyph glyph-name="Eogonek" unicode="&#x118;" horiz-adv-x="1368" 
d="M166 0v1481h1087v-232h-809v-377h781v-219h-781v-417h813v-236h-122q-156 -101 -156 -197q0 -45 27 -71.5t79 -26.5q46 0 101 14v-125q-54 -16 -125 -16q-115 0 -176.5 52.5t-61.5 142.5q0 132 148 227h-805z" />
    <glyph glyph-name="eogonek" unicode="&#x119;" horiz-adv-x="1142" 
d="M813 305h229v-31q0 -134 -70 -200.5t-249 -83.5q-79 -50 -109 -95t-30 -92q0 -45 27 -71.5t79 -26.5q46 0 101 14v-125q-54 -16 -125 -16q-115 0 -176.5 52.5t-61.5 142.5q0 125 123 211q-111 2 -185.5 18.5t-128 51.5t-82.5 98.5t-42 149.5t-13 214q0 112 8.5 192
t31 142.5t56.5 101t89.5 63.5t125.5 34.5t169 9.5q100 0 172 -9.5t125 -32.5t85.5 -56t52.5 -86t27 -114.5t7 -150.5q0 -84 -5 -137h-706v-80q0 -131 52.5 -183t191.5 -52q96 0 145 14t67.5 44t18.5 89zM338 627h477v41q0 58 -5 93.5t-18.5 63.5t-41 41.5t-67.5 20t-103 6.5
q-77 0 -121.5 -8.5t-73 -35t-38 -68.5t-9.5 -115v-39z" />
    <glyph glyph-name="Ecaron" unicode="&#x11a;" horiz-adv-x="1368" 
d="M164 0v1481h1087v-232h-809v-377h781v-219h-781v-417h813v-236h-1091zM819 1593h-244l-215 301h207l129 -184l131 184h209z" />
    <glyph glyph-name="ecaron" unicode="&#x11b;" horiz-adv-x="1142" 
d="M813 305h229v-31q0 -105 -40 -166.5t-141.5 -92.5t-280.5 -31q-119 0 -197.5 15t-136 49.5t-88.5 98t-44.5 151t-13.5 218.5q0 112 8.5 192t31 142.5t56.5 101t89.5 63.5t125.5 34.5t169 9.5q100 0 172 -9.5t125 -32.5t85.5 -56t52.5 -86t27 -114.5t7 -150.5
q0 -84 -5 -137h-706v-80q0 -131 52.5 -183t191.5 -52q96 0 145 14t67.5 44t18.5 89zM338 627h477v41q0 58 -5 93.5t-18.5 63.5t-41 41.5t-67.5 20t-103 6.5q-77 0 -121.5 -8.5t-73 -35t-38 -68.5t-9.5 -115v-39zM702 1180h-243l-215 301h207l129 -185l131 185h209z" />
    <glyph glyph-name="Gcircumflex" unicode="&#x11c;" horiz-adv-x="1576" 
d="M1180 563h-332v209h598q2 -47 2 -117v-182q0 -101 -11.5 -173t-40 -128t-71.5 -91t-112 -57.5t-155 -31t-206 -8.5h-115q-178 0 -292 27.5t-185 96t-99 173.5t-28 270v395q0 153 27 253t95 169t183.5 99t294.5 30h115q124 0 213.5 -9.5t156.5 -34t108.5 -59.5t67 -91.5
t35 -124t9.5 -164.5h-269q0 56 -4 92t-18 66t-34.5 45.5t-59 26.5t-86.5 14.5t-121 3.5h-115q-75 0 -123 -4.5t-86 -19.5t-57.5 -36t-32.5 -62.5t-16.5 -89.5t-3.5 -126v-349q0 -79 4.5 -131t18.5 -94.5t35.5 -66t60 -39t86.5 -20.5t120 -5h115q75 0 124 3.5t88 14.5t60 27
t34.5 46t17.5 66t4 93v94zM676 1894h244l215 -301h-207l-129 185l-131 -185h-209z" />
    <glyph glyph-name="gcircumflex" unicode="&#x11d;" horiz-adv-x="1144" 
d="M774 16v146q-45 -83 -106 -117.5t-168 -34.5q-81 0 -138 9.5t-103 34t-74.5 63t-48 101t-27 143.5t-7.5 194q0 190 38 299.5t118.5 157t218.5 47.5q124 0 193.5 -32.5t111.5 -113.5v129h236v-999q0 -128 -19 -209.5t-69.5 -139t-138 -82t-224.5 -24.5q-222 0 -323 57.5
t-101 202.5q0 32 2 48h228q0 -70 39.5 -98.5t154.5 -28.5q46 0 77 4t55.5 15.5t38 27.5t22 46t11.5 65t3 89zM547 877q-43 0 -71 -4.5t-53 -17.5t-39 -35.5t-24 -60.5t-14 -89t-4 -125q0 -82 3.5 -137t14.5 -96t25 -64.5t40.5 -37.5t56.5 -18t77 -4q68 0 109.5 17.5t65.5 62
t32 107.5t8 168q0 137 -20 207t-67 98.5t-140 28.5zM467 1481h244l215 -301h-207l-129 184l-131 -184h-209z" />
    <glyph glyph-name="Gbreve" unicode="&#x11e;" horiz-adv-x="1576" 
d="M1180 563h-332v209h598q2 -47 2 -117v-182q0 -101 -11.5 -173t-40 -128t-71.5 -91t-112 -57.5t-155 -31t-206 -8.5h-115q-178 0 -292 27.5t-185 96t-99 173.5t-28 270v395q0 153 27 253t95 169t183.5 99t294.5 30h115q124 0 213.5 -9.5t156.5 -34t108.5 -59.5t67 -91.5
t35 -124t9.5 -164.5h-269q0 56 -4 92t-18 66t-34.5 45.5t-59 26.5t-86.5 14.5t-121 3.5h-115q-75 0 -123 -4.5t-86 -19.5t-57.5 -36t-32.5 -62.5t-16.5 -89.5t-3.5 -126v-349q0 -79 4.5 -131t18.5 -94.5t35.5 -66t60 -39t86.5 -20.5t120 -5h115q75 0 124 3.5t88 14.5t60 27
t34.5 46t17.5 66t4 93v94zM465 1894h123q30 -151 215 -151q183 0 213 151h119q-10 -139 -99.5 -217t-238.5 -78q-153 0 -239.5 77t-92.5 218z" />
    <glyph glyph-name="gbreve" unicode="&#x11f;" horiz-adv-x="1144" 
d="M774 16v146q-45 -83 -106 -117.5t-168 -34.5q-81 0 -138 9.5t-103 34t-74.5 63t-48 101t-27 143.5t-7.5 194q0 190 38 299.5t118.5 157t218.5 47.5q124 0 193.5 -32.5t111.5 -113.5v129h236v-999q0 -128 -19 -209.5t-69.5 -139t-138 -82t-224.5 -24.5q-222 0 -323 57.5
t-101 202.5q0 32 2 48h228q0 -70 39.5 -98.5t154.5 -28.5q46 0 77 4t55.5 15.5t38 27.5t22 46t11.5 65t3 89zM547 877q-43 0 -71 -4.5t-53 -17.5t-39 -35.5t-24 -60.5t-14 -89t-4 -125q0 -82 3.5 -137t14.5 -96t25 -64.5t40.5 -37.5t56.5 -18t77 -4q68 0 109.5 17.5t65.5 62
t32 107.5t8 168q0 137 -20 207t-67 98.5t-140 28.5zM256 1481h123q30 -152 215 -152q183 0 213 152h119q-10 -139 -99.5 -217t-238.5 -78q-153 0 -239.5 77t-92.5 218z" />
    <glyph glyph-name="Gdotaccent" unicode="&#x120;" horiz-adv-x="1576" 
d="M1180 563h-332v209h598q2 -47 2 -117v-182q0 -101 -11.5 -173t-40 -128t-71.5 -91t-112 -57.5t-155 -31t-206 -8.5h-115q-178 0 -292 27.5t-185 96t-99 173.5t-28 270v395q0 153 27 253t95 169t183.5 99t294.5 30h115q124 0 213.5 -9.5t156.5 -34t108.5 -59.5t67 -91.5
t35 -124t9.5 -164.5h-269q0 56 -4 92t-18 66t-34.5 45.5t-59 26.5t-86.5 14.5t-121 3.5h-115q-75 0 -123 -4.5t-86 -19.5t-57.5 -36t-32.5 -62.5t-16.5 -89.5t-3.5 -126v-349q0 -79 4.5 -131t18.5 -94.5t35.5 -66t60 -39t86.5 -20.5t120 -5h115q75 0 124 3.5t88 14.5t60 27
t34.5 46t17.5 66t4 93v94zM922 1636h-244v209h244v-209z" />
    <glyph glyph-name="gdotaccent" unicode="&#x121;" horiz-adv-x="1144" 
d="M774 16v146q-45 -83 -106 -117.5t-168 -34.5q-81 0 -138 9.5t-103 34t-74.5 63t-48 101t-27 143.5t-7.5 194q0 190 38 299.5t118.5 157t218.5 47.5q124 0 193.5 -32.5t111.5 -113.5v129h236v-999q0 -128 -19 -209.5t-69.5 -139t-138 -82t-224.5 -24.5q-222 0 -323 57.5
t-101 202.5q0 32 2 48h228q0 -70 39.5 -98.5t154.5 -28.5q46 0 77 4t55.5 15.5t38 27.5t22 46t11.5 65t3 89zM547 877q-43 0 -71 -4.5t-53 -17.5t-39 -35.5t-24 -60.5t-14 -89t-4 -125q0 -82 3.5 -137t14.5 -96t25 -64.5t40.5 -37.5t56.5 -18t77 -4q68 0 109.5 17.5t65.5 62
t32 107.5t8 168q0 137 -20 207t-67 98.5t-140 28.5zM713 1223h-244v209h244v-209z" />
    <glyph glyph-name="Gcommaaccent" unicode="&#x122;" horiz-adv-x="1576" 
d="M1180 563h-332v209h598q2 -47 2 -117v-182q0 -101 -11.5 -173t-40 -128t-71.5 -91t-112 -57.5t-155 -31t-206 -8.5h-115q-178 0 -292 27.5t-185 96t-99 173.5t-28 270v395q0 153 27 253t95 169t183.5 99t294.5 30h115q124 0 213.5 -9.5t156.5 -34t108.5 -59.5t67 -91.5
t35 -124t9.5 -164.5h-269q0 56 -4 92t-18 66t-34.5 45.5t-59 26.5t-86.5 14.5t-121 3.5h-115q-75 0 -123 -4.5t-86 -19.5t-57.5 -36t-32.5 -62.5t-16.5 -89.5t-3.5 -126v-349q0 -79 4.5 -131t18.5 -94.5t35.5 -66t60 -39t86.5 -20.5t120 -5h115q75 0 124 3.5t88 14.5t60 27
t34.5 46t17.5 66t4 93v94zM934 -104l-152 -308h-168l78 308h242z" />
    <glyph glyph-name="gcommaaccent" unicode="&#x123;" horiz-adv-x="1144" 
d="M774 16v146q-45 -83 -106 -117.5t-168 -34.5q-81 0 -138 9.5t-103 34t-74.5 63t-48 101t-27 143.5t-7.5 194q0 190 38 299.5t118.5 157t218.5 47.5q124 0 193.5 -32.5t111.5 -113.5v129h236v-999q0 -128 -19 -209.5t-69.5 -139t-138 -82t-224.5 -24.5q-222 0 -323 57.5
t-101 202.5q0 32 2 48h228q0 -70 39.5 -98.5t154.5 -28.5q46 0 77 4t55.5 15.5t38 27.5t22 46t11.5 65t3 89zM547 877q-43 0 -71 -4.5t-53 -17.5t-39 -35.5t-24 -60.5t-14 -89t-4 -125q0 -82 3.5 -137t14.5 -96t25 -64.5t40.5 -37.5t56.5 -18t77 -4q68 0 109.5 17.5t65.5 62
t32 107.5t8 168q0 137 -20 207t-67 98.5t-140 28.5zM451 1180l151 301h162l-82 -301h-231z" />
    <glyph glyph-name="Hcircumflex" unicode="&#x124;" horiz-adv-x="1587" 
d="M1145 881v600h278v-1481h-278v639h-703v-639h-278v1481h278v-600h703zM674 1894h244l215 -301h-207l-129 185l-131 -185h-209z" />
    <glyph glyph-name="hcircumflex" unicode="&#x125;" horiz-adv-x="1157" 
d="M129 0v1481h244v-584q58 95 128 128.5t208 33.5q178 0 251.5 -81.5t73.5 -248.5v-729h-243v655q0 55 -4.5 89.5t-16.5 61.5t-35.5 41t-57.5 20.5t-87 6.5q-124 0 -170.5 -59t-46.5 -184v-631h-244zM412 1894h243l215 -301h-206l-129 185l-132 -185h-208z" />
    <glyph glyph-name="Hbar" unicode="&#x126;" horiz-adv-x="1587" 
d="M442 1481v-248h703v248h278v-1481h-278v582h-703v-582h-278v1481h278zM442 811h703v256h-703v-256z" />
    <glyph glyph-name="hbar" unicode="&#x127;" horiz-adv-x="1157" 
d="M129 0v1167h-129v133h129v181h244v-181h321v-133h-321v-270q58 95 128 128.5t208 33.5q178 0 251.5 -81.5t73.5 -248.5v-729h-243v655q0 55 -4.5 89.5t-16.5 61.5t-35.5 41t-57.5 20.5t-87 6.5q-124 0 -170.5 -59t-46.5 -184v-631h-244z" />
    <glyph glyph-name="Itilde" unicode="&#x128;" horiz-adv-x="614" 
d="M168 1481h278v-1481h-278v1481zM162 1858q59 0 162 -42t137 -42q76 0 94 88h123q-17 -121 -73 -180.5t-144 -59.5q-56 0 -161.5 42t-137.5 42q-76 0 -94 -88h-123q17 121 73 180.5t144 59.5z" />
    <glyph glyph-name="itilde" unicode="&#x129;" horiz-adv-x="505" 
d="M131 0v1042h244v-1042h-244zM109 1444q59 0 162 -42t137 -42q76 0 94 88h123q-17 -121 -73 -180.5t-144 -59.5q-56 0 -161.5 42t-137.5 42q-77 0 -95 -88h-123q17 120 73.5 180t144.5 60z" />
    <glyph glyph-name="Imacron" unicode="&#x12a;" horiz-adv-x="614" 
d="M168 1481h278v-1481h-278v1481zM-29 1663v141h682v-141h-682z" />
    <glyph glyph-name="imacron" unicode="&#x12b;" horiz-adv-x="505" 
d="M131 0v1042h244v-1042h-244zM-82 1249v142h682v-142h-682z" />
    <glyph glyph-name="Iogonek" unicode="&#x12e;" horiz-adv-x="614" 
d="M254 0h-84v1481h279v-1481h-31q-156 -101 -156 -197q0 -44 27.5 -71t79.5 -27q45 0 100 14v-125q-54 -16 -125 -16q-115 0 -176.5 52.5t-61.5 142.5q0 132 148 227z" />
    <glyph glyph-name="iogonek" unicode="&#x12f;" horiz-adv-x="505" 
d="M131 0v1042h244v-1042h-19q-155 -101 -155 -197q0 -45 27 -71.5t79 -26.5q46 0 101 14v-125q-54 -16 -125 -16q-115 0 -176.5 52.5t-61.5 142.5q0 132 148 227h-62zM375 1272h-244v209h244v-209z" />
    <glyph glyph-name="Idotaccent" unicode="&#x130;" horiz-adv-x="614" 
d="M168 1481h278v-1481h-278v1481zM430 1636h-244v209h244v-209z" />
    <glyph glyph-name="dotlessi" unicode="&#x131;" horiz-adv-x="505" 
d="M131 0v1042h244v-1042h-244z" />
    <glyph glyph-name="Jcircumflex" unicode="&#x134;" horiz-adv-x="1255" 
d="M82 584h260v-111q0 -58 2 -91t11 -66t24.5 -48.5t44.5 -28t69 -16.5t101 -4q75 0 117.5 8t70.5 33t37.5 66.5t9.5 113.5v1041h279v-1018q0 -143 -26.5 -234.5t-90.5 -146t-157.5 -75.5t-239.5 -21q-154 0 -251 21.5t-157.5 76t-84 138t-23.5 216.5q0 99 4 146zM838 1894
h243l215 -301h-206l-129 185l-132 -185h-208z" />
    <glyph glyph-name="jcircumflex" unicode="&#x135;" horiz-adv-x="505" 
d="M12 -408v179h27q53 0 72.5 25.5t19.5 92.5v1153h244v-1153q0 -156 -66 -228.5t-219 -72.5q-57 0 -78 4zM133 1481h244l215 -301h-207l-129 184l-131 -184h-209z" />
    <glyph glyph-name="Kcommaaccent" unicode="&#x136;" horiz-adv-x="1409" 
d="M164 0v1481h278v-600h95l493 600h336l-600 -707l668 -774h-353l-549 649h-90v-649h-278zM862 -104l-151 -308h-168l78 308h241z" />
    <glyph glyph-name="kcommaaccent" unicode="&#x137;" horiz-adv-x="1026" 
d="M129 0v1481h244v-844h41l284 405h283l-363 -487l426 -555h-299l-333 465h-39v-465h-244zM678 -104l-152 -308h-168l78 308h242z" />
    <glyph glyph-name="Lacute" unicode="&#x139;" horiz-adv-x="1247" 
d="M164 0v1481h278v-1235h768v-246h-1046zM659 1894l-294 -301h-187l191 301h290z" />
    <glyph glyph-name="lacute" unicode="&#x13a;" horiz-adv-x="505" 
d="M131 0v1481h244v-1481h-244zM600 1894l-295 -301h-186l190 301h291z" />
    <glyph glyph-name="Lcommaaccent" unicode="&#x13b;" horiz-adv-x="1247" 
d="M164 0v1481h278v-1235h768v-246h-1046zM809 -104l-152 -308h-168l78 308h242z" />
    <glyph glyph-name="lcommaaccent" unicode="&#x13c;" horiz-adv-x="505" 
d="M131 0v1481h244v-1481h-244zM375 -104l-152 -308h-168l78 308h242z" />
    <glyph glyph-name="Lcaron" unicode="&#x13d;" horiz-adv-x="1247" 
d="M164 0v1481h278v-1235h768v-246h-1046zM889 1481l-129 -373h-152l45 373h236z" />
    <glyph glyph-name="lcaron" unicode="&#x13e;" horiz-adv-x="505" 
d="M131 0v1481h244v-1481h-244zM754 1481l-129 -373h-152l45 373h236z" />
    <glyph glyph-name="Ldot" unicode="&#x13f;" horiz-adv-x="1247" 
d="M164 0v1481h278v-1235h768v-246h-1046zM973 641h-244v209h244v-209z" />
    <glyph glyph-name="ldot" unicode="&#x140;" horiz-adv-x="782" 
d="M131 0v1481h244v-1481h-244zM745 641h-243v209h243v-209z" />
    <glyph glyph-name="Lslash" unicode="&#x141;" horiz-adv-x="1247" 
d="M166 0v459l-164 -101v191l164 100v832h276v-682l426 262v-193l-426 -260v-362h768v-246h-1044z" />
    <glyph glyph-name="lslash" unicode="&#x142;" horiz-adv-x="546" 
d="M0 743l152 93v645h243v-512l150 92v-164l-150 -92v-805h-243v672l-152 -92v163z" />
    <glyph glyph-name="Nacute" unicode="&#x143;" horiz-adv-x="1652" 
d="M160 0v1481h418l272 -518q43 -81 112 -211.5t102 -193t79.5 -153t87.5 -174.5q0 81 -4 344t-4 396v510h270v-1481h-412l-260 475q-249 457 -399 770q0 -96 4 -363.5t4 -365.5v-516h-270zM1169 1894l-295 -301h-186l191 301h290z" />
    <glyph glyph-name="nacute" unicode="&#x144;" horiz-adv-x="1155" 
d="M127 0v1042h238v-145q59 98 131.5 130t210.5 32q178 0 251.5 -81.5t73.5 -248.5v-729h-244v655q0 55 -4.5 89.5t-16 61.5t-35 41t-57.5 20.5t-87 6.5q-68 0 -111.5 -17t-66.5 -53.5t-31 -82t-8 -115.5v-606h-244zM934 1481l-295 -301h-186l190 301h291z" />
    <glyph glyph-name="Ncommaaccent" unicode="&#x145;" horiz-adv-x="1652" 
d="M160 0v1481h418l272 -518q43 -81 112 -211.5t102 -193t79.5 -153t87.5 -174.5q0 81 -4 344t-4 396v510h270v-1481h-412l-260 475q-249 457 -399 770q0 -96 4 -363.5t4 -365.5v-516h-270zM983 -104l-152 -308h-167l77 308h242z" />
    <glyph glyph-name="ncommaaccent" unicode="&#x146;" horiz-adv-x="1155" 
d="M127 0v1042h238v-145q59 98 131.5 130t210.5 32q178 0 251.5 -81.5t73.5 -248.5v-729h-244v655q0 55 -4.5 89.5t-16 61.5t-35 41t-57.5 20.5t-87 6.5q-68 0 -111.5 -17t-66.5 -53.5t-31 -82t-8 -115.5v-606h-244zM702 -104l-151 -308h-168l78 308h241z" />
    <glyph glyph-name="Ncaron" unicode="&#x147;" horiz-adv-x="1652" 
d="M160 0v1481h418l272 -518q43 -81 112 -211.5t102 -193t79.5 -153t87.5 -174.5q0 81 -4 344t-4 396v510h270v-1481h-412l-260 475q-249 457 -399 770q0 -96 4 -363.5t4 -365.5v-516h-270zM952 1593h-243l-215 301h206l129 -184l132 184h208z" />
    <glyph glyph-name="ncaron" unicode="&#x148;" horiz-adv-x="1155" 
d="M127 0v1042h238v-145q59 98 131.5 130t210.5 32q178 0 251.5 -81.5t73.5 -248.5v-729h-244v655q0 55 -4.5 89.5t-16 61.5t-35 41t-57.5 20.5t-87 6.5q-68 0 -111.5 -17t-66.5 -53.5t-31 -82t-8 -115.5v-606h-244zM715 1180h-244l-215 301h207l129 -185l131 185h209z" />
    <glyph glyph-name="Omacron" unicode="&#x14c;" horiz-adv-x="1572" 
d="M786 1260q-87 0 -142.5 -4.5t-100.5 -20t-68 -38t-38.5 -66t-20 -95.5t-4.5 -135v-321q0 -82 4.5 -133.5t20 -95.5t39 -66.5t68 -38t100.5 -20.5t142 -5q87 0 142.5 4.5t101 20t68.5 38t38.5 66t20 95.5t4.5 135v321q0 81 -4.5 133t-20 95.5t-39.5 66t-68.5 38.5
t-100.5 21t-142 5zM786 1497q193 0 316 -28t200 -96.5t107.5 -174t30.5 -270.5v-375q0 -160 -31.5 -265t-108 -175t-200.5 -99.5t-314 -29.5q-154 0 -262.5 18.5t-185.5 58t-121 108t-64 160.5t-20 224v375q0 160 31 265t107.5 175t200.5 99.5t314 29.5zM455 1663v141h682
v-141h-682z" />
    <glyph glyph-name="omacron" unicode="&#x14d;" horiz-adv-x="1138" 
d="M569 -16q-77 0 -132.5 4t-105.5 15.5t-82.5 29t-60 47.5t-43.5 68t-26.5 94t-14.5 121.5t-4 154.5q0 118 7.5 197.5t28.5 143t52.5 100t86.5 60t123.5 32t170.5 8.5q77 0 132.5 -4t105.5 -15.5t82.5 -29t60 -48t43.5 -68.5t26.5 -94t14.5 -121.5t4 -154.5
q0 -118 -7.5 -197.5t-28.5 -142.5t-52.5 -99.5t-86.5 -60.5t-123.5 -32t-170.5 -8zM569 877q-45 0 -71 -1t-53.5 -7.5t-41 -15t-27.5 -29.5t-19.5 -43.5t-10 -65t-5.5 -86.5t-1 -115q0 -66 1 -108.5t5.5 -82t10.5 -61.5t19.5 -42t27.5 -28.5t41 -15t53.5 -7.5t70.5 -1
q60 0 91 2t61.5 16t42 33t22 64.5t12 98t1.5 146.5q0 65 -1 107.5t-6 82.5t-10.5 62.5t-19.5 42.5t-28.5 29t-41 15.5t-53.5 8t-70 1.5zM238 1249v142h682v-142h-682z" />
    <glyph glyph-name="Obreve" unicode="&#x14e;" horiz-adv-x="1572" 
d="M786 1260q-87 0 -142.5 -4.5t-100.5 -20t-68 -38t-38.5 -66t-20 -95.5t-4.5 -135v-321q0 -82 4.5 -133.5t20 -95.5t39 -66.5t68 -38t100.5 -20.5t142 -5q87 0 142.5 4.5t101 20t68.5 38t38.5 66t20 95.5t4.5 135v321q0 81 -4.5 133t-20 95.5t-39.5 66t-68.5 38.5
t-100.5 21t-142 5zM786 1497q193 0 316 -28t200 -96.5t107.5 -174t30.5 -270.5v-375q0 -160 -31.5 -265t-108 -175t-200.5 -99.5t-314 -29.5q-154 0 -262.5 18.5t-185.5 58t-121 108t-64 160.5t-20 224v375q0 160 31 265t107.5 175t200.5 99.5t314 29.5zM461 1894h123
q30 -151 215 -151q183 0 213 151h118q-11 -140 -99.5 -217.5t-237.5 -77.5q-153 0 -239.5 77t-92.5 218z" />
    <glyph glyph-name="obreve" unicode="&#x14f;" horiz-adv-x="1138" 
d="M569 -16q-77 0 -132.5 4t-105.5 15.5t-82.5 29t-60 47.5t-43.5 68t-26.5 94t-14.5 121.5t-4 154.5q0 118 7.5 197.5t28.5 143t52.5 100t86.5 60t123.5 32t170.5 8.5q77 0 132.5 -4t105.5 -15.5t82.5 -29t60 -48t43.5 -68.5t26.5 -94t14.5 -121.5t4 -154.5
q0 -118 -7.5 -197.5t-28.5 -142.5t-52.5 -99.5t-86.5 -60.5t-123.5 -32t-170.5 -8zM569 877q-45 0 -71 -1t-53.5 -7.5t-41 -15t-27.5 -29.5t-19.5 -43.5t-10 -65t-5.5 -86.5t-1 -115q0 -66 1 -108.5t5.5 -82t10.5 -61.5t19.5 -42t27.5 -28.5t41 -15t53.5 -7.5t70.5 -1
q60 0 91 2t61.5 16t42 33t22 64.5t12 98t1.5 146.5q0 65 -1 107.5t-6 82.5t-10.5 62.5t-19.5 42.5t-28.5 29t-41 15.5t-53.5 8t-70 1.5zM244 1481h123q30 -152 215 -152q183 0 213 152h118q-10 -139 -99.5 -217t-238.5 -78q-153 0 -239 77t-92 218z" />
    <glyph glyph-name="Ohungarumlaut" unicode="&#x150;" horiz-adv-x="1572" 
d="M786 1260q-87 0 -142.5 -4.5t-100.5 -20t-68 -38t-38.5 -66t-20 -95.5t-4.5 -135v-321q0 -82 4.5 -133.5t20 -95.5t39 -66.5t68 -38t100.5 -20.5t142 -5q87 0 142.5 4.5t101 20t68.5 38t38.5 66t20 95.5t4.5 135v321q0 81 -4.5 133t-20 95.5t-39.5 66t-68.5 38.5
t-100.5 21t-142 5zM786 1497q193 0 316 -28t200 -96.5t107.5 -174t30.5 -270.5v-375q0 -160 -31.5 -265t-108 -175t-200.5 -99.5t-314 -29.5q-154 0 -262.5 18.5t-185.5 58t-121 108t-64 160.5t-20 224v375q0 160 31 265t107.5 175t200.5 99.5t314 29.5zM905 1894l-243 -301
h-179l187 301h235zM1272 1894l-275 -301h-176l205 301h246z" />
    <glyph glyph-name="ohungarumlaut" unicode="&#x151;" horiz-adv-x="1138" 
d="M569 -16q-77 0 -132.5 4t-105.5 15.5t-82.5 29t-60 47.5t-43.5 68t-26.5 94t-14.5 121.5t-4 154.5q0 118 7.5 197.5t28.5 143t52.5 100t86.5 60t123.5 32t170.5 8.5q77 0 132.5 -4t105.5 -15.5t82.5 -29t60 -48t43.5 -68.5t26.5 -94t14.5 -121.5t4 -154.5
q0 -118 -7.5 -197.5t-28.5 -142.5t-52.5 -99.5t-86.5 -60.5t-123.5 -32t-170.5 -8zM569 877q-45 0 -71 -1t-53.5 -7.5t-41 -15t-27.5 -29.5t-19.5 -43.5t-10 -65t-5.5 -86.5t-1 -115q0 -66 1 -108.5t5.5 -82t10.5 -61.5t19.5 -42t27.5 -28.5t41 -15t53.5 -7.5t70.5 -1
q60 0 91 2t61.5 16t42 33t22 64.5t12 98t1.5 146.5q0 65 -1 107.5t-6 82.5t-10.5 62.5t-19.5 42.5t-28.5 29t-41 15.5t-53.5 8t-70 1.5zM688 1481l-244 -301h-178l187 301h235zM1055 1481l-275 -301h-176l205 301h246z" />
    <glyph glyph-name="OE" unicode="&#x152;" horiz-adv-x="2037" 
d="M1038 1479h869v-224h-615v-389h596v-207h-596v-432h631v-227h-889v164q-43 -73 -88.5 -110t-118 -53.5t-196.5 -16.5q-266 0 -380 116t-114 371v522q0 271 119.5 387.5t374.5 116.5q176 0 262 -38.5t145 -139.5v160zM1022 549v414q0 67 -4 110t-17 80.5t-35 58.5
t-60.5 36t-90 20.5t-127.5 5.5q-89 0 -142.5 -13t-83.5 -48t-40 -83t-10 -129v-550q0 -131 55.5 -186.5t194.5 -55.5q80 0 133 5t95.5 19.5t66 36.5t39.5 62.5t21 90.5t5 126z" />
    <glyph glyph-name="oe" unicode="&#x153;" horiz-adv-x="1816" 
d="M569 -16q-77 0 -132.5 4t-105.5 15.5t-82.5 29t-60 47.5t-43.5 68t-26.5 94t-14.5 121.5t-4 154.5q0 118 7.5 197.5t28.5 143t52.5 100t86.5 60t123.5 32t170.5 8.5q116 0 188.5 -18.5t108 -49t58.5 -82.5q31 55 62.5 84t99 47.5t178.5 18.5q97 0 167.5 -9.5t122 -32.5
t84 -56t51.5 -86t26 -115t7 -150q0 -95 -4 -137h-686v-80q0 -131 51 -184t183 -53q133 0 179 31t46 118h225v-31q0 -105 -40 -166.5t-139 -92.5t-273 -31q-152 0 -238 39t-125 122q-24 -57 -58 -90t-101 -52t-173 -19zM569 877q-45 0 -71 -1t-53.5 -7.5t-41 -15t-27.5 -29.5
t-19.5 -43.5t-10 -65t-5.5 -86.5t-1 -115q0 -66 1 -108.5t5.5 -82t10.5 -61.5t19.5 -42t27.5 -28.5t41 -15t53.5 -7.5t70.5 -1q60 0 91 2t61.5 16t42 33t22 64.5t12 98t1.5 146.5q0 65 -1 107.5t-6 82.5t-10.5 62.5t-19.5 42.5t-28.5 29t-41 15.5t-53.5 8t-70 1.5zM1032 625
h461v43q0 72 -8 112t-33 68t-68.5 37.5t-119.5 9.5q-142 0 -187 -44.5t-45 -184.5v-41z" />
    <glyph glyph-name="Racute" unicode="&#x154;" horiz-adv-x="1482" 
d="M164 0v1481h674q148 0 241.5 -22t153 -77t83 -141.5t23.5 -222.5q0 -184 -57 -266t-190 -107q143 -31 192 -109t49 -251v-285h-276v319q0 117 -45 157t-176 40h-398v-516h-274zM438 745h357q57 0 94.5 3.5t70 13.5t51 27.5t31.5 47.5t18 70t5 99q0 63 -5.5 101.5
t-19.5 68.5t-43 44.5t-71.5 21.5t-110.5 7h-377v-504zM1061 1894l-295 -301h-186l190 301h291z" />
    <glyph glyph-name="racute" unicode="&#x155;" horiz-adv-x="958" 
d="M127 0v1042h238v-135q52 84 110 118t154 34q166 0 226 -75.5t60 -252.5q0 -57 -2 -90h-227v51q0 107 -26.5 142.5t-108.5 35.5q-87 0 -133.5 -58t-46.5 -163v-649h-244zM856 1481l-295 -301h-186l190 301h291z" />
    <glyph glyph-name="Rcommaaccent" unicode="&#x156;" horiz-adv-x="1482" 
d="M164 0v1481h674q148 0 241.5 -22t153 -77t83 -141.5t23.5 -222.5q0 -184 -57 -266t-190 -107q143 -31 192 -109t49 -251v-285h-276v319q0 117 -45 157t-176 40h-398v-516h-274zM438 745h357q57 0 94.5 3.5t70 13.5t51 27.5t31.5 47.5t18 70t5 99q0 63 -5.5 101.5
t-19.5 68.5t-43 44.5t-71.5 21.5t-110.5 7h-377v-504zM866 -104l-151 -308h-168l78 308h241z" />
    <glyph glyph-name="rcommaaccent" unicode="&#x157;" horiz-adv-x="958" 
d="M127 0v1042h238v-135q52 84 110 118t154 34q166 0 226 -75.5t60 -252.5q0 -57 -2 -90h-227v51q0 107 -26.5 142.5t-108.5 35.5q-87 0 -133.5 -58t-46.5 -163v-649h-244zM371 -104l-152 -308h-168l78 308h242z" />
    <glyph glyph-name="Rcaron" unicode="&#x158;" horiz-adv-x="1482" 
d="M164 0v1481h674q148 0 241.5 -22t153 -77t83 -141.5t23.5 -222.5q0 -184 -57 -266t-190 -107q143 -31 192 -109t49 -251v-285h-276v319q0 117 -45 157t-176 40h-398v-516h-274zM438 745h357q57 0 94.5 3.5t70 13.5t51 27.5t31.5 47.5t18 70t5 99q0 63 -5.5 101.5
t-19.5 68.5t-43 44.5t-71.5 21.5t-110.5 7h-377v-504zM842 1593h-244l-215 301h207l129 -184l131 184h209z" />
    <glyph glyph-name="rcaron" unicode="&#x159;" horiz-adv-x="958" 
d="M127 0v1042h238v-135q52 84 110 118t154 34q166 0 226 -75.5t60 -252.5q0 -57 -2 -90h-227v51q0 107 -26.5 142.5t-108.5 35.5q-87 0 -133.5 -58t-46.5 -163v-649h-244zM635 1180h-244l-215 301h207l129 -185l131 185h209z" />
    <glyph glyph-name="Sacute" unicode="&#x15a;" horiz-adv-x="1437" 
d="M111 469h264v-49q0 -53 7 -85t26.5 -58t59.5 -38.5t99.5 -19t153.5 -6.5q80 0 130.5 2.5t90 12t59.5 21.5t33 37t16 53t3 75q0 49 -2.5 78.5t-13 54.5t-24 37t-44.5 22t-65.5 14.5t-94.5 8.5l-221 14q-92 6 -155 16t-118.5 30t-89 50t-58 77.5t-34.5 111t-10 151.5
q0 121 26.5 197.5t95 127.5t182 72t292.5 21q117 0 198.5 -6.5t148.5 -23.5t107.5 -44t68 -71.5t38 -102t10.5 -139.5q0 -30 -2 -55h-252v37q0 58 -9.5 89.5t-43.5 54.5t-94.5 30.5t-167.5 7.5q-76 0 -126 -3t-88 -13t-58 -22.5t-32.5 -38t-16 -54t-3.5 -74.5q0 -42 4 -70
t16.5 -49.5t28 -34t47.5 -21.5t66 -13.5t90 -8.5l318 -22q205 -17 283.5 -110t78.5 -302q0 -92 -10.5 -156.5t-37.5 -117t-69.5 -84.5t-112.5 -53.5t-160.5 -30t-217.5 -8.5q-125 0 -213.5 7t-159.5 25.5t-114.5 47.5t-72.5 76.5t-40.5 109t-11.5 147.5q0 41 2 68z
M1059 1894l-295 -301h-186l190 301h291z" />
    <glyph glyph-name="sacute" unicode="&#x15b;" horiz-adv-x="1118" 
d="M80 305h237l2 -22q3 -49 22 -75t68.5 -40t141.5 -14q114 0 165.5 11t70 38.5t18.5 89.5q0 47 -4 69.5t-24.5 39t-51 21.5t-94.5 9l-174 12q-110 9 -176 25t-112 50.5t-63.5 88.5t-17.5 140q0 169 106 240t369 71q179 0 275.5 -27.5t132 -81.5t35.5 -153v-21h-228l-2 29
q-5 53 -51.5 70.5t-181.5 17.5q-99 0 -147 -12.5t-64.5 -38.5t-16.5 -80q0 -49 13 -73t51.5 -37.5t118.5 -18.5l245 -17q81 -6 132.5 -21t90.5 -47.5t55.5 -88.5t16.5 -142q0 -127 -44.5 -197.5t-151 -103t-299.5 -32.5q-137 0 -225.5 15.5t-141.5 52.5t-74.5 90.5
t-21.5 136.5v26zM891 1481l-295 -301h-186l190 301h291z" />
    <glyph glyph-name="Scircumflex" unicode="&#x15c;" horiz-adv-x="1437" 
d="M111 469h264v-49q0 -53 7 -85t26.5 -58t59.5 -38.5t99.5 -19t153.5 -6.5q80 0 130.5 2.5t90 12t59.5 21.5t33 37t16 53t3 75q0 49 -2.5 78.5t-13 54.5t-24 37t-44.5 22t-65.5 14.5t-94.5 8.5l-221 14q-92 6 -155 16t-118.5 30t-89 50t-58 77.5t-34.5 111t-10 151.5
q0 121 26.5 197.5t95 127.5t182 72t292.5 21q117 0 198.5 -6.5t148.5 -23.5t107.5 -44t68 -71.5t38 -102t10.5 -139.5q0 -30 -2 -55h-252v37q0 58 -9.5 89.5t-43.5 54.5t-94.5 30.5t-167.5 7.5q-76 0 -126 -3t-88 -13t-58 -22.5t-32.5 -38t-16 -54t-3.5 -74.5q0 -42 4 -70
t16.5 -49.5t28 -34t47.5 -21.5t66 -13.5t90 -8.5l318 -22q205 -17 283.5 -110t78.5 -302q0 -92 -10.5 -156.5t-37.5 -117t-69.5 -84.5t-112.5 -53.5t-160.5 -30t-217.5 -8.5q-125 0 -213.5 7t-159.5 25.5t-114.5 47.5t-72.5 76.5t-40.5 109t-11.5 147.5q0 41 2 68zM598 1894
h244l215 -301h-207l-129 185l-131 -185h-209z" />
    <glyph glyph-name="scircumflex" unicode="&#x15d;" horiz-adv-x="1118" 
d="M80 305h237l2 -22q3 -49 22 -75t68.5 -40t141.5 -14q114 0 165.5 11t70 38.5t18.5 89.5q0 47 -4 69.5t-24.5 39t-51 21.5t-94.5 9l-174 12q-110 9 -176 25t-112 50.5t-63.5 88.5t-17.5 140q0 169 106 240t369 71q179 0 275.5 -27.5t132 -81.5t35.5 -153v-21h-228l-2 29
q-5 53 -51.5 70.5t-181.5 17.5q-99 0 -147 -12.5t-64.5 -38.5t-16.5 -80q0 -49 13 -73t51.5 -37.5t118.5 -18.5l245 -17q81 -6 132.5 -21t90.5 -47.5t55.5 -88.5t16.5 -142q0 -127 -44.5 -197.5t-151 -103t-299.5 -32.5q-137 0 -225.5 15.5t-141.5 52.5t-74.5 90.5
t-21.5 136.5v26zM430 1481h244l215 -301h-207l-129 184l-131 -184h-209z" />
    <glyph glyph-name="Scedilla" unicode="&#x15e;" horiz-adv-x="1437" 
d="M494 -451v103q86 -19 163 -19q109 0 109 76q0 35 -28.5 54.5t-73.5 19.5q-38 0 -93 -6v76l99 135q-171 2 -275 21t-170.5 67.5t-91 124.5t-24.5 200q0 41 2 68h264v-49q0 -53 7 -85t26.5 -58t59.5 -38.5t99.5 -19t153.5 -6.5q80 0 130.5 2.5t90 12t59.5 21.5t33 37t16 53
t3 75q0 49 -2.5 78.5t-13 54.5t-24 37t-44.5 22t-65.5 14.5t-94.5 8.5l-221 14q-92 6 -155 16t-118.5 30t-89 50t-58 77.5t-34.5 111t-10 151.5q0 121 26.5 197.5t95 127.5t182 72t292.5 21q117 0 198.5 -6.5t148.5 -23.5t107.5 -44t68 -71.5t38 -102t10.5 -139.5
q0 -30 -2 -55h-252v37q0 58 -9.5 89.5t-43.5 54.5t-94.5 30.5t-167.5 7.5q-76 0 -126 -3t-88 -13t-58 -22.5t-32.5 -38t-16 -54t-3.5 -74.5q0 -42 4 -70t16.5 -49.5t28 -34t47.5 -21.5t66 -13.5t90 -8.5l318 -22q205 -17 283.5 -110t78.5 -302q0 -87 -9.5 -149.5t-33.5 -114
t-62.5 -84.5t-100.5 -55.5t-143 -32.5t-194 -12l-88 -119q27 2 56 2q84 0 134 -44.5t50 -117.5q0 -182 -256 -182q-98 0 -188 20z" />
    <glyph glyph-name="scedilla" unicode="&#x15f;" horiz-adv-x="1118" 
d="M330 -451v103q85 -19 164 -19q108 0 108 76q0 35 -28.5 54.5t-73.5 19.5q-36 0 -92 -6v76l94 131q-165 3 -257 34.5t-128.5 93t-36.5 167.5v26h237l2 -22q3 -49 22 -75t68.5 -40t141.5 -14q114 0 165.5 11t70 38.5t18.5 89.5q0 47 -4 69.5t-24.5 39t-51 21.5t-94.5 9
l-174 12q-110 9 -176 25t-112 50.5t-63.5 88.5t-17.5 140q0 169 106 240t369 71q179 0 275.5 -27.5t132 -81.5t35.5 -153v-21h-228l-2 29q-5 53 -51.5 70.5t-181.5 17.5q-99 0 -147 -12.5t-64.5 -38.5t-16.5 -80q0 -49 13 -73t51.5 -37.5t118.5 -18.5l245 -17
q81 -6 132.5 -21t90.5 -47.5t55.5 -88.5t16.5 -142q0 -175 -91.5 -249.5t-328.5 -81.5l-83 -115q27 2 55 2q84 0 134 -44.5t50 -117.5q0 -182 -256 -182q-98 0 -188 20z" />
    <glyph glyph-name="Scaron" unicode="&#x160;" horiz-adv-x="1437" 
d="M111 469h264v-49q0 -53 7 -85t26.5 -58t59.5 -38.5t99.5 -19t153.5 -6.5q80 0 130.5 2.5t90 12t59.5 21.5t33 37t16 53t3 75q0 49 -2.5 78.5t-13 54.5t-24 37t-44.5 22t-65.5 14.5t-94.5 8.5l-221 14q-92 6 -155 16t-118.5 30t-89 50t-58 77.5t-34.5 111t-10 151.5
q0 121 26.5 197.5t95 127.5t182 72t292.5 21q117 0 198.5 -6.5t148.5 -23.5t107.5 -44t68 -71.5t38 -102t10.5 -139.5q0 -30 -2 -55h-252v37q0 58 -9.5 89.5t-43.5 54.5t-94.5 30.5t-167.5 7.5q-76 0 -126 -3t-88 -13t-58 -22.5t-32.5 -38t-16 -54t-3.5 -74.5q0 -42 4 -70
t16.5 -49.5t28 -34t47.5 -21.5t66 -13.5t90 -8.5l318 -22q205 -17 283.5 -110t78.5 -302q0 -92 -10.5 -156.5t-37.5 -117t-69.5 -84.5t-112.5 -53.5t-160.5 -30t-217.5 -8.5q-125 0 -213.5 7t-159.5 25.5t-114.5 47.5t-72.5 76.5t-40.5 109t-11.5 147.5q0 41 2 68zM840 1593
h-244l-215 301h207l129 -184l131 184h209z" />
    <glyph glyph-name="scaron" unicode="&#x161;" horiz-adv-x="1118" 
d="M80 305h237l2 -22q3 -49 22 -75t68.5 -40t141.5 -14q114 0 165.5 11t70 38.5t18.5 89.5q0 47 -4 69.5t-24.5 39t-51 21.5t-94.5 9l-174 12q-110 9 -176 25t-112 50.5t-63.5 88.5t-17.5 140q0 169 106 240t369 71q179 0 275.5 -27.5t132 -81.5t35.5 -153v-21h-228l-2 29
q-5 53 -51.5 70.5t-181.5 17.5q-99 0 -147 -12.5t-64.5 -38.5t-16.5 -80q0 -49 13 -73t51.5 -37.5t118.5 -18.5l245 -17q81 -6 132.5 -21t90.5 -47.5t55.5 -88.5t16.5 -142q0 -127 -44.5 -197.5t-151 -103t-299.5 -32.5q-137 0 -225.5 15.5t-141.5 52.5t-74.5 90.5
t-21.5 136.5v26zM672 1180h-244l-215 301h207l129 -185l131 185h209z" />
    <glyph glyph-name="Tcommaaccent" unicode="&#x162;" horiz-adv-x="1187" 
d="M733 0h-278v1239h-428v242h1134v-242h-428v-1239zM713 -104l-152 -308h-168l78 308h242z" />
    <glyph glyph-name="tcommaaccent" unicode="&#x163;" horiz-adv-x="937" 
d="M690 397h197q2 -55 2 -104q0 -160 -82 -234.5t-279 -74.5q-201 0 -283.5 75.5t-82.5 255.5v543h-127v184h127v228h244v-228h444v-184h-444v-539q0 -84 27 -118.5t106 -34.5q93 0 122 32.5t29 135.5v63zM618 -104l-151 -308h-168l78 308h241z" />
    <glyph glyph-name="Tcaron" unicode="&#x164;" horiz-adv-x="1187" 
d="M733 0h-278v1239h-428v242h1134v-242h-428v-1239zM717 1593h-244l-215 301h207l129 -184l131 184h209z" />
    <glyph glyph-name="tcaron" unicode="&#x165;" horiz-adv-x="937" 
d="M690 397h197q2 -55 2 -104q0 -160 -82 -234.5t-279 -74.5q-201 0 -283.5 75.5t-82.5 255.5v543h-127v184h127v228h244v-228h444v-184h-444v-539q0 -84 27 -118.5t106 -34.5q93 0 122 32.5t29 135.5v63zM844 1481l-129 -373h-152l45 373h236z" />
    <glyph glyph-name="Tbar" unicode="&#x166;" horiz-adv-x="1187" 
d="M27 1481h1134v-242h-428v-281h281v-176h-281v-782h-278v782h-281v176h281v281h-428v242z" />
    <glyph glyph-name="tbar" unicode="&#x167;" horiz-adv-x="937" 
d="M162 315v246h-115v135h115v162h-127v184h127v228h244v-228h436v-184h-436v-162h337v-135h-337v-242q0 -84 27 -118.5t106 -34.5q93 0 122 32.5t29 135.5v43h197q2 -39 2 -84q0 -160 -82 -234.5t-279 -74.5q-201 0 -283.5 75.5t-82.5 255.5z" />
    <glyph glyph-name="Utilde" unicode="&#x168;" horiz-adv-x="1560" 
d="M147 1481h279v-1032q0 -93 28 -139.5t102.5 -67.5t223.5 -21q94 0 154 7t101.5 21.5t62 44.5t29 68.5t8.5 100.5v1018h278v-989q0 -112 -17.5 -191.5t-59.5 -142t-115 -99.5t-180.5 -56t-258.5 -19q-187 0 -308 25t-194.5 84t-103 148.5t-29.5 227.5v1012zM631 1858
q59 0 162 -42t137 -42q76 0 94 88h123q-17 -121 -73 -180.5t-144 -59.5q-56 0 -161.5 42t-137.5 42q-76 0 -94 -88h-123q17 121 73 180.5t144 59.5z" />
    <glyph glyph-name="utilde" unicode="&#x169;" horiz-adv-x="1150" 
d="M1024 1042v-1042h-233v145q-59 -98 -133 -129.5t-214 -31.5q-178 0 -251.5 81t-73.5 248v729h243v-653q0 -55 4.5 -89.5t16.5 -61.5t35.5 -41t57.5 -20.5t87 -6.5q68 0 111.5 17t66.5 53.5t31 82t8 115.5v604h244zM426 1444q59 0 162 -42t137 -42q76 0 94 88h123
q-17 -121 -73 -180.5t-144 -59.5q-56 0 -161.5 42t-137.5 42q-76 0 -94 -88h-123q17 121 73 180.5t144 59.5z" />
    <glyph glyph-name="Umacron" unicode="&#x16a;" horiz-adv-x="1560" 
d="M147 1481h279v-1032q0 -93 28 -139.5t102.5 -67.5t223.5 -21q94 0 154 7t101.5 21.5t62 44.5t29 68.5t8.5 100.5v1018h278v-989q0 -112 -17.5 -191.5t-59.5 -142t-115 -99.5t-180.5 -56t-258.5 -19q-187 0 -308 25t-194.5 84t-103 148.5t-29.5 227.5v1012zM440 1663v141
h682v-141h-682z" />
    <glyph glyph-name="umacron" unicode="&#x16b;" horiz-adv-x="1150" 
d="M1024 1042v-1042h-233v145q-59 -98 -133 -129.5t-214 -31.5q-178 0 -251.5 81t-73.5 248v729h243v-653q0 -55 4.5 -89.5t16.5 -61.5t35.5 -41t57.5 -20.5t87 -6.5q68 0 111.5 17t66.5 53.5t31 82t8 115.5v604h244zM236 1249v142h682v-142h-682z" />
    <glyph glyph-name="Ubreve" unicode="&#x16c;" horiz-adv-x="1560" 
d="M147 1481h279v-1032q0 -93 28 -139.5t102.5 -67.5t223.5 -21q94 0 154 7t101.5 21.5t62 44.5t29 68.5t8.5 100.5v1018h278v-989q0 -112 -17.5 -191.5t-59.5 -142t-115 -99.5t-180.5 -56t-258.5 -19q-187 0 -308 25t-194.5 84t-103 148.5t-29.5 227.5v1012zM446 1894h123
q30 -151 215 -151q183 0 213 151h119q-10 -139 -99.5 -217t-238.5 -78q-153 0 -239.5 77t-92.5 218z" />
    <glyph glyph-name="ubreve" unicode="&#x16d;" horiz-adv-x="1150" 
d="M1024 1042v-1042h-233v145q-59 -98 -133 -129.5t-214 -31.5q-178 0 -251.5 81t-73.5 248v729h243v-653q0 -55 4.5 -89.5t16.5 -61.5t35.5 -41t57.5 -20.5t87 -6.5q68 0 111.5 17t66.5 53.5t31 82t8 115.5v604h244zM242 1481h123q30 -152 215 -152q183 0 213 152h118
q-10 -139 -99.5 -217t-238.5 -78q-153 0 -239 77t-92 218z" />
    <glyph glyph-name="Uring" unicode="&#x16e;" horiz-adv-x="1560" 
d="M147 1481h279v-1032q0 -93 28 -139.5t102.5 -67.5t223.5 -21q94 0 154 7t101.5 21.5t62 44.5t29 68.5t8.5 100.5v1018h278v-989q0 -112 -17.5 -191.5t-59.5 -142t-115 -99.5t-180.5 -56t-258.5 -19q-187 0 -308 25t-194.5 84t-103 148.5t-29.5 227.5v1012zM782 1976
q93 0 152 -57.5t59 -153.5t-60 -154.5t-153 -58.5q-94 0 -153.5 57t-59.5 154q0 95 60.5 154t154.5 59zM780 1647q51 0 83 32t32 86q0 53 -32.5 85t-82.5 32t-82 -32t-32 -87q0 -53 32 -84.5t82 -31.5z" />
    <glyph glyph-name="uring" unicode="&#x16f;" horiz-adv-x="1150" 
d="M1024 1042v-1042h-233v145q-59 -98 -133 -129.5t-214 -31.5q-178 0 -251.5 81t-73.5 248v729h243v-653q0 -55 4.5 -89.5t16.5 -61.5t35.5 -41t57.5 -20.5t87 -6.5q68 0 111.5 17t66.5 53.5t31 82t8 115.5v604h244zM578 1597q92 0 151 -57t59 -154q0 -96 -60 -154
t-153 -58q-94 0 -153.5 56.5t-59.5 153.5q0 95 61 154t155 59zM575 1268q51 0 83 32t32 86q0 53 -32.5 85t-82.5 32t-82 -32t-32 -87q0 -53 32 -84.5t82 -31.5z" />
    <glyph glyph-name="Uhungarumlaut" unicode="&#x170;" horiz-adv-x="1560" 
d="M147 1481h279v-1032q0 -93 28 -139.5t102.5 -67.5t223.5 -21q94 0 154 7t101.5 21.5t62 44.5t29 68.5t8.5 100.5v1018h278v-989q0 -112 -17.5 -191.5t-59.5 -142t-115 -99.5t-180.5 -56t-258.5 -19q-187 0 -308 25t-194.5 84t-103 148.5t-29.5 227.5v1012zM891 1894
l-244 -301h-178l186 301h236zM1257 1894l-274 -301h-176l205 301h245z" />
    <glyph glyph-name="uhungarumlaut" unicode="&#x171;" horiz-adv-x="1150" 
d="M1024 1042v-1042h-233v145q-59 -98 -133 -129.5t-214 -31.5q-178 0 -251.5 81t-73.5 248v729h243v-653q0 -55 4.5 -89.5t16.5 -61.5t35.5 -41t57.5 -20.5t87 -6.5q68 0 111.5 17t66.5 53.5t31 82t8 115.5v604h244zM686 1481l-244 -301h-178l187 301h235zM1053 1481
l-275 -301h-176l205 301h246z" />
    <glyph glyph-name="Uogonek" unicode="&#x172;" horiz-adv-x="1560" 
d="M147 1481h279v-1032q0 -93 28 -139.5t102.5 -67.5t223.5 -21q94 0 154 7t101.5 21.5t62 44.5t29 68.5t8.5 100.5v1018h278v-989q0 -131 -23.5 -218.5t-83 -151t-160 -95.5t-255.5 -41q-133 -92 -133 -183q0 -45 27 -71.5t79 -26.5q46 0 101 14v-125q-54 -16 -125 -16
q-115 0 -176.5 52.5t-61.5 142.5q0 121 123 213q-225 3 -350.5 53.5t-176.5 151.5t-51 278v1012z" />
    <glyph glyph-name="uogonek" unicode="&#x173;" horiz-adv-x="1150" 
d="M1024 0h-59q-146 -102 -146 -197q0 -44 27.5 -71t79.5 -27q45 0 100 14v-125q-54 -16 -125 -16q-115 0 -176 52.5t-61 142.5q0 133 135 227v152q-59 -101 -136.5 -134.5t-218.5 -33.5q-178 0 -251.5 81t-73.5 248v729h243v-653q0 -55 4.5 -89.5t16.5 -61.5t35.5 -41
t57.5 -20.5t87 -6.5q68 0 111.5 17t66.5 53.5t31 82t8 115.5v604h244v-1042z" />
    <glyph glyph-name="Wcircumflex" unicode="&#x174;" horiz-adv-x="2050" 
d="M41 1481h278l248 -1233l293 1233h330l283 -1235l266 1235h272l-328 -1481h-401l-102 455q-21 94 -76 354.5t-82 374.5q-120 -542 -164 -725l-108 -459h-390zM903 1894h244l215 -301h-207l-129 185l-131 -185h-209z" />
    <glyph glyph-name="wcircumflex" unicode="&#x175;" horiz-adv-x="1605" 
d="M453 188l196 854h301l199 -856l174 856h238l-234 -1042h-348l-180 819l-183 -819h-337l-242 1042h248zM682 1481h244l215 -301h-207l-129 184l-131 -184h-209z" />
    <glyph glyph-name="Ycircumflex" unicode="&#x176;" horiz-adv-x="1316" 
d="M518 578l-555 903h316l380 -645l385 645h310l-557 -908v-573h-279v578zM543 1894h243l215 -301h-206l-129 185l-131 -185h-209z" />
    <glyph glyph-name="ycircumflex" unicode="&#x177;" horiz-adv-x="1052" 
d="M16 1042h256l275 -843l231 843h250l-350 -1167q-44 -155 -128.5 -221t-236.5 -66q-51 0 -80 4v179h39q76 0 120 34t67 113l24 86h-110zM416 1481h243l215 -301h-206l-129 184l-131 -184h-209z" />
    <glyph glyph-name="Ydieresis" unicode="&#x178;" horiz-adv-x="1316" 
d="M518 578l-555 903h316l380 -645l385 645h310l-557 -908v-573h-279v578zM735 1622v229h232v-229h-232zM365 1622v229h231v-229h-231z" />
    <glyph glyph-name="Zacute" unicode="&#x179;" horiz-adv-x="1310" 
d="M53 0v244l824 1003h-785v234h1131v-242l-817 -999h831v-240h-1184zM989 1894l-295 -301h-186l190 301h291z" />
    <glyph glyph-name="zacute" unicode="&#x17a;" horiz-adv-x="999" 
d="M53 0v215l586 643h-557v184h842v-206l-582 -648h594v-188h-883zM848 1481l-295 -301h-186l190 301h291z" />
    <glyph glyph-name="Zdotaccent" unicode="&#x17b;" horiz-adv-x="1310" 
d="M53 0v244l824 1003h-785v234h1131v-242l-817 -999h831v-240h-1184zM774 1636h-244v209h244v-209z" />
    <glyph glyph-name="zdotaccent" unicode="&#x17c;" horiz-adv-x="999" 
d="M53 0v215l586 643h-557v184h842v-206l-582 -648h594v-188h-883zM633 1223h-244v209h244v-209z" />
    <glyph glyph-name="Zcaron" unicode="&#x17d;" horiz-adv-x="1310" 
d="M53 0v244l824 1003h-785v234h1131v-242l-817 -999h831v-240h-1184zM770 1593h-244l-215 301h207l129 -184l131 184h209z" />
    <glyph glyph-name="zcaron" unicode="&#x17e;" horiz-adv-x="999" 
d="M53 0v215l586 643h-557v184h842v-206l-582 -648h594v-188h-883zM629 1180h-244l-215 301h207l129 -185l131 185h209z" />
    <glyph glyph-name="Schwa" unicode="&#x18f;" horiz-adv-x="1572" 
d="M1161 639h-749v-59q0 -82 4.5 -133.5t20 -95.5t39 -66.5t68 -38t100.5 -20.5t142 -5q87 0 142.5 4.5t101 20t68.5 38t38.5 66t20 95.5t4.5 135v59zM414 1042l-269 2q2 89 13 152.5t37.5 116t68.5 85.5t108.5 55.5t154 32t208.5 9.5h51q193 0 316 -27.5t200 -96
t107.5 -173.5t30.5 -270v-375q0 -160 -31.5 -265t-108 -175t-200.5 -99.5t-314 -29.5q-154 0 -262.5 18.5t-185.5 58t-121 108t-64 160.5t-20 224v328h1028v20q0 81 -4.5 133t-20 95.5t-39.5 66t-68.5 38.5t-100.5 21t-142 5h-49q-104 0 -162 -7.5t-95.5 -33t-50.5 -65.5
t-15 -112z" />
    <glyph glyph-name="Schwa" unicode="&#x4d8;" horiz-adv-x="1572" 
d="M1161 639h-749v-59q0 -82 4.5 -133.5t20 -95.5t39 -66.5t68 -38t100.5 -20.5t142 -5q87 0 142.5 4.5t101 20t68.5 38t38.5 66t20 95.5t4.5 135v59zM414 1042l-269 2q2 89 13 152.5t37.5 116t68.5 85.5t108.5 55.5t154 32t208.5 9.5h51q193 0 316 -27.5t200 -96
t107.5 -173.5t30.5 -270v-375q0 -160 -31.5 -265t-108 -175t-200.5 -99.5t-314 -29.5q-154 0 -262.5 18.5t-185.5 58t-121 108t-64 160.5t-20 224v328h1028v20q0 81 -4.5 133t-20 95.5t-39.5 66t-68.5 38.5t-100.5 21t-142 5h-49q-104 0 -162 -7.5t-95.5 -33t-50.5 -65.5
t-15 -112z" />
    <glyph glyph-name="florin" unicode="&#x192;" horiz-adv-x="1366" 
d="M43 -365v199q54 -14 131 -14q127 0 184.5 50t85.5 198l125 690h-270v168h303l35 176q42 212 144 303.5t306 91.5q103 0 191 -14v-201q-91 16 -145 16q-108 0 -163 -43t-79 -165l-31 -164h281v-170h-312l-139 -738q-40 -217 -148.5 -309t-328.5 -92q-85 0 -170 18z" />
    <glyph glyph-name="Scommaaccent" unicode="&#x218;" horiz-adv-x="1437" 
d="M111 469h264v-49q0 -53 7 -85t26.5 -58t59.5 -38.5t99.5 -19t153.5 -6.5q80 0 130.5 2.5t90 12t59.5 21.5t33 37t16 53t3 75q0 49 -2.5 78.5t-13 54.5t-24 37t-44.5 22t-65.5 14.5t-94.5 8.5l-221 14q-92 6 -155 16t-118.5 30t-89 50t-58 77.5t-34.5 111t-10 151.5
q0 121 26.5 197.5t95 127.5t182 72t292.5 21q117 0 198.5 -6.5t148.5 -23.5t107.5 -44t68 -71.5t38 -102t10.5 -139.5q0 -30 -2 -55h-252v37q0 58 -9.5 89.5t-43.5 54.5t-94.5 30.5t-167.5 7.5q-76 0 -126 -3t-88 -13t-58 -22.5t-32.5 -38t-16 -54t-3.5 -74.5q0 -42 4 -70
t16.5 -49.5t28 -34t47.5 -21.5t66 -13.5t90 -8.5l318 -22q205 -17 283.5 -110t78.5 -302q0 -92 -10.5 -156.5t-37.5 -117t-69.5 -84.5t-112.5 -53.5t-160.5 -30t-217.5 -8.5q-125 0 -213.5 7t-159.5 25.5t-114.5 47.5t-72.5 76.5t-40.5 109t-11.5 147.5q0 41 2 68zM850 -104
l-152 -308h-168l78 308h242z" />
    <glyph glyph-name="scommaaccent" unicode="&#x219;" horiz-adv-x="1118" 
d="M686 -104l-151 -308h-168l77 308h242zM80 305h237l2 -22q3 -49 22 -75t68.5 -40t141.5 -14q114 0 165.5 11t70 38.5t18.5 89.5q0 47 -4 69.5t-24.5 39t-51 21.5t-94.5 9l-174 12q-110 9 -176 25t-112 50.5t-63.5 88.5t-17.5 140q0 169 106 240t369 71q179 0 275.5 -27.5
t132 -81.5t35.5 -153v-21h-228l-2 29q-5 53 -51.5 70.5t-181.5 17.5q-99 0 -147 -12.5t-64.5 -38.5t-16.5 -80q0 -49 13 -73t51.5 -37.5t118.5 -18.5l245 -17q81 -6 132.5 -21t90.5 -47.5t55.5 -88.5t16.5 -142q0 -127 -44.5 -197.5t-151 -103t-299.5 -32.5
q-137 0 -225.5 15.5t-141.5 52.5t-74.5 90.5t-21.5 136.5v26z" />
    <glyph glyph-name="uni021A" unicode="&#x21a;" horiz-adv-x="1187" 
d="M733 0h-278v1239h-428v242h1134v-242h-428v-1239zM713 -104l-152 -308h-168l78 308h242z" />
    <glyph glyph-name="uni021B" unicode="&#x21b;" horiz-adv-x="937" 
d="M690 397h197q2 -55 2 -104q0 -160 -82 -234.5t-279 -74.5q-201 0 -283.5 75.5t-82.5 255.5v543h-127v184h127v228h244v-228h444v-184h-444v-539q0 -84 27 -118.5t106 -34.5q93 0 122 32.5t29 135.5v63zM618 -104l-151 -308h-168l78 308h241z" />
    <glyph glyph-name="dotlessj" unicode="&#x237;" horiz-adv-x="505" 
d="M12 -408v179h27q53 0 72.5 25.5t19.5 92.5v1153h244v-1153q0 -156 -66 -228.5t-219 -72.5q-57 0 -78 4z" />
    <glyph glyph-name="schwa" unicode="&#x259;" horiz-adv-x="1142" 
d="M336 737h-230v31q0 105 40.5 166.5t142 93t280.5 31.5q99 0 169 -9.5t125.5 -34.5t89.5 -63t56.5 -99.5t31 -139.5t8.5 -187q0 -112 -8.5 -191.5t-31 -142.5t-56.5 -101t-89.5 -63t-125.5 -34.5t-169 -9.5q-100 0 -172 9.5t-125 32.5t-85.5 55.5t-52.5 85.5t-27 114.5
t-7 150.5q0 95 4 137h707v80q0 131 -52.5 183.5t-191.5 52.5q-140 0 -185.5 -30.5t-45.5 -117.5zM811 416h-477v-41q0 -58 5 -93.5t18.5 -63.5t41 -41.5t67.5 -20t103 -6.5q77 0 121.5 8.5t73 35t38 68.5t9.5 115v39z" />
    <glyph glyph-name="circumflex" unicode="&#x2c6;" 
d="M219 1481h244l215 -301h-207l-129 184l-131 -184h-209z" />
    <glyph glyph-name="caron" unicode="&#x2c7;" 
d="M463 1180h-244l-215 301h207l129 -185l131 185h209z" />
    <glyph glyph-name="uni02C9" unicode="&#x2c9;" 
d="M0 1249v142h682v-142h-682z" />
    <glyph glyph-name="breve" unicode="&#x2d8;" 
d="M6 1481h123q30 -152 215 -152q183 0 213 152h119q-10 -139 -99.5 -217t-238.5 -78q-153 0 -239.5 77t-92.5 218z" />
    <glyph glyph-name="dotaccent" unicode="&#x2d9;" 
d="M463 1223h-244v209h244v-209z" />
    <glyph glyph-name="ring" unicode="&#x2da;" 
d="M340 1597q93 0 152 -57.5t59 -153.5t-60 -154t-153 -58q-94 0 -153.5 56.5t-59.5 153.5q0 95 60.5 154t154.5 59zM338 1268q51 0 83 32t32 86q0 53 -32.5 85t-82.5 32t-82.5 -32.5t-32.5 -86.5q0 -53 32.5 -84.5t82.5 -31.5z" />
    <glyph glyph-name="ogonek" unicode="&#x2db;" 
d="M307 0h164q-156 -101 -156 -197q0 -44 27.5 -71t79.5 -27q45 0 100 14v-125q-54 -16 -125 -16q-115 0 -176 52.5t-61 142.5q0 133 147 227z" />
    <glyph glyph-name="tilde" unicode="&#x2dc;" 
d="M190 1444q59 0 162 -42t137 -42q77 0 95 88h123q-17 -120 -73.5 -180t-144.5 -60q-56 0 -161.5 42t-137.5 42q-76 0 -94 -88h-123q17 121 73 180.5t144 59.5z" />
    <glyph glyph-name="hungarumlaut" unicode="&#x2dd;" 
d="M438 1481l-243 -301h-179l187 301h235zM805 1481l-275 -301h-176l205 301h246z" />
    <glyph glyph-name="uni0394" unicode="&#x394;" horiz-adv-x="1466" 
d="M61 0v182l504 1299h340l498 -1297v-184h-1342zM326 211h804l-309 844q-12 29 -29.5 80.5t-36 109t-22.5 68.5h-4q-68 -209 -88 -258z" />
    <glyph glyph-name="uni03A9" unicode="&#x3a9;" horiz-adv-x="1734" 
d="M1331 236v-7h311v-229h-649v197q102 65 171.5 138.5t114 183t44.5 243.5q0 226 -122.5 362t-326.5 136q-207 0 -333.5 -134t-126.5 -364q0 -193 89.5 -342.5t241.5 -222.5v-197h-655v229h305v7q-112 73 -188 223.5t-76 333.5q0 152 53.5 282t150 223t236.5 146t306 53
q172 0 310.5 -53t228.5 -145.5t138 -216t48 -267.5q0 -199 -79 -349t-192 -230z" />
    <glyph glyph-name="uni03BC" unicode="&#x3bc;" horiz-adv-x="1366" 
d="M1135 1042v-1042h-234v145q-52 -88 -122.5 -124.5t-168.5 -36.5q-83 0 -137 28v-413h-244v1443h244v-680q0 -116 40 -154t161 -38q68 0 111.5 17t66.5 53.5t31 82t8 115.5v604h244z" />
    <glyph glyph-name="pi" unicode="&#x3c0;" horiz-adv-x="1519" 
d="M1384 195v-170q-75 -41 -188 -41q-221 0 -221 231v643h-438v-858h-244v858h-154v184h1243v-184h-163v-577q0 -61 17.5 -85t61.5 -24q42 0 86 23z" />
    <glyph glyph-name="endash" unicode="&#x2013;" horiz-adv-x="1366" 
d="M0 647h1366v-194h-1366v194z" />
    <glyph glyph-name="emdash" unicode="&#x2014;" horiz-adv-x="2048" 
d="M143 453v194h1762v-194h-1762z" />
    <glyph glyph-name="quoteleft" unicode="&#x2018;" horiz-adv-x="505" 
d="M371 1485v-115q-58 -5 -77.5 -21t-19.5 -63v-39h88v-268h-229v229q0 82 8 129.5t34 82.5t72 49t124 16z" />
    <glyph glyph-name="quoteright" unicode="&#x2019;" horiz-adv-x="505" 
d="M133 975v115q58 5 77 21t19 63v38h-88v269h230v-230q0 -82 -8 -129.5t-34 -82t-72 -48.5t-124 -16z" />
    <glyph glyph-name="quotesinglbase" unicode="&#x201a;" horiz-adv-x="505" 
d="M133 -227v114q58 5 77 21t19 63v39h-88v269h230v-230q0 -82 -8 -129.5t-34 -82t-72 -48.5t-124 -16z" />
    <glyph glyph-name="quotedblleft" unicode="&#x201c;" horiz-adv-x="911" 
d="M786 1485v-115q-58 -5 -77 -21t-19 -63v-39h88v-268h-229v229q0 82 8 129.5t33.5 82.5t71.5 49t124 16zM360 1485v-115q-58 -5 -77 -21t-19 -63v-39h88v-268h-229v229q0 82 8 129.5t33.5 82.5t71.5 49t124 16z" />
    <glyph glyph-name="quotedblright" unicode="&#x201d;" horiz-adv-x="911" 
d="M123 975v115q58 5 77 21t19 63v38h-88v269h229v-230q0 -82 -8 -129.5t-33.5 -82t-71.5 -48.5t-124 -16zM549 975v115q58 5 77 21t19 63v38h-88v269h229v-230q0 -82 -8 -129.5t-33.5 -82t-71.5 -48.5t-124 -16z" />
    <glyph glyph-name="quotedblbase" unicode="&#x201e;" horiz-adv-x="911" 
d="M123 -227v114q58 5 77 21t19 63v39h-88v269h229v-230q0 -82 -8 -129.5t-33.5 -82t-71.5 -48.5t-124 -16zM549 -227v114q58 5 77 21t19 63v39h-88v269h229v-230q0 -82 -8 -129.5t-33.5 -82t-71.5 -48.5t-124 -16z" />
    <glyph glyph-name="dagger" unicode="&#x2020;" horiz-adv-x="1366" 
d="M561 901h-311v207h311v373h244v-373h309v-207h-309v-901h-244v901z" />
    <glyph glyph-name="daggerdbl" unicode="&#x2021;" horiz-adv-x="1366" 
d="M561 311h-282v201h282v457h-282v200h282v312h244v-312h282v-200h-282v-457h282v-201h-282v-311h-244v311z" />
    <glyph glyph-name="bullet" unicode="&#x2022;" 
d="M346 985q116 0 198.5 -82.5t82.5 -197.5q0 -120 -83.5 -204.5t-201.5 -84.5t-201.5 84.5t-83.5 204.5q0 118 83.5 199t205.5 81z" />
    <glyph glyph-name="ellipsis" unicode="&#x2026;" horiz-adv-x="2048" 
d="M221 0v281h242v-281h-242zM903 0v281h242v-281h-242zM1585 0v281h242v-281h-242z" />
    <glyph glyph-name="perthousand" unicode="&#x2030;" horiz-adv-x="2048" 
d="M881 1503h137l-512 -1534h-137zM297 1366q-77 0 -104 -28.5t-27 -118.5v-207q0 -85 28.5 -114.5t102.5 -29.5q77 0 104 29t27 119v207q0 85 -28.5 114t-102.5 29zM297 737q-164 0 -223.5 56t-59.5 211v227q0 149 62 207.5t221 58.5q164 0 223.5 -56.5t59.5 -209.5v-227
q0 -150 -62 -208.5t-221 -58.5zM1079 602q-77 0 -104 -28.5t-27 -118.5v-207q0 -85 28.5 -114.5t102.5 -29.5q77 0 104 29t27 119v207q0 85 -28.5 114t-102.5 29zM1079 -27q-164 0 -223 56t-59 211v227q0 150 61.5 208t220.5 58q164 0 223.5 -56.5t59.5 -209.5v-227
q0 -150 -62 -208.5t-221 -58.5zM1751 602q-77 0 -104 -28.5t-27 -118.5v-207q0 -85 28.5 -114.5t102.5 -29.5q77 0 104 29t27 119v207q0 85 -28.5 114t-102.5 29zM1751 -27q-164 0 -223.5 56t-59.5 211v227q0 149 62 207.5t221 58.5q164 0 223.5 -56.5t59.5 -209.5v-227
q0 -150 -62 -208.5t-221 -58.5z" />
    <glyph glyph-name="guilsinglleft" unicode="&#x2039;" horiz-adv-x="630" 
d="M330 838h186l-225 -301l223 -312h-190l-222 307z" />
    <glyph glyph-name="guilsinglright" unicode="&#x203a;" horiz-adv-x="630" 
d="M301 225h-186l225 301l-223 312h190l221 -308z" />
    <glyph glyph-name="fraction" unicode="&#x2044;" horiz-adv-x="342" 
d="M522 1495h162l-868 -1513h-164z" />
    <glyph glyph-name="Euro" unicode="&#x20ac;" horiz-adv-x="1366" 
d="M150 649h131v162h-181l50 158h133q2 144 39 246.5t108 163.5t167 88.5t226 27.5h68q140 0 236.5 -26.5t160.5 -90.5l-78 -215q-100 107 -325 107h-47q-162 0 -225 -66.5t-68 -234.5h612l-49 -158h-563v-162h518l-49 -157h-469l4 -50q10 -125 74 -178t192 -53h103
q96 0 174.5 28t158.5 103v-254q-107 -102 -321 -102h-121q-117 0 -205.5 21.5t-157.5 70.5t-109 134.5t-50 207.5l-6 72h-181z" />
    <glyph glyph-name="afii61289" unicode="&#x2113;" horiz-adv-x="1187" 
d="M500 1075v-401q250 207 250 471q0 89 -29.5 133.5t-81.5 44.5q-60 0 -99.5 -62.5t-39.5 -185.5zM946 348l135 -123q-104 -139 -207 -190t-237 -51q-317 0 -375 309l-121 -78l-86 160l189 121v495q0 254 107 380t288 126q151 0 238.5 -97t87.5 -255q0 -200 -114 -369
t-351 -348q0 -225 178 -225q79 0 141 33t127 112z" />
    <glyph glyph-name="trademark" unicode="&#x2122;" horiz-adv-x="1935" 
d="M10 1481h633v-168h-225v-617h-185v617h-223v168zM739 696v785h293l207 -574l207 574h285v-785h-181v607l-223 -607h-186l-221 607v-607h-181z" />
    <glyph glyph-name="Omega" unicode="&#x2126;" horiz-adv-x="1734" 
d="M1331 236v-7h311v-229h-649v197q102 65 171.5 138.5t114 183t44.5 243.5q0 226 -122.5 362t-326.5 136q-207 0 -333.5 -134t-126.5 -364q0 -193 89.5 -342.5t241.5 -222.5v-197h-655v229h305v7q-112 73 -188 223.5t-76 333.5q0 152 53.5 282t150 223t236.5 146t306 53
q172 0 310.5 -53t228.5 -145.5t138 -216t48 -267.5q0 -199 -79 -349t-192 -230z" />
    <glyph glyph-name="estimated" unicode="&#x212e;" horiz-adv-x="1622" 
d="M1520 737h-1108v-493q162 -162 397 -162q171 0 298.5 78.5t229.5 249.5l97 -56q-130 -200 -270.5 -285t-354.5 -85q-212 0 -374.5 100.5t-247.5 271t-85 381.5q0 213 85 385t247.5 273.5t374.5 101.5q208 0 369 -97t250 -269.5t92 -393.5zM412 838h798v397
q-170 164 -403 164q-236 0 -395 -164v-397z" />
    <glyph glyph-name="partialdiff" unicode="&#x2202;" horiz-adv-x="1386" 
d="M244 1219l-78 176q189 102 422 102q304 0 480.5 -194.5t176.5 -542.5q0 -186 -49 -335t-136.5 -245t-205.5 -147t-258 -51q-128 0 -226.5 40t-155 105.5t-84.5 140.5t-28 154q0 141 60.5 255t178 181.5t271.5 67.5q78 0 145.5 -18t113 -47.5t75 -59.5t47.5 -62h4v29
q0 236 -110.5 379t-317.5 143q-187 0 -325 -71zM618 182q75 0 139 30.5t106.5 82t70 114t37.5 132.5q-24 72 -103.5 130t-203.5 58q-143 0 -226.5 -85t-83.5 -210q0 -116 68 -184t196 -68z" />
    <glyph glyph-name="Delta" unicode="&#x2206;" horiz-adv-x="1466" 
d="M61 0v182l504 1299h340l498 -1297v-184h-1342zM326 211h804l-309 844q-12 29 -29.5 80.5t-36 109t-22.5 68.5h-4q-68 -209 -88 -258z" />
    <glyph glyph-name="product" unicode="&#x220f;" horiz-adv-x="1652" 
d="M1503 1481v-1747h-278v1511h-799v-1511h-279v1747h1356z" />
    <glyph glyph-name="summation" unicode="&#x2211;" horiz-adv-x="1439" 
d="M1370 -266h-1286v149l534 713l-503 704v181h1220v-242h-854v-8l463 -623l-481 -620v-11h907v-243z" />
    <glyph glyph-name="minus" unicode="&#x2212;" horiz-adv-x="1366" 
d="M125 649h1116v-196h-1116v196z" />
    <glyph glyph-name="uni2215" unicode="&#x2215;" horiz-adv-x="342" 
d="M522 1495h162l-868 -1513h-164z" />
    <glyph glyph-name="uni2219" unicode="&#x2219;" 
d="M342 809q63 0 107.5 -44.5t44.5 -107.5q0 -65 -44 -109t-108 -44q-66 0 -110 43.5t-44 109.5t44 109t110 43z" />
    <glyph glyph-name="radical" unicode="&#x221a;" horiz-adv-x="1366" 
d="M1313 1638l-467 -1822h-217l-350 829l-160 -65l-51 135l360 143l234 -596q30 -71 61 -176q8 56 37 180l342 1372h211z" />
    <glyph glyph-name="infinity" unicode="&#x221e;" horiz-adv-x="1632" 
d="M1182 203q-107 0 -184 45t-185 158q-47 -47 -74.5 -72.5t-66 -55t-71 -43t-76.5 -23t-95 -9.5q-142 0 -233 96t-91 242q0 139 95.5 238.5t244.5 99.5q57 0 101 -10t89 -38t83 -61.5t100 -95.5q56 59 91 90.5t81.5 61.5t96 41.5t114.5 11.5q142 0 231 -96.5t89 -241.5
q0 -139 -95 -238.5t-245 -99.5zM1180 381q66 0 110.5 47t44.5 113q0 71 -42.5 114t-106.5 43q-68 0 -117 -32.5t-135 -122.5q82 -93 138.5 -127.5t107.5 -34.5zM446 381q66 0 118 34.5t134 125.5q-8 8 -33.5 34t-32.5 32.5t-27.5 25.5t-29 24t-26 16.5t-30.5 14.5t-30 6.5
t-36 3.5q-69 0 -112.5 -44t-43.5 -113q0 -72 41.5 -116t107.5 -44z" />
    <glyph glyph-name="integral" unicode="&#x222b;" horiz-adv-x="776" 
d="M750 1563l-31 -179q-27 9 -72 9q-58 0 -90 -31.5t-47.5 -114.5t-15.5 -235q0 -116 16 -386t16 -413q0 -530 -350 -530q-98 0 -156 26l33 182q35 -12 84 -12t81 27t51.5 99t19.5 192q0 133 -15.5 404.5t-15.5 418.5q0 291 92 425t283 134q71 0 117 -16z" />
    <glyph glyph-name="approxequal" unicode="&#x2248;" horiz-adv-x="1366" 
d="M930 377q65 0 103 32t77 105l162 -51q-47 -134 -132.5 -206.5t-197.5 -72.5q-65 0 -139.5 23t-130.5 50t-122.5 50t-117.5 23q-65 0 -103.5 -34t-76.5 -112l-162 49q47 141 132 215t198 74q67 0 144.5 -22.5t135.5 -50t122 -50t108 -22.5zM930 780q65 0 103.5 34.5
t76.5 113.5l162 -51q-47 -141 -132 -215t-198 -74q-65 0 -139.5 23t-130.5 50.5t-122.5 50.5t-117.5 23q-64 0 -102.5 -33t-77.5 -106l-162 51q47 135 132.5 208t197.5 73q67 0 144.5 -23t135.5 -51t122 -51t108 -23z" />
    <glyph glyph-name="notequal" unicode="&#x2260;" horiz-adv-x="1366" 
d="M135 872h672l162 236h180l-162 -236h244v-184h-369l-182 -268h551v-184h-674l-147 -216h-181l148 216h-242v184h367l180 268h-547v184z" />
    <glyph glyph-name="lessequal" unicode="&#x2264;" horiz-adv-x="1366" 
d="M135 190h1096v-190h-1096v190zM137 631v176l1094 373v-211l-789 -248v-4l789 -244v-211z" />
    <glyph glyph-name="greaterequal" unicode="&#x2265;" horiz-adv-x="1366" 
d="M135 190h1096v-190h-1096v190zM1229 807v-176l-1094 -369v211l789 244v4l-789 248v211z" />
    <glyph glyph-name="lozenge" unicode="&#x25ca;" horiz-adv-x="1298" 
d="M774 1481l451 -787l-451 -766h-254l-450 766l450 787h254zM655 135l316 553l-326 582h-4l-317 -570l325 -565h6z" />
    <glyph glyph-name="grave.cap" unicode="&#xe300;" 
d="M313 1894l189 -301h-187l-295 301h293z" />
    <glyph glyph-name="acute.cap" unicode="&#xe301;" 
d="M662 1894l-295 -301h-187l191 301h291z" />
    <glyph glyph-name="circumflex.cap" unicode="&#xe302;" 
d="M219 1894h244l215 -301h-207l-129 185l-131 -185h-209z" />
    <glyph glyph-name="caron.cap" unicode="&#xe303;" 
d="M463 1593h-244l-215 301h207l129 -184l131 184h209z" />
    <glyph glyph-name="tilde.cap" unicode="&#xe304;" 
d="M190 1858q59 0 162 -42t137 -42q77 0 95 88h123q-17 -120 -73.5 -180t-144.5 -60q-56 0 -161.5 42t-137.5 42q-76 0 -94 -88h-123q17 121 73 180.5t144 59.5z" />
    <glyph glyph-name="dieresis.cap" unicode="&#xe305;" 
d="M412 1622v229h231v-229h-231zM41 1622v229h231v-229h-231z" />
    <glyph glyph-name="macron.cap" unicode="&#xe306;" 
d="M0 1663v141h682v-141h-682z" />
    <glyph glyph-name="breve.cap" unicode="&#xe307;" 
d="M6 1894h123q30 -151 215 -151q183 0 213 151h119q-10 -139 -99.5 -217t-238.5 -78q-153 0 -239.5 77t-92.5 218z" />
    <glyph glyph-name="ring.cap" unicode="&#xe308;" 
d="M340 1976q93 0 152 -57.5t59 -153.5t-60 -154.5t-153 -58.5q-94 0 -153.5 57t-59.5 154q0 95 60.5 154t154.5 59zM338 1647q51 0 83 32t32 86q0 53 -32.5 85t-82.5 32t-82.5 -32t-32.5 -87q0 -53 32.5 -84.5t82.5 -31.5z" />
    <glyph glyph-name="hungarumlaut.cap" unicode="&#xe309;" 
d="M438 1894l-243 -301h-179l187 301h235zM805 1894l-275 -301h-176l205 301h246z" />
    <glyph glyph-name="dotaccent.cap" unicode="&#xe30a;" 
d="M463 1636h-244v209h244v-209z" />
    <glyph glyph-name="caron.alt" unicode="&#xe30b;" 
d="M535 1481l-129 -373h-152l45 373h236z" />
    <glyph glyph-name="commaaccent" unicode="&#xe30c;" 
d="M506 -104l-152 -308h-168l78 308h242z" />
    <glyph glyph-name="commaaccent.alt" unicode="&#xe30d;" 
d="M195 1180l151 301h162l-82 -301h-231z" />
    <glyph glyph-name="uniF8FF" unicode="&#xf8ff;" horiz-adv-x="993" 
d="M539 227h-109v129h109v-129zM526 455h-94v32q0 101 23.5 153.5t93.5 115.5q58 58 76 92t18 72q0 68 -43 115.5t-104 47.5q-64 0 -106 -44.5t-52 -139.5l-98 16q13 136 82.5 201.5t179.5 65.5q107 0 174 -69t67 -185q0 -66 -25.5 -116.5t-96.5 -115.5q-66 -57 -80.5 -91.5
t-14.5 -115.5v-34zM96 96h801v1198h-801v-1198zM0 1393h993v-1393h-993v1393z" />
    <glyph glyph-name="CR" horiz-adv-x="0" 
 />
    </font>
</defs>
</svg>
